<svg xmlns="http://www.w3.org/2000/svg" viewBox="0 0 3000 3600">
  <rect x="900" y="2330" width="1200" height="14" fill="#ffd60a"/>
  <g transform="translate(708.43, 700)">
    <path d="M42.55 0L16.77 0L16.77-104.15L1.46-104.15L1.46-128.91L57.86-128.91L57.86-104.15L42.55-104.15L42.55 0M114.67 0L89.04 0L89.04-128.91L114.67-128.91L114.67-82.84L126.83-82.84L126.83-128.91L152.47-128.91L152.47 0L126.83 0L126.83-58.45L114.67-58.45L114.67 0M241.14 0L187.89 0L187.89-128.91L239.46-128.91L239.46-104L214.11-104L214.11-78.88L238.43-78.88L238.43-54.64L214.11-54.64L214.11-25.12L241.14-25.12L241.14 0M356.52 0L331.62 0L331.62-128.91L356.52-128.91L356.52 0M425.35 0L390.78 0L390.78-128.91L426.23-128.91Q440.14-128.91 447.17-121.18Q454.20-113.45 454.20-98.58L454.20-38.23Q454.20-19.92 447.80-9.96Q441.39 0 425.35 0M416.70-106.35L416.70-22.78L421.17-22.78Q428.28-22.78 428.28-29.66L428.28-96.17Q428.28-102.61 426.56-104.48Q424.83-106.35 419.56-106.35L416.70-106.35M512.48 0L487.58 0L487.58-128.91L512.48-128.91L512.48 0M577.50 1.17Q562.04 1.17 553.88-8.17Q545.71-17.50 545.71-35.16L545.71-96.39Q545.71-112.94 553.80-121.51Q561.90-130.08 577.50-130.08Q593.10-130.08 601.19-121.51Q609.28-112.94 609.28-96.39L609.28-35.16Q609.28-17.50 601.12-8.17Q592.95 1.17 577.50 1.17M577.72-22.56Q583.58-22.56 583.58-33.91L583.58-96.83Q583.58-106.35 577.86-106.35Q571.42-106.35 571.42-96.61L571.42-33.76Q571.42-27.76 572.88-25.16Q574.35-22.56 577.72-22.56M673.71 1.17Q659.72 1.17 651.19-7.54Q642.66-16.26 642.66-31.93L642.66-91.41Q642.66-110.16 650.09-120.12Q657.53-130.08 674.30-130.08Q683.46-130.08 690.60-126.71Q697.74-123.34 701.84-116.64Q705.94-109.94 705.94-99.76L705.94-77.49L680.31-77.49L680.31-96.53Q680.31-102.32 678.84-104.33Q677.38-106.35 674.30-106.35Q670.71-106.35 669.47-103.75Q668.22-101.15 668.22-96.83L668.22-32.30Q668.22-26.95 669.80-24.76Q671.37-22.56 674.30-22.56Q677.60-22.56 678.95-25.27Q680.31-27.98 680.31-32.30L680.31-55.52L706.23-55.52L706.23-31.13Q706.23-14.14 697.66-6.48Q689.09 1.17 673.71 1.17M764.88 0L738.80 0L738.80-128.91L778.35-128.91Q788.24-128.91 793.29-124.40Q798.35-119.90 800.07-111.80Q801.79-103.71 801.79-92.80Q801.79-82.25 799.12-75.95Q796.44-69.65 789.05-67.24Q795.13-65.99 797.58-61.19Q800.03-56.40 800.03-48.78L800.03 0L774.62 0L774.62-50.46Q774.62-56.10 772.31-57.46Q770-58.81 764.88-58.81L764.88 0M765.02-105.03L765.02-81.15L771.25-81.15Q776.60-81.15 776.60-92.80Q776.60-100.34 775.42-102.69Q774.25-105.03 771.03-105.03L765.02-105.03M855.82 0L830.77 0L843.22-128.91L886.95-128.91L899.18 0L874.79 0L872.96-20.80L857.43-20.80L855.82 0M864.17-106.93L859.26-41.38L870.98-41.38L865.34-106.93L864.17-106.93M961.12 1.17Q947.13 1.17 938.60-7.54Q930.06-16.26 930.06-31.93L930.06-91.41Q930.06-110.16 937.50-120.12Q944.93-130.08 961.71-130.08Q970.86-130.08 978-126.71Q985.14-123.34 989.24-116.64Q993.35-109.94 993.35-99.76L993.35-77.49L967.71-77.49L967.71-96.53Q967.71-102.32 966.25-104.33Q964.78-106.35 961.71-106.35Q958.12-106.35 956.87-103.75Q955.63-101.15 955.63-96.83L955.63-32.30Q955.63-26.95 957.20-24.76Q958.78-22.56 961.71-22.56Q965-22.56 966.36-25.27Q967.71-27.98 967.71-32.30L967.71-55.52L993.64-55.52L993.64-31.13Q993.64-14.14 985.07-6.48Q976.50 1.17 961.12 1.17M1066.13 0L1041.81 0L1041.81-42.41L1021.23-128.91L1046.79-128.91L1053.97-85.25L1061.14-128.91L1086.63-128.91L1066.13-42.41L1066.13 0M1200.04 0L1175.14 0L1175.14-128.91L1200.04-128.91L1200.04 0M1259.49 0L1234.29 0L1234.29-128.91L1260.81-128.91L1272.67-67.16L1272.67-128.91L1297.57-128.91L1297.57 0L1272.38 0L1259.49-64.45L1259.49 0M1367.57 0L1333 0L1333-128.91L1368.45-128.91Q1382.36-128.91 1389.40-121.18Q1396.43-113.45 1396.43-98.58L1396.43-38.23Q1396.43-19.92 1390.02-9.96Q1383.61 0 1367.57 0M1358.93-106.35L1358.93-22.78L1363.39-22.78Q1370.50-22.78 1370.50-29.66L1370.50-96.17Q1370.50-102.61 1368.78-104.48Q1367.06-106.35 1361.78-106.35L1358.93-106.35M1484.22 0L1430.97 0L1430.97-128.91L1482.54-128.91L1482.54-104L1457.19-104L1457.19-78.88L1481.51-78.88L1481.51-54.64L1457.19-54.64L1457.19-25.12L1484.22-25.12L1484.22 0M1539.13 0L1512.98 0L1526.82-68.33L1515.84-128.98L1541.03-128.98L1547.70-84.67L1553.63-128.98L1578.90-128.98L1567.91-68.33L1581.68 0L1555.61 0L1547.48-50.39" fill="#ffffff"/>
  </g>
  <g transform="translate(354.69, 1450)">
    <path d="M155 5Q79.69 5 46.41-32.50Q13.13-70 13.13-151.87L13.13-205.62L121.88-205.62L121.88-136.87Q121.88-117.81 127.66-107.03Q133.44-96.25 147.81-96.25Q162.81-96.25 168.59-105Q174.38-113.75 174.38-133.75Q174.38-159.06 169.38-176.09Q164.38-193.12 152.03-208.59Q139.69-224.06 117.81-244.69L68.44-291.56Q13.13-343.75 13.13-410.94Q13.13-481.25 45.78-518.12Q78.44-555 140.31-555Q215.94-555 247.66-514.69Q279.38-474.37 279.38-392.19L167.50-392.19L167.50-430Q167.50-441.25 161.09-447.50Q154.69-453.75 143.75-453.75Q130.63-453.75 124.53-446.41Q118.44-439.06 118.44-427.50Q118.44-415.94 124.69-402.50Q130.94-389.06 149.38-371.56L212.81-310.62Q231.88-292.50 247.81-272.34Q263.75-252.19 273.44-225.47Q283.13-198.75 283.13-160.31Q283.13-82.81 254.53-38.91Q225.94 5 155 5M456.88 5Q388.13 5 355.63-33.59Q323.13-72.19 323.13-147.19L323.13-550L430-550L430-151.56Q430-137.81 431.56-125.16Q433.13-112.50 438.75-104.37Q444.38-96.25 456.88-96.25Q469.69-96.25 475.31-104.22Q480.94-112.19 482.34-125Q483.75-137.81 483.75-151.56L483.75-550L590.63-550L590.63-147.19Q590.63-72.19 558.13-33.59Q525.63 5 456.88 5M754.06 0L642.81 0L642.81-550L811.56-550Q853.75-550 875.31-530.78Q896.88-511.56 904.22-477.03Q911.56-442.50 911.56-395.94Q911.56-350.94 900.16-324.06Q888.75-297.19 857.19-286.87Q883.13-281.56 893.59-261.09Q904.06-240.62 904.06-208.12L904.06 0L795.63 0L795.63-215.31Q795.63-239.37 785.78-245.16Q775.94-250.94 754.06-250.94L754.06 0M754.69-448.12L754.69-346.25L781.25-346.25Q804.06-346.25 804.06-395.94Q804.06-428.12 799.06-438.12Q794.06-448.12 780.31-448.12L754.69-448.12M1158.44 0L1008.44 0L940.63-550.31L1045.31-550.31L1085.63-175.94L1121.56-550.31L1226.25-550.31L1158.44 0M1369.38 0L1263.13 0L1263.13-550L1369.38-550L1369.38 0M1623.75 0L1473.75 0L1405.94-550.31L1510.63-550.31L1550.94-175.94L1586.88-550.31L1691.56-550.31L1623.75 0M1960.63 0L1733.44 0L1733.44-550L1953.44-550L1953.44-443.75L1845.31-443.75L1845.31-336.56L1949.06-336.56L1949.06-233.12L1845.31-233.12L1845.31-107.19L1960.63-107.19L1960.63 0M2154.38 0L2006.88 0L2006.88-550L2158.13-550Q2217.50-550 2247.50-517.03Q2277.50-484.06 2277.50-420.62L2277.50-163.12Q2277.50-85 2250.16-42.50Q2222.81 0 2154.38 0M2117.50-453.75L2117.50-97.19L2136.56-97.19Q2166.88-97.19 2166.88-126.56L2166.88-410.31Q2166.88-437.81 2159.53-445.78Q2152.19-453.75 2129.69-453.75" fill="#ffffff"/>
  </g>
  <g transform="translate(666.41, 2150)">
    <path d="M181.56 0L71.56 0L71.56-444.37L6.25-444.37L6.25-550L246.88-550L246.88-444.37L181.56-444.37L181.56 0M396.88 0L287.50 0L287.50-550L396.88-550L396.88-353.44L448.75-353.44L448.75-550L558.13-550L558.13 0L448.75 0L448.75-249.37L396.88-249.37L396.88 0M844.06 0L616.88 0L616.88-550L836.88-550L836.88-443.75L728.75-443.75L728.75-336.56L832.50-336.56L832.50-233.12L728.75-233.12L728.75-107.19L844.06-107.19" fill="#ffffff"/>
    <path d="M1191.25 5Q1134.06 5 1101.72-14.53Q1069.38-34.06 1056.09-73.44Q1042.81-112.81 1042.81-171.56L1042.81-320.31Q1042.81-377.50 1047.66-421.25Q1052.50-465 1067.81-494.69Q1083.13-524.37 1113.44-539.69Q1143.75-555 1194.38-555Q1229.06-555 1259.06-542.97Q1289.06-530.94 1307.50-507.03Q1325.94-483.12 1325.94-447.19L1325.94-387.81L1220-387.81L1220-399.06Q1220-412.81 1218.59-426.56Q1217.19-440.31 1211.56-449.37Q1205.94-458.44 1192.50-458.44Q1174.06-458.44 1166.88-448.28Q1159.69-438.12 1159.69-419.06L1159.69-308.75Q1167.50-323.44 1183.13-332.34Q1198.75-341.25 1221.25-341.25Q1266.88-341.25 1291.41-322.97Q1315.94-304.69 1325.31-268.44Q1334.69-232.19 1334.69-177.81Q1334.69-122.81 1321.25-81.72Q1307.81-40.62 1276.41-17.81Q1245 5 1191.25 5M1187.19-96.25Q1206.56-96.25 1210.31-112.66Q1214.06-129.06 1214.06-154.69L1214.06-199.06Q1214.06-244.06 1188.75-244.06Q1159.69-244.06 1159.69-205L1159.69-136.87Q1159.69-96.25 1187.19-96.25M1509.38 5Q1474.69 5 1444.69-7.03Q1414.69-19.06 1396.25-43.12Q1377.81-67.19 1377.81-102.81L1377.81-162.19L1483.75-162.19L1483.75-150.94Q1483.75-137.19 1485.16-123.44Q1486.56-109.69 1492.34-100.62Q1498.13-91.56 1511.25-91.56Q1529.69-91.56 1536.88-101.72Q1544.06-111.87 1544.06-130.94L1544.06-241.25Q1536.25-226.87 1520.63-217.81Q1505-208.75 1482.50-208.75Q1437.19-208.75 1412.50-227.03Q1387.81-245.31 1378.44-281.56Q1369.06-317.81 1369.06-372.19Q1369.06-427.19 1382.50-468.28Q1395.94-509.37 1427.34-532.19Q1458.75-555 1512.50-555Q1570-555 1602.19-535.47Q1634.38-515.94 1647.66-476.72Q1660.94-437.50 1660.94-378.44L1660.94-229.69Q1660.94-172.50 1656.09-128.75Q1651.25-85 1635.94-55.31Q1620.63-25.62 1590.31-10.31Q1560 5 1509.38 5M1515-305.94Q1544.06-305.94 1544.06-345L1544.06-413.12Q1544.06-453.75 1516.56-453.75Q1497.19-453.75 1493.44-437.34Q1489.69-420.94 1489.69-395.31L1489.69-350.94Q1489.69-305.94 1515-305.94" fill="#ffd60a"/>
  </g>
  <g transform="translate(538.95, 2820)">
    <path d="M86.72 0L12.19 0L12.19-275L86.72-275Q116.72-275 130.39-260.39Q144.06-245.78 144.06-212.19L144.06-200.16Q144.06-180.78 137.11-168.75Q130.16-156.72 115.94-152.97Q134.53-148.28 140.86-131.02Q147.19-113.75 147.19-88.91Q147.19-62.19 142.19-42.19Q137.19-22.19 124.06-11.09Q110.94 0 86.72 0M65.94-232.50L65.94-171.41L77.19-171.41Q84.84-171.41 87.03-177.34Q89.22-183.28 89.22-191.56L89.22-219.22Q89.22-232.50 77.50-232.50L65.94-232.50M71.41-48.44Q92.81-48.44 92.81-68.75L92.81-103.12Q92.81-114.84 89.30-121.64Q85.78-128.44 76.09-128.44L65.94-128.44L65.94-48.75Q69.38-48.44 71.41-48.44M226.94 0L171.31 0L171.31-275L255.69-275Q276.78-275 287.56-265.39Q298.34-255.78 302.02-238.52Q305.69-221.25 305.69-197.97Q305.69-175.47 299.98-162.03Q294.28-148.59 278.50-143.44Q291.47-140.78 296.70-130.55Q301.94-120.31 301.94-104.06L301.94 0L247.72 0L247.72-107.66Q247.72-119.69 242.80-122.58Q237.88-125.47 226.94-125.47L226.94 0M227.25-224.06L227.25-173.12L240.53-173.12Q251.94-173.12 251.94-197.97Q251.94-214.06 249.44-219.06Q246.94-224.06 240.06-224.06L227.25-224.06M375.75 0L322.31 0L348.88-275L442.16-275L468.25 0L416.22 0L412.31-44.37L379.19-44.37L375.75 0M393.56-228.12L383.09-88.28L408.09-88.28L396.06-228.12L393.56-228.12M579.72 0L512.69 0L483.16-275L536.91-275L552.06-101.41L567.53-275L618.78-275L633.47-101.41L648.16-275L702.53-275L672.53 0L606.59 0L592.84-132.34L579.72 0M778.69 0L724.94 0L724.94-275L781.50-275L806.81-143.28L806.81-275L859.94-275L859.94 0L806.19 0L778.69-137.50L778.69 0M964.06 0L890.31 0L890.31-275L965.94-275Q995.63-275 1010.63-258.52Q1025.63-242.03 1025.63-210.31L1025.63-81.56Q1025.63-42.50 1011.95-21.25Q998.28 0 964.06 0M945.63-226.87L945.63-48.59L955.16-48.59Q970.31-48.59 970.31-63.28L970.31-205.16Q970.31-218.91 966.64-222.89Q962.97-226.87 951.72-226.87L945.63-226.87M1119.75 2.50Q1086.78 2.50 1069.36-17.42Q1051.94-37.34 1051.94-75L1051.94-205.62Q1051.94-240.94 1069.20-259.22Q1086.47-277.50 1119.75-277.50Q1153.03-277.50 1170.30-259.22Q1187.56-240.94 1187.56-205.62L1187.56-75Q1187.56-37.34 1170.14-17.42Q1152.72 2.50 1119.75 2.50M1120.22-48.12Q1132.72-48.12 1132.72-72.34L1132.72-206.56Q1132.72-226.87 1120.53-226.87Q1106.78-226.87 1106.78-206.09L1106.78-72.03Q1106.78-59.22 1109.91-53.67Q1113.03-48.12 1120.22-48.12M1385.34 0L1318.31 0L1288.78-275L1342.53-275L1357.69-101.41L1373.16-275L1424.41-275L1439.09-101.41L1453.78-275L1508.16-275L1478.16 0L1412.22 0L1398.47-132.34L1385.34 0M1596.19 2.50Q1563.22 2.50 1545.80-17.42Q1528.38-37.34 1528.38-75L1528.38-205.62Q1528.38-240.94 1545.64-259.22Q1562.91-277.50 1596.19-277.50Q1629.47-277.50 1646.73-259.22Q1664-240.94 1664-205.62L1664-75Q1664-37.34 1646.58-17.42Q1629.16 2.50 1596.19 2.50M1596.66-48.12Q1609.16-48.12 1609.16-72.34L1609.16-206.56Q1609.16-226.87 1596.97-226.87Q1583.22-226.87 1583.22-206.09L1583.22-72.03Q1583.22-59.22 1586.34-53.67Q1589.47-48.12 1596.66-48.12M1745.94 0L1692.19 0L1692.19-275L1748.75-275L1774.06-143.28L1774.06-275L1827.19-275L1827.19 0L1773.44 0L1745.94-137.50L1745.94 0M1909.91-0.16L1853.97-0.16L1853.97-46.72L1909.91-46.72" fill="#ff2e63"/>
  </g>
</svg>
