<svg xmlns="http://www.w3.org/2000/svg" viewBox="0 0 3000 3600">
  <rect x="900" y="2330" width="1200" height="14" fill="#ffd60a"/>
  <path d="M576.96 650L561.12 650L561.12 581.12L538.80 581.12L538.80 566L599.28 566L599.28 581.12L576.96 581.12 M658.92 650L643.08 650L643.08 566L658.92 566L658.92 600.32L686.04 600.32L686.04 566L701.88 566L701.88 650L686.04 650L686.04 615.44L658.92 615.44 M803.52 650L749.04 650L749.04 566L802.08 566L802.08 581.12L764.88 581.12L764.88 600.32L800.64 600.32L800.64 615.44L764.88 615.44L764.88 634.88L803.52 634.88  M1010.88 650L954.72 650L954.72 634.88L974.88 634.88L974.88 581.12L954.72 581.12L954.72 566L1010.88 566L1010.88 581.12L990.72 581.12L990.72 634.88L1010.88 634.88 M1085.52 650L1055.04 650L1055.04 634.76L1062.96 634.76L1062.96 581.12L1055.04 581.12L1055.04 566L1085.52 566Q1101 566 1108.62 573.32Q1116.24 580.64 1116.24 595.76L1116.24 620.24Q1116.24 635.36 1108.62 642.68Q1101 650 1085.52 650M1078.80 581.12L1078.80 634.88L1085.52 634.88Q1093.80 634.88 1097.10 630.98Q1100.40 627.08 1100.40 618.80L1100.40 595.76Q1100.40 588.56 1097.10 584.84Q1093.80 581.12 1085.52 581.12 M1217.76 650L1161.60 650L1161.60 634.88L1181.76 634.88L1181.76 581.12L1161.60 581.12L1161.60 566L1217.76 566L1217.76 581.12L1197.60 581.12L1197.60 634.88L1217.76 634.88 M1293.12 651.68Q1278.72 651.68 1270.44 642.86Q1262.16 634.04 1262.16 617.36L1262.16 598.64Q1262.16 582.44 1270.44 573.38Q1278.72 564.32 1293.12 564.32Q1307.52 564.32 1315.80 573.38Q1324.08 582.44 1324.08 598.64L1324.08 617.36Q1324.08 634.04 1315.80 642.86Q1307.52 651.68 1293.12 651.68M1293.12 637.28Q1301.76 637.28 1305 632Q1308.24 626.72 1308.24 618.32L1308.24 597.68Q1308.24 592.40 1306.68 588.08Q1305.12 583.76 1301.82 581.24Q1298.52 578.72 1293.12 578.72Q1287.72 578.72 1284.36 581.24Q1281 583.76 1279.50 588.08Q1278 592.40 1278 597.68L1278 618.32Q1278 626.72 1281.24 632Q1284.48 637.28 1293.12 637.28 M1396.80 651.68Q1382.40 651.68 1374 642.86Q1365.60 634.04 1365.60 617.36L1365.60 598.64Q1365.60 582.44 1374 573.38Q1382.40 564.32 1396.80 564.32Q1411.80 564.32 1419.66 572.72Q1427.52 581.12 1427.52 595.52L1427.52 597.68L1411.68 597.68L1411.68 595.52Q1411.68 591.56 1410.36 587.66Q1409.04 583.76 1405.80 581.24Q1402.56 578.72 1396.80 578.72Q1391.52 578.72 1388.10 581.30Q1384.68 583.88 1383.06 588.14Q1381.44 592.40 1381.44 597.44L1381.44 618.56Q1381.44 626.72 1384.92 632Q1388.40 637.28 1396.80 637.28Q1402.92 637.28 1406.16 634.88Q1409.40 632.48 1410.54 628.64Q1411.68 624.80 1411.68 620.48L1411.68 618.32L1427.52 618.32L1427.52 620.48Q1427.52 635.36 1419.66 643.52Q1411.80 651.68 1396.80 651.68 M1487.88 650L1472.04 650L1472.04 566L1504.20 566Q1512.84 566 1518.72 569.12Q1524.60 572.24 1527.60 577.46Q1530.60 582.68 1530.60 589.16L1530.60 592.04Q1530.60 597.20 1527.78 601.70Q1524.96 606.20 1519.32 608.60L1519.32 610.76Q1523.52 611.24 1525.98 614Q1528.44 616.76 1528.44 620.96L1528.44 650L1512.60 650L1512.60 624.80Q1512.60 621.92 1511.10 620.12Q1509.60 618.32 1506.12 618.32L1487.88 618.32L1487.88 650M1487.88 581.12L1487.88 603.20L1503 603.20Q1508.76 603.20 1511.76 600.44Q1514.76 597.68 1514.76 592.88L1514.76 591.44Q1514.76 587.24 1511.76 584.18Q1508.76 581.12 1503 581.12 M1585.08 650L1568.52 650L1588.56 566L1618.32 566L1638.36 650L1621.80 650L1617.72 632L1589.16 632L1585.08 650M1602.36 573.92L1592.52 616.88L1614.24 616.88L1604.52 573.92 M1707.12 651.68Q1692.72 651.68 1684.32 642.86Q1675.92 634.04 1675.92 617.36L1675.92 598.64Q1675.92 582.44 1684.32 573.38Q1692.72 564.32 1707.12 564.32Q1722.12 564.32 1729.98 572.72Q1737.84 581.12 1737.84 595.52L1737.84 597.68L1722 597.68L1722 595.52Q1722 591.56 1720.68 587.66Q1719.36 583.76 1716.12 581.24Q1712.88 578.72 1707.12 578.72Q1701.84 578.72 1698.42 581.30Q1695 583.88 1693.38 588.14Q1691.76 592.40 1691.76 597.44L1691.76 618.56Q1691.76 626.72 1695.24 632Q1698.72 637.28 1707.12 637.28Q1713.24 637.28 1716.48 634.88Q1719.72 632.48 1720.86 628.64Q1722 624.80 1722 620.48L1722 618.32L1737.84 618.32L1737.84 620.48Q1737.84 635.36 1729.98 643.52Q1722.12 651.68 1707.12 651.68 M1818.24 650L1802.40 650L1802.40 620.48L1798.80 620.48L1774.68 566L1791.96 566L1809.24 606.08L1811.40 606.08L1828.68 566L1845.96 566L1821.84 620.48L1818.24 620.48  M2045.28 650L1989.12 650L1989.12 634.88L2009.28 634.88L2009.28 581.12L1989.12 581.12L1989.12 566L2045.28 566L2045.28 581.12L2025.12 581.12L2025.12 634.88L2045.28 634.88 M2107.08 650L2091.24 650L2091.24 566L2122.20 566L2132.04 642.08L2134.20 642.08L2134.20 566L2150.04 566L2150.04 650L2119.08 650L2109.24 573.92L2107.08 573.92 M2223.36 650L2192.88 650L2192.88 634.76L2200.80 634.76L2200.80 581.12L2192.88 581.12L2192.88 566L2223.36 566Q2238.84 566 2246.46 573.32Q2254.08 580.64 2254.08 595.76L2254.08 620.24Q2254.08 635.36 2246.46 642.68Q2238.84 650 2223.36 650M2216.64 581.12L2216.64 634.88L2223.36 634.88Q2231.64 634.88 2234.94 630.98Q2238.24 627.08 2238.24 618.80L2238.24 595.76Q2238.24 588.56 2234.94 584.84Q2231.64 581.12 2223.36 581.12 M2355.12 650L2300.64 650L2300.64 566L2353.68 566L2353.68 581.12L2316.48 581.12L2316.48 600.32L2352.24 600.32L2352.24 615.44L2316.48 615.44L2316.48 634.88L2355.12 634.88 M2415.36 650L2398.20 650L2415.48 608.96L2415.48 606.80L2398.20 566L2415.36 566L2429.52 600.32L2432.40 600.32L2446.56 566L2463.72 566L2446.44 606.80L2446.44 608.96L2463.72 650L2446.56 650L2432.40 615.44L2429.52 615.44" fill="#ffffff"/>
  <path d="M505.94 1455Q430.63 1455 397.34 1417.50Q364.06 1380 364.06 1298.13L364.06 1244.38L472.81 1244.38L472.81 1313.13Q472.81 1332.19 478.59 1342.97Q484.38 1353.75 498.75 1353.75Q513.75 1353.75 519.53 1345Q525.31 1336.25 525.31 1316.25Q525.31 1290.94 520.31 1273.91Q515.31 1256.88 502.97 1241.41Q490.63 1225.94 468.75 1205.31L419.38 1158.44Q364.06 1106.25 364.06 1039.06Q364.06 968.75 396.72 931.88Q429.38 895 491.25 895Q566.88 895 598.59 935.31Q630.31 975.63 630.31 1057.81L518.44 1057.81L518.44 1020Q518.44 1008.75 512.03 1002.50Q505.63 996.25 494.69 996.25Q481.56 996.25 475.47 1003.59Q469.38 1010.94 469.38 1022.50Q469.38 1034.06 475.63 1047.50Q481.88 1060.94 500.31 1078.44L563.75 1139.38Q582.81 1157.50 598.75 1177.66Q614.69 1197.81 624.38 1224.53Q634.06 1251.25 634.06 1289.69Q634.06 1367.19 605.47 1411.09Q576.88 1455 505.94 1455 M807.81 1455Q739.06 1455 706.56 1416.41Q674.06 1377.81 674.06 1302.81L674.06 900L780.94 900L780.94 1298.44Q780.94 1312.19 782.50 1324.84Q784.06 1337.50 789.69 1345.63Q795.31 1353.75 807.81 1353.75Q820.63 1353.75 826.25 1345.78Q831.88 1337.81 833.28 1325Q834.69 1312.19 834.69 1298.44L834.69 900L941.56 900L941.56 1302.81Q941.56 1377.81 909.06 1416.41Q876.56 1455 807.81 1455 M1105 1450L993.75 1450L993.75 900L1162.50 900Q1204.69 900 1226.25 919.22Q1247.81 938.44 1255.16 972.97Q1262.50 1007.50 1262.50 1054.06Q1262.50 1099.06 1251.09 1125.94Q1239.69 1152.81 1208.13 1163.13Q1234.06 1168.44 1244.53 1188.91Q1255 1209.38 1255 1241.88L1255 1450L1146.56 1450L1146.56 1234.69Q1146.56 1210.63 1136.72 1204.84Q1126.88 1199.06 1105 1199.06L1105 1450M1105.63 1001.88L1105.63 1103.75L1132.19 1103.75Q1155 1103.75 1155 1054.06Q1155 1021.88 1150 1011.88Q1145 1001.88 1131.25 1001.88 M1509.38 1450L1359.38 1450L1291.56 899.69L1396.25 899.69L1436.56 1274.06L1472.50 899.69L1577.19 899.69 M1720.31 1450L1614.06 1450L1614.06 900L1720.31 900 M1974.69 1450L1824.69 1450L1756.88 899.69L1861.56 899.69L1901.88 1274.06L1937.81 899.69L2042.50 899.69 M2311.56 1450L2084.38 1450L2084.38 900L2304.38 900L2304.38 1006.25L2196.25 1006.25L2196.25 1113.44L2300 1113.44L2300 1216.88L2196.25 1216.88L2196.25 1342.81L2311.56 1342.81 M2505.31 1450L2357.81 1450L2357.81 900L2509.06 900Q2568.44 900 2598.44 932.97Q2628.44 965.94 2628.44 1029.38L2628.44 1286.88Q2628.44 1365 2601.09 1407.50Q2573.75 1450 2505.31 1450M2468.44 996.25L2468.44 1352.81L2487.50 1352.81Q2517.81 1352.81 2517.81 1323.44L2517.81 1039.69Q2517.81 1012.19 2510.47 1004.22Q2503.13 996.25 2480.63 996.25" fill="#ffffff"/>
  <path d="M847.34 2150L737.34 2150L737.34 1705.63L672.03 1705.63L672.03 1600L912.66 1600L912.66 1705.63L847.34 1705.63 M1062.66 2150L953.28 2150L953.28 1600L1062.66 1600L1062.66 1796.56L1114.53 1796.56L1114.53 1600L1223.91 1600L1223.91 2150L1114.53 2150L1114.53 1900.63L1062.66 1900.63 M1509.84 2150L1282.66 2150L1282.66 1600L1502.66 1600L1502.66 1706.25L1394.53 1706.25L1394.53 1813.44L1498.28 1813.44L1498.28 1916.88L1394.53 1916.88L1394.53 2042.81L1509.84 2042.81" fill="#ffffff"/>
  <path d="M1857.03 2155Q1799.84 2155 1767.50 2135.47Q1735.16 2115.94 1721.88 2076.56Q1708.59 2037.19 1708.59 1978.44L1708.59 1829.69Q1708.59 1772.50 1713.44 1728.75Q1718.28 1685 1733.59 1655.31Q1748.91 1625.63 1779.22 1610.31Q1809.53 1595 1860.16 1595Q1894.84 1595 1924.84 1607.03Q1954.84 1619.06 1973.28 1642.97Q1991.72 1666.88 1991.72 1702.81L1991.72 1762.19L1885.78 1762.19L1885.78 1750.94Q1885.78 1737.19 1884.38 1723.44Q1882.97 1709.69 1877.34 1700.63Q1871.72 1691.56 1858.28 1691.56Q1839.84 1691.56 1832.66 1701.72Q1825.47 1711.88 1825.47 1730.94L1825.47 1841.25Q1833.28 1826.56 1848.91 1817.66Q1864.53 1808.75 1887.03 1808.75Q1932.66 1808.75 1957.19 1827.03Q1981.72 1845.31 1991.09 1881.56Q2000.47 1917.81 2000.47 1972.19Q2000.47 2027.19 1987.03 2068.28Q1973.59 2109.38 1942.19 2132.19Q1910.78 2155 1857.03 2155M1852.97 2053.75Q1872.34 2053.75 1876.09 2037.34Q1879.84 2020.94 1879.84 1995.31L1879.84 1950.94Q1879.84 1905.94 1854.53 1905.94Q1825.47 1905.94 1825.47 1945L1825.47 2013.13Q1825.47 2053.75 1852.97 2053.75 M2175.16 2155Q2140.47 2155 2110.47 2142.97Q2080.47 2130.94 2062.03 2106.88Q2043.59 2082.81 2043.59 2047.19L2043.59 1987.81L2149.53 1987.81L2149.53 1999.06Q2149.53 2012.81 2150.94 2026.56Q2152.34 2040.31 2158.13 2049.38Q2163.91 2058.44 2177.03 2058.44Q2195.47 2058.44 2202.66 2048.28Q2209.84 2038.13 2209.84 2019.06L2209.84 1908.75Q2202.03 1923.13 2186.41 1932.19Q2170.78 1941.25 2148.28 1941.25Q2102.97 1941.25 2078.28 1922.97Q2053.59 1904.69 2044.22 1868.44Q2034.84 1832.19 2034.84 1777.81Q2034.84 1722.81 2048.28 1681.72Q2061.72 1640.63 2093.13 1617.81Q2124.53 1595 2178.28 1595Q2235.78 1595 2267.97 1614.53Q2300.16 1634.06 2313.44 1673.28Q2326.72 1712.50 2326.72 1771.56L2326.72 1920.31Q2326.72 1977.50 2321.88 2021.25Q2317.03 2065 2301.72 2094.69Q2286.41 2124.38 2256.09 2139.69Q2225.78 2155 2175.16 2155M2180.78 1844.06Q2209.84 1844.06 2209.84 1805L2209.84 1736.88Q2209.84 1696.25 2182.34 1696.25Q2162.97 1696.25 2159.22 1712.66Q2155.47 1729.06 2155.47 1754.69L2155.47 1799.06Q2155.47 1844.06 2180.78 1844.06" fill="#ffd60a"/>
  <path d="M627.47 2820L552.94 2820L552.94 2545L627.47 2545Q657.47 2545 671.14 2559.61Q684.81 2574.22 684.81 2607.81L684.81 2619.84Q684.81 2639.22 677.86 2651.25Q670.91 2663.28 656.69 2667.03Q675.28 2671.72 681.61 2688.98Q687.94 2706.25 687.94 2731.09Q687.94 2757.81 682.94 2777.81Q677.94 2797.81 664.81 2808.91Q651.69 2820 627.47 2820M606.69 2587.50L606.69 2648.59L617.94 2648.59Q625.59 2648.59 627.78 2642.66Q629.97 2636.72 629.97 2628.44L629.97 2600.78Q629.97 2587.50 618.25 2587.50L606.69 2587.50M612.16 2771.56Q633.56 2771.56 633.56 2751.25L633.56 2716.88Q633.56 2705.16 630.05 2698.36Q626.53 2691.56 616.84 2691.56L606.69 2691.56L606.69 2771.25Q610.13 2771.56 612.16 2771.56 M767.69 2820L712.06 2820L712.06 2545L796.44 2545Q817.53 2545 828.31 2554.61Q839.09 2564.22 842.77 2581.48Q846.44 2598.75 846.44 2622.03Q846.44 2644.53 840.73 2657.97Q835.03 2671.41 819.25 2676.56Q832.22 2679.22 837.45 2689.45Q842.69 2699.69 842.69 2715.94L842.69 2820L788.47 2820L788.47 2712.34Q788.47 2700.31 783.55 2697.42Q778.63 2694.53 767.69 2694.53L767.69 2820M768 2595.94L768 2646.88L781.28 2646.88Q792.69 2646.88 792.69 2622.03Q792.69 2605.94 790.19 2600.94Q787.69 2595.94 780.81 2595.94 M916.50 2820L863.06 2820L889.63 2545L982.91 2545L1009 2820L956.97 2820L953.06 2775.63L919.94 2775.63L916.50 2820M934.31 2591.88L923.84 2731.72L948.84 2731.72L936.81 2591.88 M1120.47 2820L1053.44 2820L1023.91 2545L1077.66 2545L1092.81 2718.59L1108.28 2545L1159.53 2545L1174.22 2718.59L1188.91 2545L1243.28 2545L1213.28 2820L1147.34 2820L1133.59 2687.66 M1319.44 2820L1265.69 2820L1265.69 2545L1322.25 2545L1347.56 2676.72L1347.56 2545L1400.69 2545L1400.69 2820L1346.94 2820L1319.44 2682.50 M1504.81 2820L1431.06 2820L1431.06 2545L1506.69 2545Q1536.38 2545 1551.38 2561.48Q1566.38 2577.97 1566.38 2609.69L1566.38 2738.44Q1566.38 2777.50 1552.70 2798.75Q1539.03 2820 1504.81 2820M1486.38 2593.13L1486.38 2771.41L1495.91 2771.41Q1511.06 2771.41 1511.06 2756.72L1511.06 2614.84Q1511.06 2601.09 1507.39 2597.11Q1503.72 2593.13 1492.47 2593.13 M1660.50 2822.50Q1627.53 2822.50 1610.11 2802.58Q1592.69 2782.66 1592.69 2745L1592.69 2614.38Q1592.69 2579.06 1609.95 2560.78Q1627.22 2542.50 1660.50 2542.50Q1693.78 2542.50 1711.05 2560.78Q1728.31 2579.06 1728.31 2614.38L1728.31 2745Q1728.31 2782.66 1710.89 2802.58Q1693.47 2822.50 1660.50 2822.50M1660.97 2771.88Q1673.47 2771.88 1673.47 2747.66L1673.47 2613.44Q1673.47 2593.13 1661.28 2593.13Q1647.53 2593.13 1647.53 2613.91L1647.53 2747.97Q1647.53 2760.78 1650.66 2766.33Q1653.78 2771.88 1660.97 2771.88  M1926.09 2820L1859.06 2820L1829.53 2545L1883.28 2545L1898.44 2718.59L1913.91 2545L1965.16 2545L1979.84 2718.59L1994.53 2545L2048.91 2545L2018.91 2820L1952.97 2820L1939.22 2687.66 M2136.94 2822.50Q2103.97 2822.50 2086.55 2802.58Q2069.13 2782.66 2069.13 2745L2069.13 2614.38Q2069.13 2579.06 2086.39 2560.78Q2103.66 2542.50 2136.94 2542.50Q2170.22 2542.50 2187.48 2560.78Q2204.75 2579.06 2204.75 2614.38L2204.75 2745Q2204.75 2782.66 2187.33 2802.58Q2169.91 2822.50 2136.94 2822.50M2137.41 2771.88Q2149.91 2771.88 2149.91 2747.66L2149.91 2613.44Q2149.91 2593.13 2137.72 2593.13Q2123.97 2593.13 2123.97 2613.91L2123.97 2747.97Q2123.97 2760.78 2127.09 2766.33Q2130.22 2771.88 2137.41 2771.88 M2286.69 2820L2232.94 2820L2232.94 2545L2289.50 2545L2314.81 2676.72L2314.81 2545L2367.94 2545L2367.94 2820L2314.19 2820L2286.69 2682.50 M2450.66 2819.84L2394.72 2819.84L2394.72 2773.28L2450.66 2773.28" fill="#ff2e63"/>
</svg>
