<svg xmlns="http://www.w3.org/2000/svg" viewBox="0 0 3000 4000">
  <rect x="0" y="0" width="3000" height="4000" fill="#07070b"/>
  <rect x="0" y="0" width="3000" height="40" fill="#ffd60a"/>
  <rect x="0" y="3960" width="3000" height="40" fill="#ff2e63"/>
  <path d="M522.96 560L507.12 560L507.12 491.12L484.80 491.12L484.80 476L545.28 476L545.28 491.12L522.96 491.12 M610.92 560L595.08 560L595.08 476L610.92 476L610.92 510.32L638.04 510.32L638.04 476L653.88 476L653.88 560L638.04 560L638.04 525.44L610.92 525.44 M761.52 560L707.04 560L707.04 476L760.08 476L760.08 491.12L722.88 491.12L722.88 510.32L758.64 510.32L758.64 525.44L722.88 525.44L722.88 544.88L761.52 544.88  M980.88 560L924.72 560L924.72 544.88L944.88 544.88L944.88 491.12L924.72 491.12L924.72 476L980.88 476L980.88 491.12L960.72 491.12L960.72 544.88L980.88 544.88 M1061.52 560L1031.04 560L1031.04 544.76L1038.96 544.76L1038.96 491.12L1031.04 491.12L1031.04 476L1061.52 476Q1077 476 1084.62 483.32Q1092.24 490.64 1092.24 505.76L1092.24 530.24Q1092.24 545.36 1084.62 552.68Q1077 560 1061.52 560M1054.80 491.12L1054.80 544.88L1061.52 544.88Q1069.80 544.88 1073.10 540.98Q1076.40 537.08 1076.40 528.80L1076.40 505.76Q1076.40 498.56 1073.10 494.84Q1069.80 491.12 1061.52 491.12 M1199.76 560L1143.60 560L1143.60 544.88L1163.76 544.88L1163.76 491.12L1143.60 491.12L1143.60 476L1199.76 476L1199.76 491.12L1179.60 491.12L1179.60 544.88L1199.76 544.88 M1281.12 561.68Q1266.72 561.68 1258.44 552.86Q1250.16 544.04 1250.16 527.36L1250.16 508.64Q1250.16 492.44 1258.44 483.38Q1266.72 474.32 1281.12 474.32Q1295.52 474.32 1303.80 483.38Q1312.08 492.44 1312.08 508.64L1312.08 527.36Q1312.08 544.04 1303.80 552.86Q1295.52 561.68 1281.12 561.68M1281.12 547.28Q1289.76 547.28 1293 542Q1296.24 536.72 1296.24 528.32L1296.24 507.68Q1296.24 502.40 1294.68 498.08Q1293.12 493.76 1289.82 491.24Q1286.52 488.72 1281.12 488.72Q1275.72 488.72 1272.36 491.24Q1269 493.76 1267.50 498.08Q1266 502.40 1266 507.68L1266 528.32Q1266 536.72 1269.24 542Q1272.48 547.28 1281.12 547.28 M1390.80 561.68Q1376.40 561.68 NaN 552.86Q1359.60 544.04 1359.60 527.36L1359.60 508.64Q1359.60 492.44 NaN 483.38Q1376.40 474.32 1390.80 474.32Q1405.80 474.32 1413.66 482.72Q1421.52 491.12 1421.52 505.52L1421.52 507.68L1405.68 507.68L1405.68 505.52Q1405.68 501.56 1404.36 497.66Q1403.04 493.76 1399.80 491.24Q1396.56 488.72 1390.80 488.72Q1385.52 488.72 1382.10 491.30Q1378.68 493.88 1377.06 498.14Q1375.44 502.40 1375.44 507.44L1375.44 528.56Q1375.44 536.72 1378.92 542Q1382.40 547.28 1390.80 547.28Q1396.92 547.28 1400.16 544.88Q1403.40 542.48 1404.54 538.64Q1405.68 534.80 1405.68 530.48L1405.68 528.32L1421.52 528.32L1421.52 530.48Q1421.52 545.36 1413.66 553.52Q1405.80 561.68 1390.80 561.68 M1487.88 560L1472.04 560L1472.04 476L1504.20 476Q1512.84 476 1518.72 479.12Q1524.60 482.24 1527.60 487.46Q1530.60 492.68 1530.60 499.16L1530.60 502.04Q1530.60 507.20 1527.78 511.70Q1524.96 516.20 1519.32 518.60L1519.32 520.76Q1523.52 521.24 1525.98 524Q1528.44 526.76 1528.44 530.96L1528.44 560L1512.60 560L1512.60 534.80Q1512.60 531.92 1511.10 530.12Q1509.60 528.32 1506.12 528.32L1487.88 528.32L1487.88 560M1487.88 491.12L1487.88 513.20LNaN 513.20Q1508.76 513.20 1511.76 510.44Q1514.76 507.68 1514.76 502.88L1514.76 501.44Q1514.76 497.24 1511.76 494.18Q1508.76 491.12 NaN 491.12 M1591.08 560L1574.52 560L1594.56 476L1624.32 476L1644.36 560L1627.80 560L1623.72 542L1595.16 542L1591.08 560M1608.36 483.92L1598.52 526.88L1620.24 526.88L1610.52 483.92 M1719.12 561.68Q1704.72 561.68 1696.32 552.86Q1687.92 544.04 1687.92 527.36L1687.92 508.64Q1687.92 492.44 1696.32 483.38Q1704.72 474.32 1719.12 474.32Q1734.12 474.32 1741.98 482.72Q1749.84 491.12 1749.84 505.52L1749.84 507.68LNaN 507.68LNaN 505.52QNaN 501.56 1732.68 497.66Q1731.36 493.76 1728.12 491.24Q1724.88 488.72 1719.12 488.72Q1713.84 488.72 1710.42 491.30QNaN 493.88 1705.38 498.14Q1703.76 502.40 1703.76 507.44L1703.76 528.56Q1703.76 536.72 1707.24 542Q1710.72 547.28 1719.12 547.28Q1725.24 547.28 1728.48 544.88Q1731.72 542.48 1732.86 538.64QNaN 534.80 NaN 530.48LNaN 528.32L1749.84 528.32L1749.84 530.48Q1749.84 545.36 1741.98 553.52Q1734.12 561.68 1719.12 561.68 M1836.24 560L1820.40 560L1820.40 530.48L1816.80 530.48L1792.68 476L1809.96 476L1827.24 516.08L1829.40 516.08L1846.68 476L1863.96 476L1839.84 530.48L1836.24 530.48  M2075.28 560L2019.12 560L2019.12 544.88L2039.28 544.88L2039.28 491.12L2019.12 491.12L2019.12 476L2075.28 476L2075.28 491.12L2055.12 491.12L2055.12 544.88L2075.28 544.88 M2143.08 560L2127.24 560L2127.24 476L2158.20 476L2168.04 552.08L2170.20 552.08L2170.20 476L2186.04 476L2186.04 560L2155.08 560L2145.24 483.92L2143.08 483.92 M2265.36 560L2234.88 560L2234.88 544.76L2242.80 544.76L2242.80 491.12L2234.88 491.12L2234.88 476L2265.36 476Q2280.84 476 2288.46 483.32Q2296.08 490.64 2296.08 505.76L2296.08 530.24Q2296.08 545.36 2288.46 552.68Q2280.84 560 2265.36 560M2258.64 491.12L2258.64 544.88L2265.36 544.88Q2273.64 544.88 2276.94 540.98Q2280.24 537.08 2280.24 528.80L2280.24 505.76Q2280.24 498.56 2276.94 494.84Q2273.64 491.12 2265.36 491.12 M2403.12 560L2348.64 560L2348.64 476L2401.68 476L2401.68 491.12L2364.48 491.12L2364.48 510.32L2400.24 510.32L2400.24 525.44L2364.48 525.44L2364.48 544.88L2403.12 544.88 M2469.36 560L2452.20 560L2469.48 518.96L2469.48 516.80L2452.20 476L2469.36 476L2483.52 510.32L2486.40 510.32L2500.56 476L2517.72 476L2500.44 516.80L2500.44 518.96L2517.72 560L2500.56 560L2486.40 525.44L2483.52 525.44" fill="#a6a6c2"/>
  <path d="M649.84 1180L599.74 1180L624.64 922.19L712.10 922.19L736.56 1180L687.78 1180L684.12 1138.40L653.06 1138.40L649.84 1180M666.54 966.13L656.72 1097.24L680.16 1097.24L668.88 966.13 M808.77 1180L758.38 1180L758.38 922.19L811.41 922.19L835.14 1045.67L835.14 922.19L884.94 922.19L884.94 1180L834.55 1180L808.77 1051.09 M964.18 1180L913.79 1180L913.79 922.19L966.82 922.19L990.55 1045.67L990.55 922.19L1040.36 922.19L1040.36 1180L989.96 1180L964.18 1051.09 M1128.83 1182.34Q1096.60 1182.34 1081.37 1164.25Q1066.13 1146.16 1066.13 1111.01L1066.13 922.19L1116.23 922.19L1116.23 1108.96Q1116.23 1115.40 1116.96 1121.33Q1117.69 1127.27 1120.33 1131.07Q1122.97 1134.88 1128.83 1134.88Q1134.83 1134.88 1137.47 1131.15Q1140.11 1127.41 1140.76 1121.41Q1141.42 1115.40 1141.42 1108.96L1141.42 922.19L1191.52 922.19L1191.52 1111.01Q1191.52 1146.16 1176.29 1164.25Q1161.05 1182.34 1128.83 1182.34 M1260.36 1180L1210.27 1180L1235.17 922.19L1322.62 922.19L1347.08 1180L1298.30 1180L1294.64 1138.40L1263.59 1138.40L1260.36 1180M1277.06 966.13L1267.25 1097.24L1290.69 1097.24L1279.41 966.13 M1473.49 1180L1368.90 1180L1368.90 922.19L1420.46 922.19L1420.46 1136.05L1473.49 1136.05  M1622.60 1180L1570.45 1180L1570.45 922.19L1649.55 922.19Q1669.33 922.19 1679.44 931.20Q1689.54 940.21 1692.99 956.39Q1696.43 972.58 1696.43 994.40Q1696.43 1015.50 1691.08 1028.10Q1685.74 1040.69 1670.94 1045.53Q1683.10 1048.02 1688.01 1057.61Q1692.91 1067.21 1692.91 1082.44L1692.91 1180L1642.08 1180L1642.08 1079.07Q1642.08 1067.79 1637.47 1065.08Q1632.86 1062.37 1622.60 1062.37L1622.60 1180M1622.89 969.94L1622.89 1017.70L1635.35 1017.70Q1646.04 1017.70 1646.04 994.40Q1646.04 979.32 1643.70 974.63Q1641.35 969.94 1634.91 969.94 M1825.92 1180L1719.42 1180L1719.42 922.19L1822.55 922.19L1822.55 971.99L1771.86 971.99L1771.86 1022.24L1820.50 1022.24L1820.50 1070.72L1771.86 1070.72L1771.86 1129.76L1825.92 1129.76 M1899.59 1180L1848.91 1180L1848.91 922.19L1917.02 922.19Q1938.41 922.19 1950.93 931.71Q1963.46 941.23 1968.88 958.81Q1974.30 976.39 1974.30 1000.70Q1974.30 1024.14 1969.76 1041.50Q1965.22 1058.86 1953.57 1068.38Q1941.93 1077.90 1920.54 1077.90L1899.59 1077.90L1899.59 1180M1899.59 969.21L1899.59 1031.61L1902.52 1031.61Q1916.88 1031.61 1920.10 1023.55Q1923.32 1015.50 1923.32 999.82Q1923.32 985.18 1920.17 977.19Q1917.02 969.21 1905.30 969.21 M2058.08 1182.34Q2027.17 1182.34 2010.84 1163.67Q1994.51 1144.99 1994.51 1109.69L1994.51 987.23Q1994.51 954.12 2010.69 936.98Q2026.88 919.84 2058.08 919.84Q2089.28 919.84 2105.47 936.98Q2121.66 954.12 2121.66 987.23L2121.66 1109.69Q2121.66 1144.99 2105.32 1163.67Q2088.99 1182.34 2058.08 1182.34M2058.52 1134.88Q2070.24 1134.88 2070.24 1112.18L2070.24 986.35Q2070.24 967.30 2058.81 967.30Q2045.92 967.30 2045.92 986.79L2045.92 1112.47Q2045.92 1124.48 2048.85 1129.68Q2051.78 1134.88 2058.52 1134.88 M2200.61 1180L2148.46 1180L2148.46 922.19L2227.56 922.19Q2247.33 922.19 2257.44 931.20Q2267.55 940.21 2270.99 956.39Q2274.43 972.58 2274.43 994.40Q2274.43 1015.50 2269.09 1028.10Q2263.74 1040.69 2248.95 1045.53Q2261.10 1048.02 2266.01 1057.61Q2270.92 1067.21 2270.92 1082.44L2270.92 1180L2220.09 1180L2220.09 1079.07Q2220.09 1067.79 2215.47 1065.08Q2210.86 1062.37 2200.61 1062.37L2200.61 1180M2200.90 969.94L2200.90 1017.70L2213.35 1017.70Q2224.04 1017.70 2224.04 994.40Q2224.04 979.32 2221.70 974.63Q2219.36 969.94 2212.91 969.94 M2371.11 1180L2319.54 1180L2319.54 971.70L2288.93 971.70L2288.93 922.19L2401.72 922.19L2401.72 971.70L2371.11 971.70" fill="#ffffff"/>
  <path d="M652.25 2005.63Q519.71 2005.63 519.71 1815.78L519.71 1548.95Q519.71 1375.63 671.58 1375.63Q734.16 1375.63 767.56 1400.76Q800.96 1425.90 813.61 1474.06Q826.27 1522.23 826.27 1591.48L705.33 1591.48L705.33 1536.64Q705.33 1516.60 699.88 1503.07Q694.43 1489.53 677.21 1489.53Q655.76 1489.53 648.91 1503.95Q642.05 1518.36 642.05 1535.59L642.05 1835.47Q642.05 1860.43 648.55 1876.07Q655.06 1891.72 674.04 1891.72Q693.73 1891.72 700.23 1876.07Q706.74 1860.43 706.74 1834.77L706.74 1746.52L673.69 1746.52L673.69 1639.65L824.86 1639.65L824.86 2000L775.29 2000L754.20 1947.97Q721.86 2005.63 652.25 2005.63 M1132.75 2000L881.73 2000L881.73 1381.25L1005.48 1381.25L1005.48 1894.53L1132.75 1894.53 M1323.56 2005.63Q1249.38 2005.63 1210.18 1960.80Q1170.98 1915.98 1170.98 1831.25L1170.98 1537.34Q1170.98 1457.89 1209.83 1416.76Q1248.68 1375.63 1323.56 1375.63Q1398.44 1375.63 1437.29 1416.76Q1476.14 1457.89 1476.14 1537.34L1476.14 1831.25Q1476.14 1915.98 1436.94 1960.80Q1397.74 2005.63 1323.56 2005.63M1324.61 1891.72Q1352.74 1891.72 1352.74 1837.23L1352.74 1535.23Q1352.74 1489.53 1325.32 1489.53Q1294.38 1489.53 1294.38 1536.29L1294.38 1837.93Q1294.38 1866.76 1301.41 1879.24Q1308.44 1891.72 1324.61 1891.72 M1701.75 2000L1534.06 2000L1534.06 1381.25L1701.75 1381.25Q1769.25 1381.25 1800.02 1414.12Q1830.78 1446.99 1830.78 1522.58L1830.78 1549.65Q1830.78 1593.24 1815.13 1620.31Q1799.49 1647.38 1767.50 1655.82Q1809.33 1666.37 1823.57 1705.21Q1837.81 1744.06 1837.81 1799.96Q1837.81 1860.08 1826.56 1905.08Q1815.31 1950.08 1785.78 1975.04Q1756.25 2000 1701.75 2000M1655 1476.88L1655 1614.34L1680.31 1614.34Q1697.54 1614.34 1702.46 1600.98Q1707.38 1587.62 1707.38 1568.98L1707.38 1506.76Q1707.38 1476.88 1681.01 1476.88L1655 1476.88M1667.30 1891.02Q1715.46 1891.02 1715.46 1845.31L1715.46 1767.97Q1715.46 1741.60 1707.55 1726.31Q1699.64 1711.02 1677.85 1711.02L1655 1711.02L1655 1890.31Q1662.73 1891.02 1667.30 1891.02 M1989.95 2000L1869.71 2000L1929.48 1381.25L2139.36 1381.25L2198.07 2000L2081 2000L2072.21 1900.16L1997.68 1900.16L1989.95 2000M2030.03 1486.72L2006.47 1801.37L2062.72 1801.37L2035.65 1486.72 M2495.06 2000L2244.04 2000L2244.04 1381.25L2367.79 1381.25L2367.79 1894.53L2495.06 1894.53" fill="#ffd60a"/>
  <path d="M349.68 2765.63Q264.95 2765.63 227.51 2723.44Q190.07 2681.25 190.07 2589.14L190.07 2528.67L312.41 2528.67L312.41 2606.02Q312.41 2627.46 318.92 2639.59Q325.42 2651.72 341.59 2651.72Q358.47 2651.72 364.97 2641.88Q371.48 2632.03 371.48 2609.53Q371.48 2581.05 365.85 2561.89Q360.23 2542.73 346.34 2525.33Q332.45 2507.93 307.84 2484.73L252.30 2431.99Q190.07 2373.28 190.07 2297.70Q190.07 2218.59 226.81 2177.11Q263.55 2135.63 333.16 2135.63Q418.23 2135.63 453.92 2180.98Q489.60 2226.33 489.60 2318.79L363.74 2318.79L363.74 2276.25Q363.74 2263.59 356.54 2256.56Q349.33 2249.53 337.02 2249.53Q322.26 2249.53 315.40 2257.79Q308.55 2266.05 308.55 2279.06Q308.55 2292.07 315.58 2307.19Q322.61 2322.30 343.35 2341.99L414.72 2410.55Q436.16 2430.94 454.09 2453.61Q472.02 2476.29 482.92 2506.35Q493.82 2536.41 493.82 2579.65Q493.82 2666.84 461.65 2716.23Q429.48 2765.63 349.68 2765.63 M719.79 2760L596.04 2760L596.04 2260.08L522.56 2260.08L522.56 2141.25L793.27 2141.25L793.27 2260.08L719.79 2260.08 M978.80 2765.63Q901.46 2765.63 864.90 2722.21Q828.34 2678.79 828.34 2594.41L828.34 2141.25L948.57 2141.25L948.57 2589.49Q948.57 2604.96 950.33 2619.20Q952.09 2633.44 958.41 2642.58Q964.74 2651.72 978.80 2651.72Q993.22 2651.72 999.55 2642.75Q1005.88 2633.79 1007.46 2619.38Q1009.04 2604.96 1009.04 2589.49L1009.04 2141.25L1129.27 2141.25L1129.27 2594.41Q1129.27 2678.79 1092.71 2722.21Q1056.15 2765.63 978.80 2765.63 M1306.38 2760L1184.73 2760L1184.73 2141.25L1348.21 2141.25Q1399.54 2141.25 1429.60 2164.10Q1459.66 2186.95 1472.66 2229.14Q1485.67 2271.33 1485.67 2329.69Q1485.67 2385.94 1474.77 2427.60Q1463.88 2469.26 1435.93 2492.11Q1407.98 2514.96 1356.65 2514.96L1306.38 2514.96L1306.38 2760M1306.38 2254.10L1306.38 2403.87L1313.41 2403.87Q1347.86 2403.87 1355.59 2384.53Q1363.33 2365.20 1363.33 2327.58Q1363.33 2292.42 1355.77 2273.26Q1348.21 2254.10 1320.09 2254.10 M1646.60 2760L1527.07 2760L1527.07 2141.25L1646.60 2141.25 M1869.76 2760L1703.82 2760L1703.82 2141.25L1873.98 2141.25Q1940.77 2141.25 1974.52 2178.34Q2008.27 2215.43 2008.27 2286.80L2008.27 2576.48Q2008.27 2664.38 1977.51 2712.19Q1946.75 2760 1869.76 2760M1828.27 2249.53L1828.27 2650.66L1849.72 2650.66Q1883.82 2650.66 1883.82 2617.62L1883.82 2298.40Q1883.82 2267.46 1875.56 2258.50Q1867.30 2249.53 1841.98 2249.53 M2180.80 2760L2061.27 2760L2061.27 2141.25L2180.80 2141.25 M2414.86 2760L2291.11 2760L2291.11 2260.08L2217.63 2260.08L2217.63 2141.25L2488.34 2141.25L2488.34 2260.08L2414.86 2260.08 M2722.39 2760L2605.67 2760L2605.67 2556.45L2506.88 2141.25L2629.58 2141.25L2664.03 2350.78L2698.48 2141.25L2820.83 2141.25L2722.39 2556.45" fill="#ff2e63"/>
  <path d="M1183.16 3360L933.52 3360L933.52 3337.03Q933.52 3301.21 944.59 3272.64Q955.66 3244.06 973.16 3219.59Q990.66 3195.12 1010.08 3171.60Q1028.95 3148.63 1046.04 3124.43Q1063.13 3100.23 1073.93 3071.93Q1084.73 3043.63 1084.73 3008.36Q1084.73 2991.41 1079.67 2979.24Q1074.61 2967.07 1058.75 2967.07Q1034.69 2967.07 1034.69 3010L1034.69 3068.79L933.52 3068.79Q933.24 3062.50 932.83 3054.57Q932.42 3046.64 932.42 3039.26Q932.42 2987.30 943.36 2951.07Q954.30 2914.84 982.05 2895.84Q1009.80 2876.84 1060.12 2876.84Q1120 2876.84 1153.22 2910.47Q1186.45 2944.10 1186.45 3006.45Q1186.45 3048.83 1175.51 3080.68Q1164.57 3112.54 1146.52 3138.65Q1128.48 3164.77 1106.88 3190.74Q1091.56 3209.06 1077.21 3228.20Q1062.85 3247.34 1051.91 3269.22L1183.16 3269.22 M1351.64 3364.38Q1290.66 3364.38 1257.44 3330.20Q1224.22 3296.02 1224.22 3231.76L1224.22 3014.65Q1224.22 2946.84 1255.80 2910.61Q1287.38 2874.38 1351.64 2874.38Q1416.17 2874.38 1447.62 2910.61Q1479.06 2946.84 1479.06 3014.65L1479.06 3231.76Q1479.06 3296.02 1445.98 3330.20Q1412.89 3364.38 1351.64 3364.38M1351.64 3275.78Q1362.85 3275.78 1369.14 3265.66Q1375.43 3255.55 1375.43 3242.97L1375.43 3005.35Q1375.43 2988.40 1371.74 2975.68Q1368.05 2962.97 1351.64 2962.97Q1335.23 2962.97 1331.54 2975.68Q1327.85 2988.40 1327.85 3005.35L1327.85 3242.97Q1327.85 3255.55 1334.28 3265.66Q1340.70 3275.78 1351.64 3275.78 M1776.60 3360L1526.95 3360L1526.95 3337.03Q1526.95 3301.21 1538.03 3272.64Q1549.10 3244.06 1566.60 3219.59Q1584.10 3195.12 1603.52 3171.60Q1622.38 3148.63 1639.47 3124.43Q1656.56 3100.23 1667.36 3071.93Q1678.16 3043.63 1678.16 3008.36Q1678.16 2991.41 1673.11 2979.24Q1668.05 2967.07 1652.19 2967.07Q1628.13 2967.07 1628.13 3010L1628.13 3068.79L1526.95 3068.79Q1526.68 3062.50 1526.27 3054.57Q1525.86 3046.64 1525.86 3039.26Q1525.86 2987.30 1536.80 2951.07Q1547.73 2914.84 1575.49 2895.84Q1603.24 2876.84 1653.55 2876.84Q1713.44 2876.84 1746.66 2910.47Q1779.88 2944.10 1779.88 3006.45Q1779.88 3048.83 1768.95 3080.68Q1758.01 3112.54 1739.96 3138.65Q1721.91 3164.77 1700.31 3190.74Q1685 3209.06 1670.64 3228.20Q1656.29 3247.34 1645.35 3269.22L1776.60 3269.22 M1951.37 3364.38Q1901.33 3364.38 1873.03 3347.29Q1844.73 3330.20 1833.11 3295.74Q1821.48 3261.29 1821.48 3209.88L1821.48 3079.73Q1821.48 3029.69 1825.72 2991.41Q1829.96 2953.13 1843.36 2927.15Q1856.76 2901.17 1883.28 2887.77Q1909.80 2874.38 1954.10 2874.38Q1984.45 2874.38 2010.70 2884.90Q2036.95 2895.43 2053.09 2916.35Q2069.22 2937.27 2069.22 2968.71L2069.22 3020.66L1976.52 3020.66L1976.52 3010.82Q1976.52 2998.79 1975.29 2986.76Q1974.06 2974.73 1969.14 2966.80Q1964.22 2958.87 1952.46 2958.87Q1936.33 2958.87 1930.04 2967.75Q1923.75 2976.64 1923.75 2993.32L1923.75 3089.84Q1930.59 3076.99 1944.26 3069.20Q1957.93 3061.41 1977.62 3061.41Q2017.54 3061.41 2039 3077.40Q2060.47 3093.40 2068.67 3125.12Q2076.88 3156.84 2076.88 3204.41Q2076.88 3252.54 2065.12 3288.50Q2053.36 3324.45 2025.88 3344.41Q1998.40 3364.38 1951.37 3364.38M1947.81 3275.78Q1964.77 3275.78 1968.05 3261.43Q1971.33 3247.07 1971.33 3224.65L1971.33 3185.82Q1971.33 3146.45 1949.18 3146.45Q1923.75 3146.45 1923.75 3180.63L1923.75 3240.23Q1923.75 3275.78 1947.81 3275.78" fill="#ffffff"/>
</svg>
