<svg xmlns="http://www.w3.org/2000/svg" viewBox="0 0 3000 4000">
  <rect x="0" y="0" width="3000" height="4000" fill="#07070b"/>
  <rect x="0" y="0" width="3000" height="40" fill="#ffd60a"/>
  <rect x="0" y="3960" width="3000" height="40" fill="#ff2e63"/>
  <g transform="translate(667.68, 620)">
    <path d="M48.23 0L19.01 0L19.01-118.04L1.66-118.04L1.66-146.09L65.58-146.09L65.58-118.04L48.23-118.04L48.23 0M122.76 0L93.71 0L93.71-146.09L122.76-146.09L122.76-93.88L136.54-93.88L136.54-146.09L165.60-146.09L165.60 0L136.54 0L136.54-66.24L122.76-66.24L122.76 0M258.89 0L198.54 0L198.54-146.09L256.98-146.09L256.98-117.87L228.26-117.87L228.26-89.40L255.82-89.40L255.82-61.92L228.26-61.92L228.26-28.47L258.89-28.47L258.89 0M375.26 0L347.04 0L347.04-146.09L375.26-146.09L375.26 0M446.06 0L406.88 0L406.88-146.09L447.06-146.09Q462.83-146.09 470.80-137.34Q478.76-128.58 478.76-111.73L478.76-43.33Q478.76-22.58 471.50-11.29Q464.24 0 446.06 0M436.26-120.53L436.26-25.82L441.33-25.82Q449.38-25.82 449.38-33.62L449.38-108.99Q449.38-116.29 447.43-118.41Q445.48-120.53 439.50-120.53L436.26-120.53M537.61 0L509.39 0L509.39-146.09L537.61-146.09L537.61 0M604.10 1.33Q586.58 1.33 577.33-9.26Q568.07-19.84 568.07-39.84L568.07-109.24Q568.07-128 577.24-137.71Q586.42-147.42 604.10-147.42Q621.78-147.42 630.95-137.71Q640.12-128 640.12-109.24L640.12-39.84Q640.12-19.84 630.87-9.26Q621.61 1.33 604.10 1.33M604.35-25.57Q610.99-25.57 610.99-38.43L610.99-109.74Q610.99-120.53 604.51-120.53Q597.21-120.53 597.21-109.49L597.21-38.27Q597.21-31.46 598.87-28.51Q600.53-25.57 604.35-25.57M705.94 1.33Q690.09 1.33 680.42-8.55Q670.75-18.43 670.75-36.19L670.75-103.59Q670.75-124.84 679.17-136.13Q687.60-147.42 706.61-147.42Q716.98-147.42 725.08-143.60Q733.17-139.79 737.82-132.19Q742.47-124.59 742.47-113.06L742.47-87.82L713.41-87.82L713.41-109.40Q713.41-115.96 711.75-118.24Q710.09-120.53 706.61-120.53Q702.54-120.53 701.13-117.58Q699.72-114.63 699.72-109.74L699.72-36.61Q699.72-30.55 701.50-28.06Q703.29-25.57 706.61-25.57Q710.34-25.57 711.88-28.64Q713.41-31.71 713.41-36.61L713.41-62.92L742.80-62.92L742.80-35.28Q742.80-16.02 733.09-7.35Q723.37 1.33 705.94 1.33M802.06 0L772.51 0L772.51-146.09L817.33-146.09Q828.54-146.09 834.27-140.99Q840-135.88 841.95-126.71Q843.90-117.54 843.90-105.17Q843.90-93.22 840.87-86.08Q837.84-78.94 829.45-76.20Q836.34-74.79 839.12-69.35Q841.90-63.92 841.90-55.28L841.90 0L813.10 0L813.10-57.19Q813.10-63.58 810.49-65.12Q807.87-66.66 802.06-66.66L802.06 0M802.23-119.03L802.23-91.97L809.28-91.97Q815.34-91.97 815.34-105.17Q815.34-113.72 814.01-116.38Q812.69-119.03 809.03-119.03L802.23-119.03M897.93 0L869.54 0L883.65-146.09L933.21-146.09L947.07 0L919.43 0L917.35-23.57L899.76-23.57L897.93 0M907.39-121.19L901.83-46.90L915.11-46.90L908.72-121.19L907.39-121.19M1010.07 1.33Q994.21 1.33 984.54-8.55Q974.87-18.43 974.87-36.19L974.87-103.59Q974.87-124.84 983.30-136.13Q991.72-147.42 1010.73-147.42Q1021.11-147.42 1029.20-143.60Q1037.29-139.79 1041.94-132.19Q1046.59-124.59 1046.59-113.06L1046.59-87.82L1017.54-87.82L1017.54-109.40Q1017.54-115.96 1015.88-118.24Q1014.22-120.53 1010.73-120.53Q1006.67-120.53 1005.25-117.58Q1003.84-114.63 1003.84-109.74L1003.84-36.61Q1003.84-30.55 1005.63-28.06Q1007.41-25.57 1010.73-25.57Q1014.47-25.57 1016-28.64Q1017.54-31.71 1017.54-36.61L1017.54-62.92L1046.92-62.92L1046.92-35.28Q1046.92-16.02 1037.21-7.35Q1027.50 1.33 1010.07 1.33M1121.88 0L1094.32 0L1094.32-48.06L1070.99-146.09L1099.96-146.09L1108.10-96.62L1116.23-146.09L1145.12-146.09L1121.88-48.06L1121.88 0M1259.24 0L1231.02 0L1231.02-146.09L1259.24-146.09L1259.24 0M1319.42 0L1290.86 0L1290.86-146.09L1320.91-146.09L1334.36-76.12L1334.36-146.09L1362.58-146.09L1362.58 0L1334.03 0L1319.42-73.05L1319.42 0M1434.71 0L1395.53 0L1395.53-146.09L1435.71-146.09Q1451.48-146.09 1459.45-137.34Q1467.42-128.58 1467.42-111.73L1467.42-43.33Q1467.42-22.58 1460.15-11.29Q1452.89 0 1434.71 0M1424.92-120.53L1424.92-25.82L1429.98-25.82Q1438.03-25.82 1438.03-33.62L1438.03-108.99Q1438.03-116.29 1436.08-118.41Q1434.13-120.53 1428.15-120.53L1424.92-120.53M1559.72 0L1499.37 0L1499.37-146.09L1557.81-146.09L1557.81-117.87L1529.09-117.87L1529.09-89.40L1556.65-89.40L1556.65-61.92L1529.09-61.92L1529.09-28.47L1559.72-28.47L1559.72 0M1614.75 0L1585.11 0L1600.80-77.45L1588.35-146.18L1616.90-146.18L1624.46-95.96L1631.18-146.18L1659.82-146.18L1647.37-77.45L1662.97 0L1633.42 0L1624.21-57.11" fill="#a6a6c2"/>
  </g>
  <g transform="translate(594.62, 1180)">
    <path d="M54.49 0L4.39 0L29.30-257.81L116.75-257.81L141.21 0L92.43 0L88.77-41.60L57.71-41.60L54.49 0M71.19-213.87L61.38-82.76L84.81-82.76L73.54-213.87L71.19-213.87M213.42 0L163.03 0L163.03-257.81L216.06-257.81L239.79-134.33L239.79-257.81L289.59-257.81L289.59 0L239.20 0L213.42-128.91L213.42 0M368.84 0L318.45 0L318.45-257.81L371.47-257.81L395.20-134.33L395.20-257.81L445.01-257.81L445.01 0L394.62 0L368.84-128.91L368.84 0M533.48 2.34Q501.25 2.34 486.02-15.75Q470.78-33.84 470.78-68.99L470.78-257.81L520.88-257.81L520.88-71.04Q520.88-64.60 521.61-58.67Q522.35-52.73 524.98-48.93Q527.62-45.12 533.48-45.12Q539.48-45.12 542.12-48.85Q544.76-52.59 545.42-58.59Q546.08-64.60 546.08-71.04L546.08-257.81L596.17-257.81L596.17-68.99Q596.17-33.84 580.94-15.75Q565.71 2.34 533.48 2.34M665.02 0L614.92 0L639.82-257.81L727.27-257.81L751.73 0L702.96 0L699.29-41.60L668.24-41.60L665.02 0M681.71-213.87L671.90-82.76L695.34-82.76L684.06-213.87L681.71-213.87M878.14 0L773.55 0L773.55-257.81L825.12-257.81L825.12-43.95L878.14-43.95L878.14 0M1027.25 0L975.11 0L975.11-257.81L1054.21-257.81Q1073.98-257.81 1084.09-248.80Q1094.20-239.79 1097.64-223.61Q1101.08-207.42 1101.08-185.60Q1101.08-164.50 1095.74-151.90Q1090.39-139.31 1075.59-134.47Q1087.75-131.98 1092.66-122.39Q1097.57-112.79 1097.57-97.56L1097.57 0L1046.74 0L1046.74-100.93Q1046.74-112.21 1042.12-114.92Q1037.51-117.63 1027.25-117.63L1027.25 0M1027.55-210.06L1027.55-162.30L1040-162.30Q1050.69-162.30 1050.69-185.60Q1050.69-200.68 1048.35-205.37Q1046-210.06 1039.56-210.06L1027.55-210.06M1230.57 0L1124.07 0L1124.07-257.81L1227.20-257.81L1227.20-208.01L1176.52-208.01L1176.52-157.76L1225.15-157.76L1225.15-109.28L1176.52-109.28L1176.52-50.24L1230.57-50.24L1230.57 0M1304.24 0L1253.56 0L1253.56-257.81L1321.68-257.81Q1343.06-257.81 1355.59-248.29Q1368.11-238.77 1373.53-221.19Q1378.95-203.61 1378.95-179.30Q1378.95-155.86 1374.41-138.50Q1369.87-121.14 1358.22-111.62Q1346.58-102.10 1325.19-102.10L1304.24-102.10L1304.24 0M1304.24-210.79L1304.24-148.39L1307.17-148.39Q1321.53-148.39 1324.75-156.45Q1327.97-164.50 1327.97-180.18Q1327.97-194.82 1324.83-202.81Q1321.68-210.79 1309.96-210.79L1304.24-210.79M1462.73 2.34Q1431.83 2.34 1415.49-16.33Q1399.16-35.01 1399.16-70.31L1399.16-192.77Q1399.16-225.88 1415.35-243.02Q1431.53-260.16 1462.73-260.16Q1493.94-260.16 1510.12-243.02Q1526.31-225.88 1526.31-192.77L1526.31-70.31Q1526.31-35.01 1509.98-16.33Q1493.64 2.34 1462.73 2.34M1463.17-45.12Q1474.89-45.12 1474.89-67.82L1474.89-193.65Q1474.89-212.70 1463.47-212.70Q1450.58-212.70 1450.58-193.21L1450.58-67.53Q1450.58-55.52 1453.51-50.32Q1456.44-45.12 1463.17-45.12M1605.26 0L1553.11 0L1553.11-257.81L1632.21-257.81Q1651.99-257.81 1662.09-248.80Q1672.20-239.79 1675.64-223.61Q1679.09-207.42 1679.09-185.60Q1679.09-164.50 1673.74-151.90Q1668.39-139.31 1653.60-134.47Q1665.76-131.98 1670.66-122.39Q1675.57-112.79 1675.57-97.56L1675.57 0L1624.74 0L1624.74-100.93Q1624.74-112.21 1620.13-114.92Q1615.51-117.63 1605.26-117.63L1605.26 0M1605.55-210.06L1605.55-162.30L1618-162.30Q1628.70-162.30 1628.70-185.60Q1628.70-200.68 1626.35-205.37Q1624.01-210.06 1617.56-210.06L1605.55-210.06M1775.76 0L1724.20 0L1724.20-208.30L1693.58-208.30L1693.58-257.81L1806.38-257.81L1806.38-208.30L1775.76-208.30" fill="#ffffff"/>
  </g>
  <g transform="translate(489.82, 2000)">
    <path d="M155.04 5.63Q22.50 5.63 22.50-184.22L22.50-451.05Q22.50-624.37 174.38-624.37Q236.95-624.37 270.35-599.24Q303.75-574.10 316.41-525.94Q329.06-477.77 329.06-408.52L208.13-408.52L208.13-463.36Q208.13-483.40 202.68-496.93Q197.23-510.47 180-510.47Q158.55-510.47 151.70-496.05Q144.84-481.64 144.84-464.41L144.84-164.53Q144.84-139.57 151.35-123.93Q157.85-108.28 176.84-108.28Q196.52-108.28 203.03-123.93Q209.53-139.57 209.53-165.23L209.53-253.48L176.48-253.48L176.48-360.35L327.66-360.35L327.66 0L278.09 0L256.99-52.03Q224.65 5.63 155.04 5.63M635.54 0L384.52 0L384.52-618.75L508.27-618.75L508.27-105.47L635.54-105.47L635.54 0M826.35 5.63Q752.17 5.63 712.97-39.20Q673.77-84.02 673.77-168.75L673.77-462.66Q673.77-542.11 712.62-583.24Q751.47-624.37 826.35-624.37Q901.23-624.37 940.08-583.24Q978.93-542.11 978.93-462.66L978.93-168.75Q978.93-84.02 939.73-39.20Q900.53 5.63 826.35 5.63M827.41-108.28Q855.53-108.28 855.53-162.77L855.53-464.77Q855.53-510.47 828.11-510.47Q797.17-510.47 797.17-463.71L797.17-162.07Q797.17-133.24 804.20-120.76Q811.23-108.28 827.41-108.28M1204.55 0L1036.85 0L1036.85-618.75L1204.55-618.75Q1272.05-618.75 1302.81-585.88Q1333.57-553.01 1333.57-477.42L1333.57-450.35Q1333.57-406.76 1317.93-379.69Q1302.28-352.62 1270.29-344.18Q1312.13-333.63 1326.36-294.79Q1340.60-255.94 1340.60-200.04Q1340.60-139.92 1329.35-94.92Q1318.10-49.92 1288.57-24.96Q1259.04 0 1204.55 0M1157.79-523.12L1157.79-385.66L1183.10-385.66Q1200.33-385.66 1205.25-399.02Q1210.17-412.38 1210.17-431.02L1210.17-493.24Q1210.17-523.12 1183.80-523.12L1157.79-523.12M1170.09-108.98Q1218.26-108.98 1218.26-154.69L1218.26-232.03Q1218.26-258.40 1210.35-273.69Q1202.44-288.98 1180.64-288.98L1157.79-288.98L1157.79-109.69Q1165.52-108.98 1170.09-108.98M1492.74 0L1372.51 0L1432.27-618.75L1642.16-618.75L1700.87 0L1583.80 0L1575.01-99.84L1500.48-99.84L1492.74 0M1532.82-513.28L1509.27-198.63L1565.52-198.63L1538.45-513.28L1532.82-513.28M1997.85 0L1746.84 0L1746.84-618.75L1870.59-618.75L1870.59-105.47L1997.85-105.47" fill="#ffd60a"/>
  </g>
  <g transform="translate(169.86, 2760)">
    <path d="M174.38 5.63Q89.65 5.63 52.21-36.56Q14.77-78.75 14.77-170.86L14.77-231.33L137.11-231.33L137.11-153.98Q137.11-132.54 143.61-120.41Q150.12-108.28 166.29-108.28Q183.16-108.28 189.67-118.12Q196.17-127.97 196.17-150.47Q196.17-178.95 190.55-198.11Q184.92-217.27 171.04-234.67Q157.15-252.07 132.54-275.27L76.99-328.01Q14.77-386.72 14.77-462.30Q14.77-541.41 51.50-582.89Q88.24-624.37 157.85-624.37Q242.93-624.37 278.61-579.02Q314.30-533.67 314.30-441.21L188.44-441.21L188.44-483.75Q188.44-496.41 181.23-503.44Q174.02-510.47 161.72-510.47Q146.95-510.47 140.10-502.21Q133.24-493.95 133.24-480.94Q133.24-467.93 140.27-452.81Q147.30-437.70 168.05-418.01L239.41-349.45Q260.86-329.06 278.79-306.39Q296.72-283.71 307.62-253.65Q318.52-223.59 318.52-180.35Q318.52-93.16 286.35-43.77Q254.18 5.63 174.38 5.63M544.48 0L420.73 0L420.73-499.92L347.26-499.92L347.26-618.75L617.96-618.75L617.96-499.92L544.48-499.92L544.48 0M803.50 5.63Q726.16 5.63 689.59-37.79Q653.03-81.21 653.03-165.59L653.03-618.75L773.27-618.75L773.27-170.51Q773.27-155.04 775.02-140.80Q776.78-126.56 783.11-117.42Q789.44-108.28 803.50-108.28Q817.91-108.28 824.24-117.25Q830.57-126.21 832.15-140.62Q833.73-155.04 833.73-170.51L833.73-618.75L953.97-618.75L953.97-165.59Q953.97-81.21 917.41-37.79Q880.84 5.63 803.50 5.63M1131.07 0L1009.43 0L1009.43-618.75L1172.91-618.75Q1224.23-618.75 1254.29-595.90Q1284.35-573.05 1297.36-530.86Q1310.37-488.67 1310.37-430.31Q1310.37-374.06 1299.47-332.40Q1288.57-290.74 1260.62-267.89Q1232.67-245.04 1181.34-245.04L1131.07-245.04L1131.07 0M1131.07-505.90L1131.07-356.13L1138.10-356.13Q1172.55-356.13 1180.29-375.47Q1188.02-394.80 1188.02-432.42Q1188.02-467.58 1180.46-486.74Q1172.91-505.90 1144.78-505.90L1131.07-505.90M1471.30 0L1351.77 0L1351.77-618.75L1471.30-618.75L1471.30 0M1694.45 0L1528.52 0L1528.52-618.75L1698.67-618.75Q1765.47-618.75 1799.22-581.66Q1832.97-544.57 1832.97-473.20L1832.97-183.52Q1832.97-95.62 1802.21-47.81Q1771.45 0 1694.45 0M1652.97-510.47L1652.97-109.34L1674.41-109.34Q1708.52-109.34 1708.52-142.38L1708.52-461.60Q1708.52-492.54 1700.25-501.50Q1691.99-510.47 1666.68-510.47L1652.97-510.47M2005.50 0L1885.97 0L1885.97-618.75L2005.50-618.75L2005.50 0M2239.55 0L2115.80 0L2115.80-499.92L2042.33-499.92L2042.33-618.75L2313.03-618.75L2313.03-499.92L2239.55-499.92L2239.55 0M2547.09 0L2430.37 0L2430.37-203.55L2331.58-618.75L2454.27-618.75L2488.73-409.22L2523.18-618.75L2645.52-618.75L2547.09-203.55" fill="#ff2e63"/>
  </g>
  <g transform="translate(911.91, 3360)">
    <path d="M266.60 0L16.95 0L16.95-22.97Q16.95-58.79 28.03-87.36Q39.10-115.94 56.60-140.41Q74.10-164.88 93.52-188.40Q112.38-211.37 129.47-235.57Q146.56-259.77 157.36-288.07Q168.16-316.37 168.16-351.64Q168.16-368.59 163.11-380.76Q158.05-392.93 142.19-392.93Q118.13-392.93 118.13-350L118.13-291.21L16.95-291.21Q16.68-297.50 16.27-305.43Q15.86-313.36 15.86-320.74Q15.86-372.70 26.80-408.93Q37.73-445.16 65.49-464.16Q93.24-483.16 143.55-483.16Q203.44-483.16 236.66-449.53Q269.88-415.90 269.88-353.55Q269.88-311.17 258.95-279.32Q248.01-247.46 229.96-221.35Q211.91-195.23 190.31-169.26Q175-150.94 160.64-131.80Q146.29-112.66 135.35-90.78L266.60-90.78L266.60 0M435.08 4.38Q374.10 4.38 340.88-29.80Q307.66-63.98 307.66-128.24L307.66-345.35Q307.66-413.16 339.24-449.39Q370.82-485.62 435.08-485.62Q499.61-485.62 531.05-449.39Q562.50-413.16 562.50-345.35L562.50-128.24Q562.50-63.98 529.41-29.80Q496.33 4.38 435.08 4.38M435.08-84.22Q446.29-84.22 452.58-94.34Q458.87-104.45 458.87-117.03L458.87-354.65Q458.87-371.60 455.18-384.32Q451.48-397.03 435.08-397.03Q418.67-397.03 414.98-384.32Q411.29-371.60 411.29-354.65L411.29-117.03Q411.29-104.45 417.71-94.34Q424.14-84.22 435.08-84.22M860.04 0L610.39 0L610.39-22.97Q610.39-58.79 621.46-87.36Q632.54-115.94 650.04-140.41Q667.54-164.88 686.95-188.40Q705.82-211.37 722.91-235.57Q740-259.77 750.80-288.07Q761.60-316.37 761.60-351.64Q761.60-368.59 756.54-380.76Q751.48-392.93 735.63-392.93Q711.56-392.93 711.56-350L711.56-291.21L610.39-291.21Q610.12-297.50 609.71-305.43Q609.30-313.36 609.30-320.74Q609.30-372.70 620.23-408.93Q631.17-445.16 658.93-464.16Q686.68-483.16 736.99-483.16Q796.88-483.16 830.10-449.53Q863.32-415.90 863.32-353.55Q863.32-311.17 852.38-279.32Q841.45-247.46 823.40-221.35Q805.35-195.23 783.75-169.26Q768.44-150.94 754.08-131.80Q739.73-112.66 728.79-90.78L860.04-90.78L860.04 0M1034.80 4.38Q984.77 4.38 956.46-12.71Q928.16-29.80 916.54-64.26Q904.92-98.71 904.92-150.12L904.92-280.27Q904.92-330.31 909.16-368.59Q913.40-406.87 926.80-432.85Q940.20-458.83 966.72-472.23Q993.24-485.62 1037.54-485.62Q1067.89-485.62 1094.14-475.10Q1120.39-464.57 1136.52-443.65Q1152.66-422.73 1152.66-391.29L1152.66-339.34L1059.96-339.34L1059.96-349.18Q1059.96-361.21 1058.73-373.24Q1057.50-385.27 1052.58-393.20Q1047.66-401.13 1035.90-401.13Q1019.77-401.13 1013.48-392.25Q1007.19-383.36 1007.19-366.68L1007.19-270.16Q1014.02-283.01 1027.70-290.80Q1041.37-298.59 1061.05-298.59Q1100.98-298.59 1122.44-282.60Q1143.91-266.60 1152.11-234.88Q1160.31-203.16 1160.31-155.59Q1160.31-107.46 1148.55-71.50Q1136.80-35.55 1109.32-15.59Q1081.84 4.38 1034.80 4.38M1031.25-84.22Q1048.20-84.22 1051.48-98.57Q1054.77-112.93 1054.77-135.35L1054.77-174.18Q1054.77-213.55 1032.62-213.55Q1007.19-213.55 1007.19-179.37L1007.19-119.77Q1007.19-84.22 1031.25-84.22" fill="#ffffff"/>
  </g>
</svg>
