<svg xmlns="http://www.w3.org/2000/svg" viewBox="0 0 1500 1500">
  <rect x="60" y="60" width="1380" height="1380" rx="90" fill="#0d0d15" stroke="#c6f135" stroke-width="14"/>
  <path d="M278.04 520L243.88 520L243.88 330.94L301.46 330.94L317.36 446.20L333.15 330.94L391.26 330.94L391.26 520L356.67 520L356.67 383.79L334.98 520L301.03 520L278.04 383.79 M466.57 520L430.90 520L430.90 457.80L400.72 330.94L438.21 330.94L448.74 394.96L459.26 330.94L496.65 330.94L466.57 457.80  M601.81 521.72Q581.29 521.72 568.78 508.94Q556.26 496.15 556.26 473.16L556.26 385.94Q556.26 358.44 567.17 343.83Q578.07 329.22 602.67 329.22Q616.10 329.22 626.57 334.16Q637.05 339.10 643.06 348.93Q649.08 358.76 649.08 373.69L649.08 406.35L611.48 406.35L611.48 378.42Q611.48 369.93 609.33 366.98Q607.18 364.02 602.67 364.02Q597.41 364.02 595.58 367.84Q593.75 371.65 593.75 377.99L593.75 472.63Q593.75 480.47 596.06 483.69Q598.37 486.91 602.67 486.91Q607.50 486.91 609.49 482.94Q611.48 478.96 611.48 472.63L611.48 438.57L649.51 438.57L649.51 474.35Q649.51 499.27 636.94 510.49Q624.37 521.72 601.81 521.72 M707.19 521.72Q684.53 521.72 672.55 508.02Q660.57 494.33 660.57 468.44L660.57 378.63Q660.57 354.36 672.44 341.79Q684.31 329.22 707.19 329.22Q730.07 329.22 741.94 341.79Q753.81 354.36 753.81 378.63L753.81 468.44Q753.81 494.33 741.84 508.02Q729.86 521.72 707.19 521.72M707.51 486.91Q716.11 486.91 716.11 470.26L716.11 377.99Q716.11 364.02 707.73 364.02Q698.28 364.02 698.28 378.31L698.28 470.48Q698.28 479.29 700.42 483.10Q702.57 486.91 707.51 486.91 M812.79 521.72Q789.16 521.72 777.98 508.45Q766.81 495.19 766.81 469.40L766.81 330.94L803.55 330.94L803.55 467.90Q803.55 472.63 804.09 476.98Q804.62 481.33 806.56 484.12Q808.49 486.91 812.79 486.91Q817.19 486.91 819.13 484.17Q821.06 481.44 821.54 477.03Q822.03 472.63 822.03 467.90L822.03 330.94L858.76 330.94L858.76 469.40Q858.76 495.19 847.59 508.45Q836.42 521.72 812.79 521.72 M910.22 520L873.27 520L873.27 330.94L912.15 330.94L929.56 421.49L929.56 330.94L966.08 330.94L966.08 520L929.13 520L910.22 425.47 M1036.87 520L999.06 520L999.06 367.25L976.61 367.25L976.61 330.94L1059.32 330.94L1059.32 367.25L1036.87 367.25 M1108.09 520L1069.85 520L1069.85 330.94L1127.86 330.94Q1142.36 330.94 1149.77 337.54Q1157.18 344.15 1159.71 356.02Q1162.23 367.89 1162.23 383.90Q1162.23 399.37 1158.31 408.60Q1154.39 417.84 1143.54 421.39Q1152.46 423.21 1156.05 430.25Q1159.65 437.29 1159.65 448.46L1159.65 520L1122.38 520L1122.38 445.99Q1122.38 437.71 1118.99 435.73Q1115.61 433.74 1108.09 433.74L1108.09 520M1108.31 365.96L1108.31 400.98L1117.44 400.98Q1125.28 400.98 1125.28 383.90Q1125.28 372.83 1123.56 369.39Q1121.84 365.96 1117.11 365.96 M1233.24 520L1197.57 520L1197.57 457.80L1167.39 330.94L1204.88 330.94L1215.41 394.96L1225.93 330.94L1263.32 330.94L1233.24 457.80" fill="#ffffff"/>
  <path d="M331.16 740L279.92 740L279.92 550.94L331.16 550.94Q351.79 550.94 361.19 560.98Q370.59 571.03 370.59 594.12L370.59 602.39Q370.59 615.71 365.81 623.98Q361.03 632.26 351.25 634.83Q364.03 638.06 368.38 649.93Q372.73 661.80 372.73 678.88Q372.73 697.25 369.30 711Q365.86 724.75 356.84 732.37Q347.81 740 331.16 740M316.88 580.16L316.88 622.16L324.61 622.16Q329.87 622.16 331.38 618.08Q332.88 613.99 332.88 608.30L332.88 589.29Q332.88 580.16 324.82 580.16L316.88 580.16M320.63 706.70Q335.35 706.70 335.35 692.73L335.35 669.10Q335.35 661.04 332.93 656.37Q330.52 651.70 323.86 651.70L316.88 651.70L316.88 706.48Q319.24 706.70 320.63 706.70 M463.29 740L385.20 740L385.20 550.94L460.82 550.94L460.82 587.46L423.65 587.46L423.65 624.31L459.32 624.31L459.32 659.86L423.65 659.86L423.65 703.15L463.29 703.15 M507.33 740L470.60 740L488.86 550.94L552.99 550.94L570.93 740L535.16 740L532.47 709.49L509.70 709.49L507.33 740M519.58 583.16L512.38 679.31L529.57 679.31L521.30 583.16 M636.56 740L598.75 740L598.75 587.25L576.30 587.25L576.30 550.94L659.01 550.94L659.01 587.25L636.56 587.25  M779.65 740L743.98 740L743.98 677.80L713.80 550.94L751.29 550.94L761.82 614.96L772.34 550.94L809.73 550.94L779.65 677.80 M864.40 741.72Q841.74 741.72 829.76 728.02Q817.78 714.33 817.78 688.44L817.78 598.63Q817.78 574.36 829.65 561.79Q841.52 549.22 864.40 549.22Q887.29 549.22 899.16 561.79Q911.03 574.36 911.03 598.63L911.03 688.44Q911.03 714.33 899.05 728.02Q887.07 741.72 864.40 741.72M864.73 706.91Q873.32 706.91 873.32 690.26L873.32 597.99Q873.32 584.02 864.94 584.02Q855.49 584.02 855.49 598.31L855.49 690.48Q855.49 699.29 857.64 703.10Q859.79 706.91 864.73 706.91 M970 741.72Q946.37 741.72 935.20 728.45Q924.02 715.19 924.02 689.40L924.02 550.94L960.76 550.94L960.76 687.90Q960.76 692.63 961.30 696.98Q961.84 701.33 963.77 704.12Q965.70 706.91 970 706.91Q974.40 706.91 976.34 704.17Q978.27 701.44 978.75 697.03Q979.24 692.63 979.24 687.90L979.24 550.94L1015.98 550.94L1015.98 689.40Q1015.98 715.19 1004.80 728.45Q993.63 741.72 970 741.72 M1068.72 740L1030.48 740L1030.48 550.94L1088.49 550.94Q1102.99 550.94 1110.40 557.54Q1117.81 564.15 1120.34 576.02Q1122.86 587.89 1122.86 603.90Q1122.86 619.37 1118.94 628.60Q1115.02 637.84 1104.17 641.39Q1113.09 643.21 1116.68 650.25Q1120.28 657.29 1120.28 668.46L1120.28 740L1083.01 740L1083.01 665.99Q1083.01 657.71 1079.62 655.73Q1076.24 653.74 1068.72 653.74L1068.72 740M1068.94 585.96L1068.94 620.98L1078.07 620.98Q1085.91 620.98 1085.91 603.90Q1085.91 592.83 1084.19 589.39Q1082.47 585.96 1077.74 585.96 M1180.22 741.72Q1154.34 741.72 1142.90 728.83Q1131.46 715.94 1131.46 687.79L1131.46 669.32L1168.84 669.32L1168.84 692.95Q1168.84 699.50 1170.83 703.21Q1172.81 706.91 1177.75 706.91Q1182.91 706.91 1184.90 703.91Q1186.88 700.90 1186.88 694.02Q1186.88 685.32 1185.17 679.47Q1183.45 673.61 1179.20 668.30Q1174.96 662.98 1167.44 655.89L1150.47 639.78Q1131.46 621.84 1131.46 598.74Q1131.46 574.57 1142.68 561.89Q1153.91 549.22 1175.18 549.22Q1201.17 549.22 1212.08 563.08Q1222.98 576.93 1222.98 605.19L1184.52 605.19L1184.52 592.19Q1184.52 588.32 1182.32 586.17Q1180.12 584.02 1176.36 584.02Q1171.85 584.02 1169.75 586.55Q1167.66 589.07 1167.66 593.05Q1167.66 597.02 1169.80 601.64Q1171.95 606.26 1178.29 612.28L1200.10 633.22Q1206.65 639.45 1212.13 646.38Q1217.61 653.31 1220.94 662.50Q1224.27 671.68 1224.27 684.89Q1224.27 711.53 1214.44 726.63Q1204.61 741.72 1180.22 741.72" fill="#c6f135"/>
  <path d="M609.56 930L584.66 930L584.66 801.09L609.56 801.09 M645.01 930L619.81 930L619.81 801.09L646.33 801.09L658.19 862.84L658.19 801.09L683.09 801.09L683.09 930L657.90 930L645.01 865.55  M766.52 930L740.73 930L740.73 825.85L725.43 825.85L725.43 801.09L781.82 801.09L781.82 825.85L766.52 825.85 M814.64 930L789 930L789 801.09L814.64 801.09L814.64 847.16L826.79 847.16L826.79 801.09L852.43 801.09L852.43 930L826.79 930L826.79 871.55L814.64 871.55 M917.10 930L863.85 930L863.85 801.09L915.42 801.09L915.42 826L890.08 826L890.08 851.12L914.39 851.12L914.39 875.36L890.08 875.36L890.08 904.88L917.10 904.88" fill="#a6a6c2"/>
  <path d="M368.50 1140L326.78 1140L326.78 933.75L390.06 933.75Q405.88 933.75 413.96 940.96Q422.05 948.16 424.80 961.11Q427.56 974.06 427.56 991.52Q427.56 1008.40 423.28 1018.48Q419 1028.55 407.17 1032.42Q416.89 1034.41 420.82 1042.09Q424.75 1049.77 424.75 1061.95L424.75 1140L384.08 1140L384.08 1059.26Q384.08 1050.23 380.39 1048.07Q376.70 1045.90 368.50 1045.90L368.50 1140M368.73 971.95L368.73 1010.16L378.69 1010.16Q387.25 1010.16 387.25 991.52Q387.25 979.45 385.37 975.70Q383.50 971.95 378.34 971.95 M475.61 1140L435.53 1140L455.45 933.75L525.41 933.75L544.98 1140L505.96 1140L503.03 1106.72L478.18 1106.72L475.61 1140M488.96 968.91L481.11 1073.79L499.86 1073.79L490.84 968.91 M597.95 1140L557.64 1140L557.64 933.75L600.06 933.75L619.04 1032.54L619.04 933.75L658.89 933.75L658.89 1140L618.57 1140L597.95 1036.88 M718.18 1140L677.17 1140L677.17 933.75L717.95 933.75L717.95 1016.37L737.17 933.75L778.65 933.75L755.57 1028.20L783.46 1140L740.68 1140L718.18 1040.16 M828.46 1140L788.61 1140L788.61 933.75L828.46 933.75 M885.18 1140L844.86 1140L844.86 933.75L887.29 933.75L906.27 1032.54L906.27 933.75L946.11 933.75L946.11 1140L905.80 1140L885.18 1036.88 M1006.93 1141.88Q962.75 1141.88 962.75 1078.59L962.75 989.65Q962.75 931.88 1013.38 931.88Q1034.24 931.88 1045.37 940.25Q1056.50 948.63 1060.72 964.69Q1064.94 980.74 1064.94 1003.83L1024.63 1003.83L1024.63 985.55Q1024.63 978.87 1022.81 974.36Q1021 969.84 1015.25 969.84Q1008.11 969.84 1005.82 974.65Q1003.54 979.45 1003.54 985.20L1003.54 1085.16Q1003.54 1093.48 1005.70 1098.69Q1007.87 1103.91 1014.20 1103.91Q1020.76 1103.91 1022.93 1098.69Q1025.10 1093.48 1025.10 1084.92L1025.10 1055.51L1014.08 1055.51L1014.08 1019.88L1064.47 1019.88L1064.47 1140L1047.95 1140L1040.92 1122.66Q1030.14 1141.88 1006.93 1141.88 M1129.75 1141.88Q1101.50 1141.88 1089.02 1127.81Q1076.54 1113.75 1076.54 1083.05L1076.54 1062.89L1117.32 1062.89L1117.32 1088.67Q1117.32 1095.82 1119.49 1099.86Q1121.66 1103.91 1127.05 1103.91Q1132.68 1103.91 1134.84 1100.63Q1137.01 1097.34 1137.01 1089.84Q1137.01 1080.35 1135.14 1073.96Q1133.26 1067.58 1128.63 1061.78Q1124 1055.98 1115.80 1048.24L1097.29 1030.66Q1076.54 1011.09 1076.54 985.90Q1076.54 959.53 1088.79 945.70Q1101.04 931.88 1124.24 931.88Q1152.60 931.88 1164.49 946.99Q1176.39 962.11 1176.39 992.93L1134.43 992.93L1134.43 978.75Q1134.43 974.53 1132.03 972.19Q1129.63 969.84 1125.53 969.84Q1120.61 969.84 1118.32 972.60Q1116.04 975.35 1116.04 979.69Q1116.04 984.02 1118.38 989.06Q1120.72 994.10 1127.64 1000.66L1151.43 1023.52Q1158.57 1030.31 1164.55 1037.87Q1170.53 1045.43 1174.16 1055.45Q1177.79 1065.47 1177.79 1079.88Q1177.79 1108.95 1167.07 1125.41Q1156.35 1141.88 1129.75 1141.88" fill="#ffffff"/>
  <path d="M261.06 1300L251.82 1300L251.82 1259.82L238.80 1259.82L238.80 1251L274.08 1251L274.08 1259.82L261.06 1259.82 M303.37 1300L294.13 1300L294.13 1251L303.37 1251L303.37 1271.02L319.19 1271.02L319.19 1251L328.43 1251L328.43 1300L319.19 1300L319.19 1279.84L303.37 1279.84 M382.22 1300L350.44 1300L350.44 1251L381.38 1251L381.38 1259.82L359.68 1259.82L359.68 1271.02L380.54 1271.02L380.54 1279.84L359.68 1279.84L359.68 1291.18L382.22 1291.18  M492.18 1300L459.42 1300L459.42 1291.18L471.18 1291.18L471.18 1259.82L459.42 1259.82L459.42 1251L492.18 1251L492.18 1259.82L480.42 1259.82L480.42 1291.18L492.18 1291.18 M530.22 1300L512.44 1300L512.44 1291.11L517.06 1291.11L517.06 1259.82L512.44 1259.82L512.44 1251L530.22 1251Q539.25 1251 543.69 1255.27Q548.14 1259.54 548.14 1268.36L548.14 1282.64Q548.14 1291.46 543.69 1295.73Q539.25 1300 530.22 1300M526.30 1259.82L526.30 1291.18L530.22 1291.18Q535.05 1291.18 536.97 1288.90Q538.90 1286.63 538.90 1281.80L538.90 1268.36Q538.90 1264.16 536.97 1261.99Q535.05 1259.82 530.22 1259.82 M601.86 1300L569.10 1300L569.10 1291.18L580.86 1291.18L580.86 1259.82L569.10 1259.82L569.10 1251L601.86 1251L601.86 1259.82L590.10 1259.82L590.10 1291.18L601.86 1291.18 M640.32 1300.98Q631.92 1300.98 627.09 1295.84Q622.26 1290.69 622.26 1280.96L622.26 1270.04Q622.26 1260.59 627.09 1255.31Q631.92 1250.02 640.32 1250.02Q648.72 1250.02 653.55 1255.31Q658.38 1260.59 658.38 1270.04L658.38 1280.96Q658.38 1290.69 653.55 1295.84Q648.72 1300.98 640.32 1300.98M640.32 1292.58Q645.36 1292.58 647.25 1289.50Q649.14 1286.42 649.14 1281.52L649.14 1269.48Q649.14 1266.40 648.23 1263.88Q647.32 1261.36 645.39 1259.89Q643.47 1258.42 640.32 1258.42Q637.17 1258.42 635.21 1259.89Q633.25 1261.36 632.38 1263.88Q631.50 1266.40 631.50 1269.48L631.50 1281.52Q631.50 1286.42 633.39 1289.50Q635.28 1292.58 640.32 1292.58 M695.30 1300.98Q686.90 1300.98 682 1295.84Q677.10 1290.69 677.10 1280.96L677.10 1270.04Q677.10 1260.59 682 1255.31Q686.90 1250.02 695.30 1250.02Q704.05 1250.02 708.63 1254.92Q713.22 1259.82 713.22 1268.22L713.22 1269.48L703.98 1269.48L703.98 1268.22Q703.98 1265.91 703.21 1263.63Q702.44 1261.36 700.55 1259.89Q698.66 1258.42 695.30 1258.42Q692.22 1258.42 690.23 1259.92Q688.23 1261.43 687.28 1263.91Q686.34 1266.40 686.34 1269.34L686.34 1281.66Q686.34 1286.42 688.37 1289.50Q690.40 1292.58 695.30 1292.58Q698.87 1292.58 700.76 1291.18Q702.65 1289.78 703.32 1287.54Q703.98 1285.30 703.98 1282.78L703.98 1281.52L713.22 1281.52L713.22 1282.78Q713.22 1291.46 708.63 1296.22Q704.05 1300.98 695.30 1300.98 M742.93 1300L733.69 1300L733.69 1251L752.45 1251Q757.49 1251 760.92 1252.82Q764.35 1254.64 766.10 1257.68Q767.85 1260.73 767.85 1264.51L767.85 1266.19Q767.85 1269.20 766.21 1271.83Q764.56 1274.45 761.27 1275.85L761.27 1277.11Q763.72 1277.39 765.16 1279Q766.59 1280.61 766.59 1283.06L766.59 1300L757.35 1300L757.35 1285.30Q757.35 1283.62 756.48 1282.57Q755.60 1281.52 753.57 1281.52L742.93 1281.52L742.93 1300M742.93 1259.82L742.93 1272.70L751.75 1272.70Q755.11 1272.70 756.86 1271.09Q758.61 1269.48 758.61 1266.68L758.61 1265.84Q758.61 1263.39 756.86 1261.61Q755.11 1259.82 751.75 1259.82 M794.13 1300L784.47 1300L796.16 1251L813.52 1251L825.21 1300L815.55 1300L813.17 1289.50L796.51 1289.50L794.13 1300M804.21 1255.62L798.47 1280.68L811.14 1280.68L805.47 1255.62 M859.82 1300.98Q851.42 1300.98 846.52 1295.84Q841.62 1290.69 841.62 1280.96L841.62 1270.04Q841.62 1260.59 846.52 1255.31Q851.42 1250.02 859.82 1250.02Q868.57 1250.02 873.16 1254.92Q877.74 1259.82 877.74 1268.22L877.74 1269.48L868.50 1269.48L868.50 1268.22Q868.50 1265.91 867.73 1263.63Q866.96 1261.36 865.07 1259.89Q863.18 1258.42 859.82 1258.42Q856.74 1258.42 854.75 1259.92Q852.75 1261.43 851.81 1263.91Q850.86 1266.40 850.86 1269.34L850.86 1281.66Q850.86 1286.42 852.89 1289.50Q854.92 1292.58 859.82 1292.58Q863.39 1292.58 865.28 1291.18Q867.17 1289.78 867.84 1287.54Q868.50 1285.30 868.50 1282.78L868.50 1281.52L877.74 1281.52L877.74 1282.78Q877.74 1291.46 873.16 1296.22Q868.57 1300.98 859.82 1300.98 M919.14 1300L909.90 1300L909.90 1282.78L907.80 1282.78L893.73 1251L903.81 1251L913.89 1274.38L915.15 1274.38L925.23 1251L935.31 1251L921.24 1282.78L919.14 1282.78  M1040.58 1300L1007.82 1300L1007.82 1291.18L1019.58 1291.18L1019.58 1259.82L1007.82 1259.82L1007.82 1251L1040.58 1251L1040.58 1259.82L1028.82 1259.82L1028.82 1291.18L1040.58 1291.18 M1071.13 1300L1061.89 1300L1061.89 1251L1079.95 1251L1085.69 1295.38L1086.95 1295.38L1086.95 1251L1096.19 1251L1096.19 1300L1078.13 1300L1072.39 1255.62L1071.13 1255.62 M1133.46 1300L1115.68 1300L1115.68 1291.11L1120.30 1291.11L1120.30 1259.82L1115.68 1259.82L1115.68 1251L1133.46 1251Q1142.49 1251 1146.93 1255.27Q1151.38 1259.54 1151.38 1268.36L1151.38 1282.64Q1151.38 1291.46 1146.93 1295.73Q1142.49 1300 1133.46 1300M1129.54 1259.82L1129.54 1291.18L1133.46 1291.18Q1138.29 1291.18 1140.22 1288.90Q1142.14 1286.63 1142.14 1281.80L1142.14 1268.36Q1142.14 1264.16 1140.22 1261.99Q1138.29 1259.82 1133.46 1259.82 M1204.82 1300L1173.04 1300L1173.04 1251L1203.98 1251L1203.98 1259.82L1182.28 1259.82L1182.28 1271.02L1203.14 1271.02L1203.14 1279.84L1182.28 1279.84L1182.28 1291.18L1204.82 1291.18 M1234.46 1300L1224.45 1300L1234.53 1276.06L1234.53 1274.80L1224.45 1251L1234.46 1251L1242.72 1271.02L1244.40 1271.02L1252.66 1251L1262.67 1251L1252.59 1274.80L1252.59 1276.06L1262.67 1300L1252.66 1300L1244.40 1279.84L1242.72 1279.84" fill="#6c6c86"/>
</svg>
