<svg xmlns="http://www.w3.org/2000/svg" viewBox="0 0 1500 1500">
  <rect x="60" y="60" width="1380" height="1380" rx="90" fill="#0d0d15" stroke="#c6f135" stroke-width="14"/>
  <g transform="translate(231.90, 520)">
    <path d="M42.54 0L8.38 0L8.38-189.06L65.96-189.06L81.86-73.80L97.65-189.06L155.76-189.06L155.76 0L121.17 0L121.17-136.21L99.47 0L65.53 0L42.54-136.21L42.54 0M231.06 0L195.40 0L195.40-62.20L165.21-189.06L202.71-189.06L213.23-125.04L223.76-189.06L261.14-189.06L231.06-62.20L231.06 0M366.31 1.72Q345.79 1.72 333.28-11.06Q320.76-23.85 320.76-46.84L320.76-134.06Q320.76-161.56 331.67-176.17Q342.57-190.78 367.17-190.78Q380.60-190.78 391.07-185.84Q401.54-180.90 407.56-171.07Q413.57-161.24 413.57-146.31L413.57-113.65L375.98-113.65L375.98-141.58Q375.98-150.07 373.83-153.02Q371.68-155.98 367.17-155.98Q361.90-155.98 360.08-152.16Q358.25-148.35 358.25-142.01L358.25-47.37Q358.25-39.53 360.56-36.31Q362.87-33.09 367.17-33.09Q372-33.09 373.99-37.06Q375.98-41.04 375.98-47.37L375.98-81.43L414-81.43L414-45.65Q414-20.73 401.44-9.51Q388.87 1.72 366.31 1.72M471.69 1.72Q449.02 1.72 437.05-11.98Q425.07-25.67 425.07-51.56L425.07-141.37Q425.07-165.64 436.94-178.21Q448.81-190.78 471.69-190.78Q494.57-190.78 506.44-178.21Q518.31-165.64 518.31-141.37L518.31-51.56Q518.31-25.67 506.33-11.98Q494.36 1.72 471.69 1.72M472.01-33.09Q480.61-33.09 480.61-49.74L480.61-142.01Q480.61-155.98 472.23-155.98Q462.77-155.98 462.77-141.69L462.77-49.52Q462.77-40.71 464.92-36.90Q467.07-33.09 472.01-33.09M577.29 1.72Q553.65 1.72 542.48-11.55Q531.31-24.81 531.31-50.60L531.31-189.06L568.05-189.06L568.05-52.10Q568.05-47.37 568.58-43.02Q569.12-38.67 571.05-35.88Q572.99-33.09 577.29-33.09Q581.69-33.09 583.62-35.83Q585.56-38.56 586.04-42.97Q586.52-47.37 586.52-52.10L586.52-189.06L623.26-189.06L623.26-50.60Q623.26-24.81 612.09-11.55Q600.92 1.72 577.29 1.72M674.72 0L637.76 0L637.76-189.06L676.65-189.06L694.05-98.51L694.05-189.06L730.58-189.06L730.58 0L693.62 0L674.72-94.53L674.72 0M801.37 0L763.55 0L763.55-152.75L741.10-152.75L741.10-189.06L823.82-189.06L823.82-152.75L801.37-152.75L801.37 0M872.59 0L834.35 0L834.35-189.06L892.35-189.06Q906.86-189.06 914.27-182.46Q921.68-175.85 924.20-163.98Q926.73-152.11 926.73-136.10Q926.73-120.63 922.81-111.40Q918.89-102.16 908.04-98.61Q916.95-96.79 920.55-89.75Q924.15-82.71 924.15-71.54L924.15 0L886.88 0L886.88-74.01Q886.88-82.29 883.49-84.27Q880.11-86.26 872.59-86.26L872.59 0M872.80-154.04L872.80-119.02L881.93-119.02Q889.78-119.02 889.78-136.10Q889.78-147.17 888.06-150.61Q886.34-154.04 881.61-154.04L872.80-154.04M997.73 0L962.07 0L962.07-62.20L931.88-189.06L969.38-189.06L979.90-125.04L990.43-189.06L1027.81-189.06L997.73-62.20" fill="#ffffff"/>
  </g>
  <g transform="translate(269.45, 740)">
    <path d="M59.62 0L8.38 0L8.38-189.06L59.62-189.06Q80.24-189.06 89.64-179.02Q99.04-168.97 99.04-145.88L99.04-137.61Q99.04-124.29 94.26-116.02Q89.48-107.74 79.71-105.17Q92.49-101.94 96.84-90.07Q101.19-78.20 101.19-61.12Q101.19-42.75 97.75-29Q94.32-15.25 85.29-7.63Q76.27 0 59.62 0M45.33-159.84L45.33-117.84L53.07-117.84Q58.33-117.84 59.83-121.92Q61.34-126.01 61.34-131.70L61.34-150.71Q61.34-159.84 53.28-159.84L45.33-159.84M49.09-33.30Q63.81-33.30 63.81-47.27L63.81-70.90Q63.81-78.96 61.39-83.63Q58.97-88.30 52.31-88.30L45.33-88.30L45.33-33.52Q47.70-33.30 49.09-33.30M191.75 0L113.65 0L113.65-189.06L189.28-189.06L189.28-152.54L152.11-152.54L152.11-115.69L187.77-115.69L187.77-80.14L152.11-80.14L152.11-36.85L191.75-36.85L191.75 0M235.79 0L199.05 0L217.31-189.06L281.45-189.06L299.38 0L263.61 0L260.93-30.51L238.15-30.51L235.79 0M248.04-156.84L240.84-60.69L258.03-60.69L249.76-156.84L248.04-156.84M365.02 0L327.21 0L327.21-152.75L304.76-152.75L304.76-189.06L387.47-189.06L387.47-152.75L365.02-152.75L365.02 0M508.11 0L472.44 0L472.44-62.20L442.26-189.06L479.75-189.06L490.27-125.04L500.80-189.06L538.18-189.06L508.11-62.20L508.11 0M592.86 1.72Q570.20 1.72 558.22-11.98Q546.24-25.67 546.24-51.56L546.24-141.37Q546.24-165.64 558.11-178.21Q569.98-190.78 592.86-190.78Q615.74-190.78 627.61-178.21Q639.48-165.64 639.48-141.37L639.48-51.56Q639.48-25.67 627.50-11.98Q615.53 1.72 592.86 1.72M593.18-33.09Q601.78-33.09 601.78-49.74L601.78-142.01Q601.78-155.98 593.40-155.98Q583.95-155.98 583.95-141.69L583.95-49.52Q583.95-40.71 586.09-36.90Q588.24-33.09 593.18-33.09M698.46 1.72Q674.82 1.72 663.65-11.55Q652.48-24.81 652.48-50.60L652.48-189.06L689.22-189.06L689.22-52.10Q689.22-47.37 689.76-43.02Q690.29-38.67 692.23-35.88Q694.16-33.09 698.46-33.09Q702.86-33.09 704.79-35.83Q706.73-38.56 707.21-42.97Q707.70-47.37 707.70-52.10L707.70-189.06L744.43-189.06L744.43-50.60Q744.43-24.81 733.26-11.55Q722.09 1.72 698.46 1.72M797.18 0L758.94 0L758.94-189.06L816.94-189.06Q831.45-189.06 838.86-182.46Q846.27-175.85 848.79-163.98Q851.32-152.11 851.32-136.10Q851.32-120.63 847.40-111.40Q843.48-102.16 832.63-98.61Q841.54-96.79 845.14-89.75Q848.74-82.71 848.74-71.54L848.74 0L811.46 0L811.46-74.01Q811.46-82.29 808.08-84.27Q804.70-86.26 797.18-86.26L797.18 0M797.39-154.04L797.39-119.02L806.52-119.02Q814.37-119.02 814.37-136.10Q814.37-147.17 812.65-150.61Q810.93-154.04 806.20-154.04L797.39-154.04M908.68 1.72Q882.79 1.72 871.35-11.17Q859.91-24.06 859.91-52.21L859.91-70.68L897.29-70.68L897.29-47.05Q897.29-40.50 899.28-36.79Q901.27-33.09 906.21-33.09Q911.37-33.09 913.35-36.09Q915.34-39.10 915.34-45.98Q915.34-54.68 913.62-60.53Q911.90-66.39 907.66-71.70Q903.42-77.02 895.90-84.11L878.93-100.22Q859.91-118.16 859.91-141.26Q859.91-165.43 871.14-178.11Q882.36-190.78 903.63-190.78Q929.63-190.78 940.53-176.92Q951.44-163.07 951.44-134.81L912.98-134.81L912.98-147.81Q912.98-151.68 910.78-153.83Q908.57-155.98 904.81-155.98Q900.30-155.98 898.21-153.45Q896.11-150.93 896.11-146.95Q896.11-142.98 898.26-138.36Q900.41-133.74 906.75-127.72L928.55-106.78Q935.11-100.55 940.59-93.62Q946.06-86.69 949.39-77.50Q952.72-68.32 952.72-55.11Q952.72-28.47 942.90-13.37Q933.07 1.72 908.68 1.72" fill="#c6f135"/>
  </g>
  <g transform="translate(579.24, 930)">
    <path d="M29.44 0L4.54 0L4.54-128.91L29.44-128.91L29.44 0M64.89 0L39.70 0L39.70-128.91L66.21-128.91L78.08-67.16L78.08-128.91L102.98-128.91L102.98 0L77.78 0L64.89-64.45L64.89 0M186.40 0L160.62 0L160.62-104.15L145.31-104.15L145.31-128.91L201.71-128.91L201.71-104.15L186.40-104.15L186.40 0M234.52 0L208.89 0L208.89-128.91L234.52-128.91L234.52-82.84L246.68-82.84L246.68-128.91L272.31-128.91L272.31 0L246.68 0L246.68-58.45L234.52-58.45L234.52 0M336.99 0L283.74 0L283.74-128.91L335.30-128.91L335.30-104L309.96-104L309.96-78.88L334.28-78.88L334.28-54.64L309.96-54.64L309.96-25.12L336.99-25.12" fill="#a6a6c2"/>
  </g>
  <g transform="translate(315.35, 1140)">
    <path d="M50.86 0L9.14 0L9.14-206.25L72.42-206.25Q88.24-206.25 96.33-199.04Q104.41-191.84 107.17-178.89Q109.92-165.94 109.92-148.48Q109.92-131.60 105.64-121.52Q101.37-111.45 89.53-107.58Q99.26-105.59 103.18-97.91Q107.11-90.23 107.11-78.05L107.11 0L66.45 0L66.45-80.74Q66.45-89.77 62.75-91.93Q59.06-94.10 50.86-94.10L50.86 0M51.09-168.05L51.09-129.84L61.05-129.84Q69.61-129.84 69.61-148.48Q69.61-160.55 67.73-164.30Q65.86-168.05 60.70-168.05L51.09-168.05M157.97 0L117.89 0L137.81-206.25L207.77-206.25L227.34 0L188.32 0L185.39-33.28L160.55-33.28L157.97 0M171.33-171.09L163.48-66.21L182.23-66.21L173.20-171.09L171.33-171.09M280.31 0L240 0L240-206.25L282.42-206.25L301.41-107.46L301.41-206.25L341.25-206.25L341.25 0L300.94 0L280.31-103.12L280.31 0M400.55 0L359.53 0L359.53-206.25L400.31-206.25L400.31-123.63L419.53-206.25L461.02-206.25L437.93-111.80L465.82 0L423.05 0L400.55-99.84L400.55 0M510.82 0L470.98 0L470.98-206.25L510.82-206.25L510.82 0M567.54 0L527.23 0L527.23-206.25L569.65-206.25L588.63-107.46L588.63-206.25L628.48-206.25L628.48 0L588.16 0L567.54-103.12L567.54 0M689.30 1.88Q645.12 1.88 645.12-61.41L645.12-150.35Q645.12-208.12 695.74-208.12Q716.60-208.12 727.73-199.75Q738.87-191.37 743.09-175.31Q747.30-159.26 747.30-136.17L706.99-136.17L706.99-154.45Q706.99-161.13 705.18-165.64Q703.36-170.16 697.62-170.16Q690.47-170.16 688.18-165.35Q685.90-160.55 685.90-154.80L685.90-54.84Q685.90-46.52 688.07-41.31Q690.23-36.09 696.56-36.09Q703.13-36.09 705.29-41.31Q707.46-46.52 707.46-55.08L707.46-84.49L696.45-84.49L696.45-120.12L746.84-120.12L746.84 0L730.31 0L723.28-17.34Q712.50 1.88 689.30 1.88M812.11 1.88Q783.87 1.88 771.39-12.19Q758.91-26.25 758.91-56.95L758.91-77.11L799.69-77.11L799.69-51.33Q799.69-44.18 801.86-40.14Q804.02-36.09 809.41-36.09Q815.04-36.09 817.21-39.37Q819.38-42.66 819.38-50.16Q819.38-59.65 817.50-66.04Q815.63-72.42 811-78.22Q806.37-84.02 798.16-91.76L779.65-109.34Q758.91-128.91 758.91-154.10Q758.91-180.47 771.15-194.30Q783.40-208.12 806.60-208.12Q834.96-208.12 846.86-193.01Q858.75-177.89 858.75-147.07L816.80-147.07L816.80-161.25Q816.80-165.47 814.39-167.81Q811.99-170.16 807.89-170.16Q802.97-170.16 800.68-167.40Q798.40-164.65 798.40-160.31Q798.40-155.98 800.74-150.94Q803.09-145.90 810-139.34L833.79-116.48Q840.94-109.69 846.91-102.13Q852.89-94.57 856.52-84.55Q860.16-74.53 860.16-60.12Q860.16-31.05 849.43-14.59Q838.71 1.88 812.11 1.88" fill="#ffffff"/>
  </g>
  <g transform="translate(234.28, 1300)">
    <path d="M26.04 0L16.80 0L16.80-40.18L3.78-40.18L3.78-49L39.06-49L39.06-40.18L26.04-40.18L26.04 0M68.35 0L59.11 0L59.11-49L68.35-49L68.35-28.98L84.17-28.98L84.17-49L93.41-49L93.41 0L84.17 0L84.17-20.16L68.35-20.16L68.35 0M147.20 0L115.42 0L115.42-49L146.36-49L146.36-40.18L124.66-40.18L124.66-28.98L145.52-28.98L145.52-20.16L124.66-20.16L124.66-8.82L147.20-8.82L147.20 0M257.16 0L224.40 0L224.40-8.82L236.16-8.82L236.16-40.18L224.40-40.18L224.40-49L257.16-49L257.16-40.18L245.40-40.18L245.40-8.82L257.16-8.82L257.16 0M295.20 0L277.42 0L277.42-8.89L282.04-8.89L282.04-40.18L277.42-40.18L277.42-49L295.20-49Q304.23-49 308.68-44.73Q313.12-40.46 313.12-31.64L313.12-17.36Q313.12-8.54 308.68-4.27Q304.23 0 295.20 0M291.28-40.18L291.28-8.82L295.20-8.82Q300.03-8.82 301.96-11.10Q303.88-13.37 303.88-18.20L303.88-31.64Q303.88-35.84 301.96-38.01Q300.03-40.18 295.20-40.18L291.28-40.18M366.84 0L334.08 0L334.08-8.82L345.84-8.82L345.84-40.18L334.08-40.18L334.08-49L366.84-49L366.84-40.18L355.08-40.18L355.08-8.82L366.84-8.82L366.84 0M405.30 0.98Q396.90 0.98 392.07-4.16Q387.24-9.31 387.24-19.04L387.24-29.96Q387.24-39.41 392.07-44.70Q396.90-49.98 405.30-49.98Q413.70-49.98 418.53-44.70Q423.36-39.41 423.36-29.96L423.36-19.04Q423.36-9.31 418.53-4.16Q413.70 0.98 405.30 0.98M405.30-7.42Q410.34-7.42 412.23-10.50Q414.12-13.58 414.12-18.48L414.12-30.52Q414.12-33.60 413.21-36.12Q412.30-38.64 410.38-40.11Q408.45-41.58 405.30-41.58Q402.15-41.58 400.19-40.11Q398.23-38.64 397.36-36.12Q396.48-33.60 396.48-30.52L396.48-18.48Q396.48-13.58 398.37-10.50Q400.26-7.42 405.30-7.42M460.28 0.98Q451.88 0.98 446.98-4.16Q442.08-9.31 442.08-19.04L442.08-29.96Q442.08-39.41 446.98-44.70Q451.88-49.98 460.28-49.98Q469.03-49.98 473.62-45.08Q478.20-40.18 478.20-31.78L478.20-30.52L468.96-30.52L468.96-31.78Q468.96-34.09 468.19-36.37Q467.42-38.64 465.53-40.11Q463.64-41.58 460.28-41.58Q457.20-41.58 455.21-40.08Q453.21-38.57 452.27-36.09Q451.32-33.60 451.32-30.66L451.32-18.34Q451.32-13.58 453.35-10.50Q455.38-7.42 460.28-7.42Q463.85-7.42 465.74-8.82Q467.63-10.22 468.30-12.46Q468.96-14.70 468.96-17.22L468.96-18.48L478.20-18.48L478.20-17.22Q478.20-8.54 473.62-3.78Q469.03 0.98 460.28 0.98M507.91 0L498.67 0L498.67-49L517.43-49Q522.47-49 525.90-47.18Q529.33-45.36 531.08-42.32Q532.83-39.27 532.83-35.49L532.83-33.81Q532.83-30.80 531.19-28.18Q529.54-25.55 526.25-24.15L526.25-22.89Q528.70-22.61 530.14-21Q531.57-19.39 531.57-16.94L531.57 0L522.33 0L522.33-14.70Q522.33-16.38 521.46-17.43Q520.58-18.48 518.55-18.48L507.91-18.48L507.91 0M507.91-40.18L507.91-27.30L516.73-27.30Q520.09-27.30 521.84-28.91Q523.59-30.52 523.59-33.32L523.59-34.16Q523.59-36.61 521.84-38.40Q520.09-40.18 516.73-40.18L507.91-40.18M559.11 0L549.45 0L561.14-49L578.50-49L590.19 0L580.53 0L578.15-10.50L561.49-10.50L559.11 0M569.19-44.38L563.45-19.32L576.12-19.32L570.45-44.38L569.19-44.38M624.80 0.98Q616.40 0.98 611.50-4.16Q606.60-9.31 606.60-19.04L606.60-29.96Q606.60-39.41 611.50-44.70Q616.40-49.98 624.80-49.98Q633.55-49.98 638.14-45.08Q642.72-40.18 642.72-31.78L642.72-30.52L633.48-30.52L633.48-31.78Q633.48-34.09 632.71-36.37Q631.94-38.64 630.05-40.11Q628.16-41.58 624.80-41.58Q621.72-41.58 619.73-40.08Q617.73-38.57 616.79-36.09Q615.84-33.60 615.84-30.66L615.84-18.34Q615.84-13.58 617.87-10.50Q619.90-7.42 624.80-7.42Q628.37-7.42 630.26-8.82Q632.15-10.22 632.82-12.46Q633.48-14.70 633.48-17.22L633.48-18.48L642.72-18.48L642.72-17.22Q642.72-8.54 638.14-3.78Q633.55 0.98 624.80 0.98M684.12 0L674.88 0L674.88-17.22L672.78-17.22L658.71-49L668.79-49L678.87-25.62L680.13-25.62L690.21-49L700.29-49L686.22-17.22L684.12-17.22L684.12 0M805.56 0L772.80 0L772.80-8.82L784.56-8.82L784.56-40.18L772.80-40.18L772.80-49L805.56-49L805.56-40.18L793.80-40.18L793.80-8.82L805.56-8.82L805.56 0M836.11 0L826.87 0L826.87-49L844.93-49L850.67-4.62L851.93-4.62L851.93-49L861.17-49L861.17 0L843.11 0L837.37-44.38L836.11-44.38L836.11 0M898.44 0L880.66 0L880.66-8.89L885.28-8.89L885.28-40.18L880.66-40.18L880.66-49L898.44-49Q907.47-49 911.92-44.73Q916.36-40.46 916.36-31.64L916.36-17.36Q916.36-8.54 911.92-4.27Q907.47 0 898.44 0M894.52-40.18L894.52-8.82L898.44-8.82Q903.27-8.82 905.20-11.10Q907.12-13.37 907.12-18.20L907.12-31.64Q907.12-35.84 905.20-38.01Q903.27-40.18 898.44-40.18L894.52-40.18M969.80 0L938.02 0L938.02-49L968.96-49L968.96-40.18L947.26-40.18L947.26-28.98L968.12-28.98L968.12-20.16L947.26-20.16L947.26-8.82L969.80-8.82L969.80 0M999.44 0L989.43 0L999.51-23.94L999.51-25.20L989.43-49L999.44-49L1007.70-28.98L1009.38-28.98L1017.64-49L1027.65-49L1017.57-25.20L1017.57-23.94L1027.65 0L1017.64 0L1009.38-20.16L1007.70-20.16" fill="#6c6c86"/>
  </g>
</svg>
