<svg xmlns="http://www.w3.org/2000/svg" viewBox="0 0 3000 3600">
  <circle cx="1230" cy="582" r="55" fill="#ff2e63"/>
  <rect x="700" y="2860" width="1600" height="12" fill="#0a0a0f"/>
  <g transform="translate(1329.05, 645)">
    <path d="M30.75 0L10.95 0L10.95-105L51.15-105Q61.95-105 69.30-101.10Q76.65-97.20 80.40-90.67Q84.15-84.15 84.15-76.05L84.15-72.45Q84.15-66 80.63-60.37Q77.10-54.75 70.05-51.75L70.05-49.05Q75.30-48.45 78.38-45Q81.45-41.55 81.45-36.30L81.45 0L61.65 0L61.65-31.50Q61.65-35.10 59.77-37.35Q57.90-39.60 53.55-39.60L30.75-39.60L30.75 0M30.75-86.10L30.75-58.50L49.65-58.50Q56.85-58.50 60.60-61.95Q64.35-65.40 64.35-71.40L64.35-73.20Q64.35-78.45 60.60-82.27Q56.85-86.10 49.65-86.10L30.75-86.10M190.20 0L122.10 0L122.10-105L188.40-105L188.40-86.10L141.90-86.10L141.90-62.10L186.60-62.10L186.60-43.20L141.90-43.20L141.90-18.90L190.20-18.90L190.20 0M265.80 2.10Q247.80 2.10 237.30-8.92Q226.80-19.95 226.80-40.80L226.80-64.20Q226.80-84.45 237.30-95.77Q247.80-107.10 265.80-107.10Q284.55-107.10 294.38-96.60Q304.20-86.10 304.20-68.10L304.20-65.40L284.40-65.40L284.40-68.10Q284.40-73.05 282.75-77.92Q281.10-82.80 277.05-85.95Q273-89.10 265.80-89.10Q259.20-89.10 254.92-85.87Q250.65-82.65 248.63-77.33Q246.60-72 246.60-65.70L246.60-39.30Q246.60-29.10 250.95-22.50Q255.30-15.90 265.80-15.90Q273.45-15.90 277.50-18.90Q281.55-21.90 282.98-26.70Q284.40-31.50 284.40-36.90L284.40-39.60L304.20-39.60L304.20-36.90Q304.20-18.30 294.38-8.10Q284.55 2.10 265.80 2.10" fill="#0a0a0f"/>
  </g>
  <g transform="translate(408.09, 1500)">
    <path d="M109.92 0L16.95 0L16.95-481.25L109.92-481.25L109.92 0M283.27 0L154.20 0L154.20-481.25L286.55-481.25Q338.50-481.25 364.75-452.40Q391-423.55 391-368.05L391-142.73Q391-74.37 367.07-37.19Q343.15 0 283.27 0M251-397.03L251-85.04L267.68-85.04Q294.20-85.04 294.20-110.74L294.20-359.02Q294.20-383.09 287.78-390.06Q281.35-397.03 261.66-397.03L251-397.03M524.97 0L432 0L432-481.25L524.97-481.25L524.97 0M684.09 4.38Q626.40 4.38 595.91-30.49Q565.42-65.35 565.42-131.25L565.42-359.84Q565.42-421.64 595.64-453.63Q625.85-485.62 684.09-485.62Q742.34-485.62 772.55-453.63Q802.77-421.64 802.77-359.84L802.77-131.25Q802.77-65.35 772.28-30.49Q741.79 4.38 684.09 4.38M684.91-84.22Q706.79-84.22 706.79-126.60L706.79-361.48Q706.79-397.03 685.46-397.03Q661.40-397.03 661.40-360.66L661.40-126.05Q661.40-103.63 666.87-93.93Q672.34-84.22 684.91-84.22M959.70 4.38Q907.48 4.38 875.62-28.16Q843.77-60.70 843.77-119.22L843.77-341.25Q843.77-411.25 871.52-448.44Q899.27-485.62 961.89-485.62Q996.07-485.62 1022.73-473.05Q1049.39-460.47 1064.70-435.45Q1080.02-410.43 1080.02-372.42L1080.02-289.30L984.31-289.30L984.31-360.39Q984.31-381.99 978.84-389.51Q973.38-397.03 961.89-397.03Q948.49-397.03 943.84-387.32Q939.20-377.62 939.20-361.48L939.20-120.59Q939.20-100.62 945.07-92.42Q950.95-84.22 961.89-84.22Q974.20-84.22 979.25-94.34Q984.31-104.45 984.31-120.59L984.31-207.27L1081.11-207.27L1081.11-116.21Q1081.11-52.77 1049.12-24.20Q1017.13 4.38 959.70 4.38M1216.45 0L1119.10 0L1119.10-481.25L1266.76-481.25Q1303.67-481.25 1322.54-464.43Q1341.41-447.62 1347.83-417.40Q1354.26-387.19 1354.26-346.45Q1354.26-307.07 1344.28-283.55Q1334.30-260.04 1306.68-251.02Q1329.38-246.37 1338.54-228.46Q1347.70-210.55 1347.70-182.11L1347.70 0L1252.81 0L1252.81-188.40Q1252.81-209.45 1244.20-214.51Q1235.59-219.57 1216.45-219.57L1216.45 0M1216.99-392.11L1216.99-302.97L1240.23-302.97Q1260.20-302.97 1260.20-346.45Q1260.20-374.61 1255.82-383.36Q1251.45-392.11 1239.41-392.11L1216.99-392.11M1472.37 0L1378.85 0L1425.34-481.25L1588.58-481.25L1634.24 0L1543.19 0L1536.35-77.66L1478.38-77.66L1472.37 0M1503.54-399.22L1485.22-154.49L1528.97-154.49L1507.91-399.22L1503.54-399.22M1781.88 4.38Q1729.66 4.38 1697.80-28.16Q1665.95-60.70 1665.95-119.22L1665.95-341.25Q1665.95-411.25 1693.70-448.44Q1721.45-485.62 1784.07-485.62Q1818.25-485.62 1844.91-473.05Q1871.57-460.47 1886.88-435.45Q1902.20-410.43 1902.20-372.42L1902.20-289.30L1806.49-289.30L1806.49-360.39Q1806.49-381.99 1801.02-389.51Q1795.55-397.03 1784.07-397.03Q1770.67-397.03 1766.02-387.32Q1761.38-377.62 1761.38-361.48L1761.38-120.59Q1761.38-100.62 1767.25-92.42Q1773.13-84.22 1784.07-84.22Q1796.38-84.22 1801.43-94.34Q1806.49-104.45 1806.49-120.59L1806.49-207.27L1903.29-207.27L1903.29-116.21Q1903.29-52.77 1871.30-24.20Q1839.30 4.38 1781.88 4.38M2090.30 0L1999.52 0L1999.52-158.32L1922.69-481.25L2018.12-481.25L2044.91-318.28L2071.71-481.25L2166.87-481.25L2090.30-158.32" fill="#0a0a0f"/>
  </g>
  <g transform="translate(822.45, 2120)">
    <path d="M176.37 0L59.06 0L7.38-481.25L101.45-481.25L127.97-177.46L155.04-481.25L244.73-481.25L270.43-177.46L296.13-481.25L391.29-481.25L338.79 0L223.40 0L199.34-231.60L176.37 0M506.39 0L412.88 0L459.36-481.25L622.60-481.25L668.27 0L577.21 0L570.38-77.66L512.41-77.66L506.39 0M537.56-399.22L519.24-154.49L562.99-154.49L541.94-399.22L537.56-399.22M818.09 4.38Q752.20 4.38 723.07-28.44Q693.95-61.25 693.95-132.89L693.95-179.92L789.11-179.92L789.11-119.77Q789.11-103.09 794.17-93.65Q799.23-84.22 811.80-84.22Q824.93-84.22 829.99-91.87Q835.05-99.53 835.05-117.03Q835.05-139.18 830.67-154.08Q826.30-168.98 815.50-182.52Q804.70-196.05 785.55-214.10L742.35-255.12Q693.95-300.78 693.95-359.57Q693.95-421.09 722.53-453.36Q751.10-485.62 805.24-485.62Q871.41-485.62 899.17-450.35Q926.92-415.08 926.92-343.16L829.03-343.16L829.03-376.25Q829.03-386.09 823.43-391.56Q817.82-397.03 808.25-397.03Q796.77-397.03 791.43-390.61Q786.10-384.18 786.10-374.06Q786.10-363.95 791.57-352.19Q797.04-340.43 813.17-325.12L868.68-271.80Q885.36-255.94 899.30-238.30Q913.25-220.66 921.73-197.29Q930.20-173.91 930.20-140.27Q930.20-72.46 905.18-34.04Q880.16 4.38 818.09 4.38M1185.84 0L1092.32 0L1138.80-481.25L1302.05-481.25L1347.71 0L1256.66 0L1249.82-77.66L1191.85-77.66L1185.84 0M1217.01-399.22L1198.69-154.49L1242.44-154.49L1221.38-399.22" fill="#0a0a0f"/>
  </g>
  <g transform="translate(314.82, 2740)">
    <path d="M115.48 0L16.38 0L16.38-369.53L118-369.53Q157.89-369.53 178.05-347.38Q198.20-325.23 198.20-282.61L198.20-109.60Q198.20-57.11 179.83-28.55Q161.46 0 115.48 0M90.70-304.86L90.70-65.30L103.51-65.30Q123.88-65.30 123.88-85.03L123.88-275.68Q123.88-294.16 118.94-299.51Q114.01-304.86 98.89-304.86L90.70-304.86M320.62 3.36Q276.32 3.36 252.91-23.41Q229.50-50.18 229.50-100.78L229.50-276.31Q229.50-323.76 252.70-348.33Q275.90-372.89 320.62-372.89Q365.34-372.89 388.54-348.33Q411.74-323.76 411.74-276.31L411.74-100.78Q411.74-50.18 388.33-23.41Q364.92 3.36 320.62 3.36M321.25-64.67Q338.05-64.67 338.05-97.21L338.05-277.57Q338.05-304.86 321.67-304.86Q303.19-304.86 303.19-276.94L303.19-96.79Q303.19-79.58 307.39-72.12Q311.59-64.67 321.25-64.67M531.64 3.36Q491.54 3.36 467.08-21.63Q442.62-46.61 442.62-91.54L442.62-262.03Q442.62-315.78 463.93-344.34Q485.24-372.89 533.32-372.89Q559.57-372.89 580.04-363.23Q600.51-353.57 612.27-334.36Q624.03-315.15 624.03-285.97L624.03-222.14L550.54-222.14L550.54-276.73Q550.54-293.32 546.34-299.09Q542.14-304.86 533.32-304.86Q523.03-304.86 519.46-297.41Q515.90-289.96 515.90-277.57L515.90-92.59Q515.90-77.27 520.41-70.97Q524.92-64.67 533.32-64.67Q542.77-64.67 546.65-72.44Q550.54-80.21 550.54-92.59L550.54-159.15L624.87-159.15L624.87-89.23Q624.87-40.52 600.30-18.58Q575.73 3.36 531.64 3.36M738.88 3.36Q692.69 3.36 670.86-22.57Q649.02-48.50 649.02-98.89L649.02-369.53L720.83-369.53L720.83-101.83Q720.83-92.59 721.88-84.09Q722.93-75.59 726.71-70.13Q730.49-64.67 738.88-64.67Q747.49-64.67 751.27-70.02Q755.05-75.38 756-83.98Q756.94-92.59 756.94-101.83L756.94-369.53L828.75-369.53L828.75-98.89Q828.75-48.50 806.91-22.57Q785.08 3.36 738.88 3.36M927.86 0L861.09 0L861.09-369.53L973.63-369.53L1004.71-144.24L1035.57-369.53L1149.16-369.53L1149.16 0L1081.55 0L1081.55-266.23L1039.14 0L972.79 0L927.86-266.23L927.86 0M1338.55 0L1185.91 0L1185.91-369.53L1333.73-369.53L1333.73-298.14L1261.08-298.14L1261.08-226.13L1330.79-226.13L1330.79-156.63L1261.08-156.63L1261.08-72.02L1338.55-72.02L1338.55 0M1439.14 0L1366.91 0L1366.91-369.53L1442.92-369.53L1476.93-192.53L1476.93-369.53L1548.32-369.53L1548.32 0L1476.09 0L1439.14-184.77L1439.14 0M1690.68 0L1616.77 0L1616.77-298.56L1572.89-298.56L1572.89-369.53L1734.56-369.53L1734.56-298.56L1690.68-298.56L1690.68 0M1820.87 0L1749.06 0L1784.75-369.53L1910.10-369.53L1945.16 0L1875.25 0L1870-59.63L1825.49-59.63L1820.87 0M1844.80-306.54L1830.74-118.63L1864.33-118.63L1848.16-306.54L1844.80-306.54M2046.59 0L1971.84 0L1971.84-369.53L2085.22-369.53Q2113.56-369.53 2128.05-356.62Q2142.54-343.71 2147.47-320.51Q2152.41-297.30 2152.41-266.02Q2152.41-235.79 2144.74-217.73Q2137.08-199.67 2115.87-192.74Q2133.30-189.17 2140.33-175.42Q2147.37-161.67 2147.37-139.83L2147.37 0L2074.51 0L2074.51-144.66Q2074.51-160.83 2067.90-164.71Q2061.28-168.60 2046.59-168.60L2046.59 0M2047.01-301.08L2047.01-232.64L2064.85-232.64Q2080.18-232.64 2080.18-266.02Q2080.18-287.65 2076.82-294.37Q2073.46-301.08 2064.22-301.08L2047.01-301.08M2295.19 0L2225.48 0L2225.48-121.57L2166.48-369.53L2239.76-369.53L2260.34-244.39L2280.91-369.53L2353.98-369.53L2295.19-121.57" fill="#ffffff" stroke="#0a0a0f" stroke-width="10" stroke-linejoin="round"/>
  </g>
</svg>
