<svg xmlns="http://www.w3.org/2000/svg" viewBox="0 0 3000 3600">
  <circle cx="1230" cy="582" r="55" fill="#ff2e63"/>
  <rect x="700" y="2860" width="1600" height="12" fill="#0a0a0f"/>
  <path d="M1370.75 645L1350.95 645L1350.95 540L1391.15 540Q1401.95 540 1409.30 543.90Q1416.65 547.80 1420.40 554.33Q1424.15 560.85 1424.15 568.95L1424.15 572.55Q1424.15 579 1420.63 584.63Q1417.10 590.25 1410.05 593.25L1410.05 595.95Q1415.30 596.55 1418.38 600Q1421.45 603.45 1421.45 608.70L1421.45 645L1401.65 645L1401.65 613.50Q1401.65 609.90 1399.78 607.65Q1397.90 605.40 1393.55 605.40L1370.75 605.40L1370.75 645M1370.75 558.90L1370.75 586.50L1389.65 586.50Q1396.85 586.50 1400.60 583.05Q1404.35 579.60 1404.35 573.60L1404.35 571.80Q1404.35 566.55 1400.60 562.73Q1396.85 558.90 1389.65 558.90 M1530.20 645L1462.10 645L1462.10 540L1528.40 540L1528.40 558.90L1481.90 558.90L1481.90 582.90L1526.60 582.90L1526.60 601.80L1481.90 601.80L1481.90 626.10L1530.20 626.10 M1605.80 647.10Q1587.80 647.10 1577.30 636.08Q1566.80 625.05 1566.80 604.20L1566.80 580.80Q1566.80 560.55 1577.30 549.23Q1587.80 537.90 1605.80 537.90Q1624.55 537.90 1634.38 548.40Q1644.20 558.90 1644.20 576.90L1644.20 579.60L1624.40 579.60L1624.40 576.90Q1624.40 571.95 1622.75 567.08Q1621.10 562.20 1617.05 559.05Q1613 555.90 1605.80 555.90Q1599.20 555.90 1594.92 559.13Q1590.65 562.35 1588.63 567.67Q1586.60 573 1586.60 579.30L1586.60 605.70Q1586.60 615.90 1590.95 622.50Q1595.30 629.10 1605.80 629.10Q1613.45 629.10 1617.50 626.10Q1621.55 623.10 1622.97 618.30Q1624.40 613.50 1624.40 608.10L1624.40 605.40L1644.20 605.40L1644.20 608.10Q1644.20 626.70 1634.38 636.90Q1624.55 647.10 1605.80 647.10" fill="#0a0a0f"/>
  <path d="M524.98 1500L432.02 1500L432.02 1018.75L524.98 1018.75 M698.33 1500L569.27 1500L569.27 1018.75L701.61 1018.75Q753.56 1018.75 779.81 1047.60Q806.06 1076.45 806.06 1131.95L806.06 1357.27Q806.06 1425.63 782.14 1462.81Q758.21 1500 698.33 1500M666.06 1102.97L666.06 1414.96L682.74 1414.96Q709.27 1414.96 709.27 1389.26L709.27 1140.98Q709.27 1116.91 702.84 1109.94Q696.41 1102.97 676.73 1102.97 M940.03 1500L847.06 1500L847.06 1018.75L940.03 1018.75 M1099.16 1504.38Q1041.46 1504.38 1010.97 1469.51Q980.48 1434.65 980.48 1368.75L980.48 1140.16Q980.48 1078.36 1010.70 1046.37Q1040.91 1014.38 1099.16 1014.38Q1157.40 1014.38 1187.61 1046.37Q1217.83 1078.36 1217.83 1140.16L1217.83 1368.75Q1217.83 1434.65 1187.34 1469.51Q1156.85 1504.38 1099.16 1504.38M1099.98 1415.78Q1121.85 1415.78 1121.85 1373.40L1121.85 1138.52Q1121.85 1102.97 1100.52 1102.97Q1076.46 1102.97 1076.46 1139.34L1076.46 1373.95Q1076.46 1396.37 1081.93 1406.07Q1087.40 1415.78 1099.98 1415.78 M1374.77 1504.38Q1322.54 1504.38 1290.68 1471.84Q1258.83 1439.30 1258.83 1380.78L1258.83 1158.75Q1258.83 1088.75 1286.58 1051.56Q1314.34 1014.38 1376.95 1014.38Q1411.13 1014.38 1437.79 1026.95Q1464.45 1039.53 1479.77 1064.55Q1495.08 1089.57 1495.08 1127.58L1495.08 1210.70L1399.38 1210.70L1399.38 1139.61Q1399.38 1118.01 1393.91 1110.49Q1388.44 1102.97 1376.95 1102.97Q1363.55 1102.97 1358.91 1112.68Q1354.26 1122.38 1354.26 1138.52L1354.26 1379.41Q1354.26 1399.38 1360.14 1407.58Q1366.02 1415.78 1376.95 1415.78Q1389.26 1415.78 1394.32 1405.66Q1399.38 1395.55 1399.38 1379.41L1399.38 1292.73L1496.17 1292.73L1496.17 1383.79Q1496.17 1447.23 1464.18 1475.80Q1432.19 1504.38 1374.77 1504.38 M1631.51 1500L1534.16 1500L1534.16 1018.75L1681.82 1018.75Q1718.73 1018.75 1737.60 1035.57Q1756.47 1052.38 1762.89 1082.60Q1769.32 1112.81 1769.32 1153.55Q1769.32 1192.93 1759.34 1216.45Q1749.36 1239.96 1721.74 1248.98Q1744.44 1253.63 1753.60 1271.54Q1762.76 1289.45 1762.76 1317.89L1762.76 1500L1667.88 1500L1667.88 1311.60Q1667.88 1290.55 1659.26 1285.49Q1650.65 1280.43 1631.51 1280.43L1631.51 1500M1632.05 1107.89L1632.05 1197.03L1655.30 1197.03Q1675.26 1197.03 1675.26 1153.55Q1675.26 1125.39 1670.88 1116.64Q1666.51 1107.89 1654.48 1107.89 M1887.43 1500L1793.91 1500L1840.40 1018.75L2003.64 1018.75L2049.30 1500L1958.25 1500L1951.41 1422.34L1893.45 1422.34L1887.43 1500M1918.60 1100.78L1900.28 1345.51L1944.03 1345.51L1922.98 1100.78 M2196.95 1504.38Q2144.72 1504.38 2112.86 1471.84Q2081.01 1439.30 2081.01 1380.78L2081.01 1158.75Q2081.01 1088.75 2108.76 1051.56Q2136.52 1014.38 2199.13 1014.38Q2233.31 1014.38 2259.97 1026.95Q2286.63 1039.53 2301.95 1064.55Q2317.26 1089.57 2317.26 1127.58L2317.26 1210.70L2221.55 1210.70L2221.55 1139.61Q2221.55 1118.01 2216.09 1110.49Q2210.62 1102.97 2199.13 1102.97Q2185.73 1102.97 2181.09 1112.68Q2176.44 1122.38 2176.44 1138.52L2176.44 1379.41Q2176.44 1399.38 2182.32 1407.58Q2188.20 1415.78 2199.13 1415.78Q2211.44 1415.78 2216.50 1405.66Q2221.55 1395.55 2221.55 1379.41L2221.55 1292.73L2318.35 1292.73L2318.35 1383.79Q2318.35 1447.23 2286.36 1475.80Q2254.37 1504.38 2196.95 1504.38 M2505.37 1500L2414.59 1500L2414.59 1341.68L2337.75 1018.75L2433.18 1018.75L2459.98 1181.72L2486.77 1018.75L2581.93 1018.75L2505.37 1341.68" fill="#0a0a0f"/>
  <path d="M998.41 2120L881.11 2120L829.43 1638.75L923.49 1638.75L950.01 1942.54L977.08 1638.75L1066.77 1638.75L1092.47 1942.54L1118.18 1638.75L1213.33 1638.75L1160.83 2120L1045.44 2120L1021.38 1888.40 M1328.43 2120L1234.92 2120L1281.40 1638.75L1444.64 1638.75L1490.31 2120L1399.25 2120L1392.42 2042.34L1334.45 2042.34L1328.43 2120M1359.61 1720.78L1341.29 1965.51L1385.04 1965.51L1363.98 1720.78 M1640.14 2124.38Q1574.24 2124.38 1545.12 2091.56Q1516 2058.75 1516 1987.11L1516 1940.08L1611.15 1940.08L1611.15 2000.23Q1611.15 2016.91 1616.21 2026.35Q1621.27 2035.78 1633.85 2035.78Q1646.97 2035.78 1652.03 2028.13Q1657.09 2020.47 1657.09 2002.97Q1657.09 1980.82 1652.71 1965.92Q1648.34 1951.02 1637.54 1937.48Q1626.74 1923.95 1607.60 1905.90L1564.39 1864.88Q1516 1819.22 1516 1760.43Q1516 1698.91 1544.57 1666.64Q1573.14 1634.38 1627.29 1634.38Q1693.46 1634.38 1721.21 1669.65Q1748.96 1704.92 1748.96 1776.84L1651.07 1776.84L1651.07 1743.75Q1651.07 1733.91 1645.47 1728.44Q1639.86 1722.97 1630.29 1722.97Q1618.81 1722.97 1613.48 1729.39Q1608.14 1735.82 1608.14 1745.94Q1608.14 1756.05 1613.61 1767.81Q1619.08 1779.57 1635.21 1794.88L1690.72 1848.20Q1707.40 1864.06 1721.35 1881.70Q1735.29 1899.34 1743.77 1922.71Q1752.25 1946.09 1752.25 1979.73Q1752.25 2047.54 1727.23 2085.96Q1702.21 2124.38 1640.14 2124.38  M2007.88 2120L1914.36 2120L1960.85 1638.75L2124.09 1638.75L2169.75 2120L2078.70 2120L2071.86 2042.34L2013.89 2042.34L2007.88 2120M2039.05 1720.78L2020.73 1965.51L2064.48 1965.51L2043.43 1720.78" fill="#0a0a0f"/>
  <path d="M437.33 2740L338.23 2740L338.23 2370.47L439.85 2370.47Q479.75 2370.47 499.90 2392.62Q520.06 2414.77 520.06 2457.39L520.06 2630.40Q520.06 2682.89 501.69 2711.45Q483.32 2740 437.33 2740M412.56 2435.14L412.56 2674.70L425.37 2674.70Q445.73 2674.70 445.73 2654.97L445.73 2464.32Q445.73 2445.84 440.80 2440.49Q435.86 2435.14 420.75 2435.14 M642.48 2743.36Q598.17 2743.36 574.76 2716.59Q551.35 2689.82 551.35 2639.22L551.35 2463.69Q551.35 2416.24 574.55 2391.67Q597.75 2367.11 642.48 2367.11Q687.20 2367.11 710.40 2391.67Q733.60 2416.24 733.60 2463.69L733.60 2639.22Q733.60 2689.82 710.19 2716.59Q686.78 2743.36 642.48 2743.36M643.11 2675.33Q659.90 2675.33 659.90 2642.79L659.90 2462.43Q659.90 2435.14 643.53 2435.14Q625.05 2435.14 625.05 2463.06L625.05 2643.21Q625.05 2660.42 629.25 2667.88Q633.45 2675.33 643.11 2675.33 M853.50 2743.36Q813.40 2743.36 788.94 2718.37Q764.47 2693.39 764.47 2648.46L764.47 2477.97Q764.47 2424.22 785.79 2395.66Q807.10 2367.11 855.18 2367.11Q881.42 2367.11 901.89 2376.77Q922.37 2386.43 934.12 2405.64Q945.88 2424.85 945.88 2454.03L945.88 2517.86L872.39 2517.86L872.39 2463.27Q872.39 2446.68 868.20 2440.91Q864 2435.14 855.18 2435.14Q844.89 2435.14 841.32 2442.59Q837.75 2450.04 837.75 2462.43L837.75 2647.41Q837.75 2662.73 842.27 2669.03Q846.78 2675.33 855.18 2675.33Q864.63 2675.33 868.51 2667.56Q872.39 2659.79 872.39 2647.41L872.39 2580.85L946.72 2580.85L946.72 2650.77Q946.72 2699.48 922.16 2721.42Q897.59 2743.36 853.50 2743.36 M1060.74 2743.36Q1014.55 2743.36 992.71 2717.43Q970.88 2691.50 970.88 2641.11L970.88 2370.47L1042.68 2370.47L1042.68 2638.17Q1042.68 2647.41 1043.73 2655.91Q1044.78 2664.41 1048.56 2669.87Q1052.34 2675.33 1060.74 2675.33Q1069.35 2675.33 1073.13 2669.98Q1076.91 2664.62 1077.85 2656.02Q1078.80 2647.41 1078.80 2638.17L1078.80 2370.47L1150.60 2370.47L1150.60 2641.11Q1150.60 2691.50 1128.77 2717.43Q1106.93 2743.36 1060.74 2743.36 M1249.72 2740L1182.95 2740L1182.95 2370.47L1295.49 2370.47L1326.56 2595.76L1357.43 2370.47L1471.01 2370.47L1471.01 2740L1403.41 2740L1403.41 2473.77L1361 2740L1294.65 2740L1249.72 2473.77 M1660.41 2740L1507.77 2740L1507.77 2370.47L1655.58 2370.47L1655.58 2441.86L1582.93 2441.86L1582.93 2513.87L1652.64 2513.87L1652.64 2583.37L1582.93 2583.37L1582.93 2667.98L1660.41 2667.98 M1760.99 2740L1688.77 2740L1688.77 2370.47L1764.77 2370.47L1798.79 2547.47L1798.79 2370.47L1870.17 2370.47L1870.17 2740L1797.95 2740L1760.99 2555.23 M2012.54 2740L1938.63 2740L1938.63 2441.44L1894.75 2441.44L1894.75 2370.47L2056.42 2370.47L2056.42 2441.44L2012.54 2441.44 M2142.72 2740L2070.92 2740L2106.61 2370.47L2231.96 2370.47L2267.02 2740L2197.10 2740L2191.85 2680.37L2147.34 2680.37L2142.72 2740M2166.66 2433.46L2152.59 2621.37L2186.18 2621.37L2170.02 2433.46 M2368.44 2740L2293.70 2740L2293.70 2370.47L2407.07 2370.47Q2435.42 2370.47 2449.91 2383.38Q2464.39 2396.29 2469.33 2419.49Q2474.26 2442.70 2474.26 2473.98Q2474.26 2504.21 2466.60 2522.27Q2458.93 2540.33 2437.73 2547.26Q2455.16 2550.83 2462.19 2564.58Q2469.22 2578.33 2469.22 2600.17L2469.22 2740L2396.37 2740L2396.37 2595.34Q2396.37 2579.17 2389.75 2575.29Q2383.14 2571.40 2368.44 2571.40L2368.44 2740M2368.86 2438.92L2368.86 2507.36L2386.71 2507.36Q2402.04 2507.36 2402.04 2473.98Q2402.04 2452.35 2398.68 2445.63Q2395.32 2438.92 2386.08 2438.92 M2617.05 2740L2547.34 2740L2547.34 2618.43L2488.34 2370.47L2561.62 2370.47L2582.19 2495.61L2602.77 2370.47L2675.83 2370.47L2617.05 2618.43" fill="#ffffff" stroke="#0a0a0f" stroke-width="10" stroke-linejoin="round"/>
</svg>
