<svg xmlns="http://www.w3.org/2000/svg" viewBox="0 0 2700 1155">
  <path d="M1059.07 320L1020.89 320L1020.89 122.34L1059.07 122.34 M1101.64 193.77L1081.87 193.77L1070.64 122.34L1110.17 122.34 M1196.09 320L1142.18 320L1117.81 122.23L1155.43 122.23L1169.92 256.77L1182.83 122.23L1220.46 122.23 M1313.56 320L1231.91 320L1231.91 122.34L1310.97 122.34L1310.97 160.53L1272.12 160.53L1272.12 199.05L1309.40 199.05L1309.40 236.22L1272.12 236.22L1272.12 281.48L1313.56 281.48  M1421.26 321.80Q1378.92 321.80 1378.92 261.15L1378.92 175.91Q1378.92 120.55 1427.43 120.55Q1447.42 120.55 1458.09 128.58Q1468.76 136.61 1472.81 151.99Q1476.85 167.38 1476.85 189.50L1438.22 189.50L1438.22 171.98Q1438.22 165.58 1436.47 161.26Q1434.73 156.93 1429.23 156.93Q1422.38 156.93 1420.19 161.54Q1418 166.14 1418 171.65L1418 267.44Q1418 275.42 1420.08 280.41Q1422.16 285.41 1428.22 285.41Q1434.51 285.41 1436.59 280.41Q1438.66 275.42 1438.66 267.22L1438.66 239.03L1428.11 239.03L1428.11 204.89L1476.40 204.89L1476.40 320L1460.56 320L1453.83 303.38Q1443.49 321.80 1421.26 321.80 M1539.18 321.80Q1515.48 321.80 1502.96 307.48Q1490.44 293.16 1490.44 266.09L1490.44 172.21Q1490.44 146.83 1502.85 133.69Q1515.26 120.55 1539.18 120.55Q1563.10 120.55 1575.51 133.69Q1587.92 146.83 1587.92 172.21L1587.92 266.09Q1587.92 293.16 1575.40 307.48Q1562.87 321.80 1539.18 321.80M1539.51 285.41Q1548.50 285.41 1548.50 268L1548.50 171.53Q1548.50 156.93 1539.74 156.93Q1529.86 156.93 1529.86 171.87L1529.86 268.23Q1529.86 277.44 1532.10 281.42Q1534.35 285.41 1539.51 285.41 M1660.35 320L1620.82 320L1620.82 160.30L1597.35 160.30L1597.35 122.34L1683.83 122.34L1683.83 160.30L1660.35 160.30" fill="#0a0a0f"/>
  <path d="M561.71 680L433.92 680L433.92 370.63L557.67 370.63L557.67 430.39L496.85 430.39L496.85 490.68L555.21 490.68L555.21 548.87L496.85 548.87L496.85 619.71L561.71 619.71 M707.61 680L582.10 680L582.10 370.63L643.97 370.63L643.97 627.27L707.61 627.27 M852.98 680L725.19 680L725.19 370.63L848.94 370.63L848.94 430.39L788.12 430.39L788.12 490.68L846.47 490.68L846.47 548.87L788.12 548.87L788.12 619.71L852.98 619.71 M945.44 682.81Q911.87 682.81 891.39 661.89Q870.91 640.98 870.91 603.36L870.91 460.63Q870.91 415.63 888.75 391.72Q906.59 367.81 946.85 367.81Q968.82 367.81 985.96 375.90Q1003.10 383.98 1012.94 400.07Q1022.78 416.15 1022.78 440.59L1022.78 494.02L961.26 494.02L961.26 448.32Q961.26 434.43 957.74 429.60Q954.23 424.77 946.85 424.77Q938.23 424.77 935.24 431.01Q932.26 437.25 932.26 447.62L932.26 602.48Q932.26 615.31 936.04 620.59Q939.81 625.86 946.85 625.86Q954.76 625.86 958.01 619.36Q961.26 612.85 961.26 602.48L961.26 546.76L1023.49 546.76L1023.49 605.29Q1023.49 646.07 1002.92 664.44Q982.35 682.81 945.44 682.81 M1132.47 680L1070.60 680L1070.60 430.04L1033.86 430.04L1033.86 370.63L1169.21 370.63L1169.21 430.04L1132.47 430.04 M1249.01 680L1186.44 680L1186.44 370.63L1281.36 370.63Q1305.09 370.63 1317.22 381.44Q1329.35 392.25 1333.48 411.67Q1337.61 431.09 1337.61 457.29Q1337.61 482.60 1331.19 497.71Q1324.78 512.83 1307.02 518.63Q1321.61 521.62 1327.50 533.13Q1333.39 544.65 1333.39 562.93L1333.39 680L1272.39 680L1272.39 558.89Q1272.39 545.35 1266.86 542.10Q1261.32 538.85 1249.01 538.85L1249.01 680M1249.37 427.93L1249.37 485.23L1264.31 485.23Q1277.14 485.23 1277.14 457.29Q1277.14 439.18 1274.33 433.55Q1271.51 427.93 1263.78 427.93 M1431.83 682.81Q1394.74 682.81 1375.14 660.40Q1355.54 637.99 1355.54 595.63L1355.54 448.67Q1355.54 408.95 1374.96 388.38Q1394.38 367.81 1431.83 367.81Q1469.27 367.81 1488.69 388.38Q1508.12 408.95 1508.12 448.67L1508.12 595.63Q1508.12 637.99 1488.52 660.40Q1468.92 682.81 1431.83 682.81M1432.35 625.86Q1446.42 625.86 1446.42 598.61L1446.42 447.62Q1446.42 424.77 1432.71 424.77Q1417.24 424.77 1417.24 448.14L1417.24 598.96Q1417.24 613.38 1420.75 619.62Q1424.27 625.86 1432.35 625.86 M1658.58 680L1533.08 680L1533.08 370.63L1594.95 370.63L1594.95 627.27L1658.58 627.27 M1771.96 680L1713.60 680L1713.60 578.22L1664.21 370.63L1725.56 370.63L1742.78 475.39L1760.01 370.63L1821.18 370.63L1771.96 578.22 M1925.24 680L1863.37 680L1863.37 430.04L1826.63 430.04L1826.63 370.63L1961.98 370.63L1961.98 430.04L1925.24 430.04 M2107 680L1979.21 680L1979.21 370.63L2102.96 370.63L2102.96 430.39L2042.14 430.39L2042.14 490.68L2100.50 490.68L2100.50 548.87L2042.14 548.87L2042.14 619.71L2107 619.71 M2200.87 682.81Q2158.51 682.81 2139.79 661.72Q2121.06 640.63 2121.06 594.57L2121.06 564.34L2182.24 564.34L2182.24 603.01Q2182.24 613.73 2185.49 619.79Q2188.74 625.86 2196.83 625.86Q2205.26 625.86 2208.52 620.94Q2211.77 616.02 2211.77 604.77Q2211.77 590.53 2208.96 580.95Q2206.14 571.37 2199.20 562.67Q2192.26 553.96 2179.95 542.36L2152.18 516Q2121.06 486.64 2121.06 448.85Q2121.06 409.30 2139.43 388.55Q2157.80 367.81 2192.61 367.81Q2235.15 367.81 2252.99 390.49Q2270.83 413.16 2270.83 459.39L2207.90 459.39L2207.90 438.13Q2207.90 431.80 2204.30 428.28Q2200.69 424.77 2194.54 424.77Q2187.16 424.77 2183.73 428.90Q2180.30 433.03 2180.30 439.53Q2180.30 446.04 2183.82 453.59Q2187.33 461.15 2197.71 471L2233.39 505.27Q2244.11 515.47 2253.08 526.81Q2262.04 538.14 2267.49 553.17Q2272.94 568.20 2272.94 589.82Q2272.94 633.42 2256.86 658.12Q2240.77 682.81 2200.87 682.81" fill="#7bb800"/>
  <path d="M869.74 920.28L864.28 920.28Q854.66 920.28 846.08 917.49Q837.50 914.69 830.87 908.77Q824.24 902.86 820.47 893.63Q816.70 884.40 816.70 871.66L816.70 837.34Q816.70 824.60 820.47 815.37Q824.24 806.14 830.87 800.23Q837.50 794.31 846.08 791.51Q854.66 788.72 864.28 788.72L869.74 788.72L869.74 805.10L865.06 805.10Q856.09 805.10 849.01 808.41Q841.92 811.73 837.76 819.08Q833.60 826.42 833.60 838.38L833.60 870.62Q833.60 882.58 837.76 889.92Q841.92 897.27 849.01 900.59Q856.09 903.90 865.06 903.90L869.74 903.90  M1009.28 900L992.12 900L992.12 809L1027.74 809Q1037.10 809 1043.28 812.84Q1049.45 816.67 1052.51 822.72Q1055.56 828.76 1055.56 835.39L1055.56 838.51Q1055.56 845.27 1052.51 851.51Q1049.45 857.75 1043.28 861.72Q1037.10 865.68 1027.74 865.68L1009.28 865.68L1009.28 900M1009.28 825.38L1009.28 849.30L1026.05 849.30Q1031.77 849.30 1035.09 846.18Q1038.40 843.06 1038.40 838.12L1038.40 836.56Q1038.40 831.62 1035.09 828.50Q1031.77 825.38 1026.05 825.38 M1102.97 900L1085.81 900L1085.81 809L1120.65 809Q1130.01 809 1136.38 812.38Q1142.75 815.76 1146 821.41Q1149.25 827.07 1149.25 834.09L1149.25 837.21Q1149.25 842.80 1146.19 847.67Q1143.14 852.55 1137.03 855.15L1137.03 857.49Q1141.58 858.01 1144.24 861Q1146.91 863.99 1146.91 868.54L1146.91 900L1129.75 900L1129.75 872.70Q1129.75 869.58 1128.13 867.63Q1126.50 865.68 1122.73 865.68L1102.97 865.68L1102.97 900M1102.97 825.38L1102.97 849.30L1119.35 849.30Q1125.59 849.30 1128.84 846.31Q1132.09 843.32 1132.09 838.12L1132.09 836.56Q1132.09 832.01 1128.84 828.69Q1125.59 825.38 1119.35 825.38 M1209.66 901.82Q1194.06 901.82 1185.09 892.26Q1176.12 882.71 1176.12 864.64L1176.12 844.36Q1176.12 826.81 1185.09 817Q1194.06 807.18 1209.66 807.18Q1225.26 807.18 1234.23 817Q1243.20 826.81 1243.20 844.36L1243.20 864.64Q1243.20 882.71 1234.23 892.26Q1225.26 901.82 1209.66 901.82M1209.66 886.22Q1219.02 886.22 1222.53 880.50Q1226.04 874.78 1226.04 865.68L1226.04 843.32Q1226.04 837.60 1224.35 832.92Q1222.66 828.24 1219.08 825.51Q1215.51 822.78 1209.66 822.78Q1203.81 822.78 1200.17 825.51Q1196.53 828.24 1194.90 832.92Q1193.28 837.60 1193.28 843.32L1193.28 865.68Q1193.28 874.78 1196.79 880.50Q1200.30 886.22 1209.66 886.22 M1309.33 900L1269.42 900L1269.42 883.62L1278 883.62L1278 825.38L1269.42 825.38L1269.42 809L1309.33 809Q1322.46 809 1329.35 815.76Q1336.24 822.52 1336.24 832.66L1336.24 834.22Q1336.24 842.02 1331.88 846.70Q1327.53 851.38 1320.90 853.20L1320.90 855.54Q1327.53 857.23 1331.88 862.11Q1336.24 866.98 1336.24 874.65L1336.24 876.21Q1336.24 886.48 1329.35 893.24Q1322.46 900 1309.33 900M1295.16 825.38L1295.16 846.18L1307.64 846.18Q1313.10 846.18 1316.48 843.84Q1319.86 841.50 1319.86 836.17L1319.86 835.39Q1319.86 830.06 1316.48 827.72Q1313.10 825.38 1307.64 825.38L1295.16 825.38M1295.16 862.56L1295.16 883.62L1307.64 883.62Q1313.10 883.62 1316.48 881.22Q1319.86 878.81 1319.86 873.48L1319.86 872.70Q1319.86 867.37 1316.48 864.97Q1313.10 862.56 1307.64 862.56 M1376.89 900L1358.95 900L1380.66 809L1412.90 809L1434.61 900L1416.67 900L1412.25 880.50L1381.31 880.50L1376.89 900M1395.61 817.58L1384.95 864.12L1408.48 864.12L1397.95 817.58 M1496.45 900L1456.54 900L1456.54 883.62L1465.12 883.62L1465.12 825.38L1456.54 825.38L1456.54 809L1496.45 809Q1509.58 809 1516.47 815.76Q1523.36 822.52 1523.36 832.66L1523.36 834.22Q1523.36 842.02 1519 846.70Q1514.65 851.38 1508.02 853.20L1508.02 855.54Q1514.65 857.23 1519 862.11Q1523.36 866.98 1523.36 874.65L1523.36 876.21Q1523.36 886.48 1516.47 893.24Q1509.58 900 1496.45 900M1482.28 825.38L1482.28 846.18L1494.76 846.18Q1500.22 846.18 1503.60 843.84Q1506.98 841.50 1506.98 836.17L1506.98 835.39Q1506.98 830.06 1503.60 827.72Q1500.22 825.38 1494.76 825.38L1482.28 825.38M1482.28 862.56L1482.28 883.62L1494.76 883.62Q1500.22 883.62 1503.60 881.22Q1506.98 878.81 1506.98 873.48L1506.98 872.70Q1506.98 867.37 1503.60 864.97Q1500.22 862.56 1494.76 862.56 M1613.28 900L1554.78 900L1554.78 809L1571.94 809L1571.94 883.62L1613.28 883.62 M1686.04 900L1668.88 900L1668.88 868.02L1664.98 868.02L1638.85 809L1657.57 809L1676.29 852.42L1678.63 852.42L1697.35 809L1716.07 809L1689.94 868.02L1686.04 868.02  M1835.72 920.28L1830.26 920.28L1830.26 903.90L1834.94 903.90Q1843.91 903.90 1851.06 900.59Q1858.21 897.27 1862.30 889.92Q1866.40 882.58 1866.40 870.62L1866.40 838.38Q1866.40 826.42 1862.30 819.08Q1858.21 811.73 1851.06 808.41Q1843.91 805.10 1834.94 805.10L1830.26 805.10L1830.26 788.72L1835.72 788.72Q1845.34 788.72 1853.92 791.51Q1862.50 794.31 1869.13 800.23Q1875.76 806.14 1879.53 815.37Q1883.30 824.60 1883.30 837.34L1883.30 871.66Q1883.30 884.40 1879.53 893.63Q1875.76 902.86 1869.13 908.77Q1862.50 914.69 1853.92 917.49Q1845.34 920.28 1835.72 920.28" fill="#0a0a0f"/>
</svg>
