<svg xmlns="http://www.w3.org/2000/svg" viewBox="0 0 2700 1155">
  <g transform="translate(1011.57, 320)">
    <path d="M45.15 0L6.96 0L6.96-197.66L45.15-197.66L45.15 0M87.71-126.23L67.94-126.23L56.71-197.66L96.25-197.66L87.71-126.23M182.16 0L128.25 0L103.88-197.77L141.50-197.77L155.99-63.23L168.91-197.77L206.53-197.77L182.16 0M299.63 0L217.98 0L217.98-197.66L297.05-197.66L297.05-159.47L258.19-159.47L258.19-120.95L295.47-120.95L295.47-83.78L258.19-83.78L258.19-38.52L299.63-38.52L299.63 0M407.33 1.80Q364.99 1.80 364.99-58.85L364.99-144.09Q364.99-199.45 413.51-199.45Q433.50-199.45 444.17-191.42Q454.83-183.39 458.88-168.01Q462.92-152.62 462.92-130.50L424.29-130.50L424.29-148.02Q424.29-154.42 422.55-158.74Q420.81-163.07 415.30-163.07Q408.45-163.07 406.26-158.46Q404.07-153.86 404.07-148.35L404.07-52.56Q404.07-44.58 406.15-39.59Q408.23-34.59 414.29-34.59Q420.58-34.59 422.66-39.59Q424.74-44.58 424.74-52.78L424.74-80.97L414.18-80.97L414.18-115.11L462.47-115.11L462.47 0L446.64 0L439.90-16.62Q429.57 1.80 407.33 1.80M525.25 1.80Q501.55 1.80 489.03-12.52Q476.51-26.84 476.51-53.91L476.51-147.79Q476.51-173.17 488.92-186.31Q501.33-199.45 525.25-199.45Q549.17-199.45 561.58-186.31Q573.99-173.17 573.99-147.79L573.99-53.91Q573.99-26.84 561.47-12.52Q548.95 1.80 525.25 1.80M525.59-34.59Q534.57-34.59 534.57-52L534.57-148.47Q534.57-163.07 525.81-163.07Q515.93-163.07 515.93-148.13L515.93-51.77Q515.93-42.56 518.17-38.58Q520.42-34.59 525.59-34.59M646.43 0L606.89 0L606.89-159.70L583.42-159.70L583.42-197.66L669.90-197.66L669.90-159.70L646.43-159.70" fill="#0a0a0f"/>
  </g>
  <g transform="translate(416.78, 680)">
    <path d="M141.50 0L13.71 0L13.71-309.37L137.46-309.37L137.46-249.61L76.64-249.61L76.64-189.32L135-189.32L135-131.13L76.64-131.13L76.64-60.29L141.50-60.29L141.50 0M287.40 0L161.89 0L161.89-309.37L223.77-309.37L223.77-52.73L287.40-52.73L287.40 0M432.77 0L304.98 0L304.98-309.37L428.73-309.37L428.73-249.61L367.91-249.61L367.91-189.32L426.27-189.32L426.27-131.13L367.91-131.13L367.91-60.29L432.77-60.29L432.77 0M525.23 2.81Q491.66 2.81 471.18-18.11Q450.70-39.02 450.70-76.64L450.70-219.37Q450.70-264.37 468.54-288.28Q486.39-312.19 526.64-312.19Q548.61-312.19 565.75-304.10Q582.89-296.02 592.73-279.93Q602.58-263.85 602.58-239.41L602.58-185.98L541.05-185.98L541.05-231.68Q541.05-245.57 537.54-250.40Q534.02-255.23 526.64-255.23Q518.03-255.23 515.04-248.99Q512.05-242.75 512.05-232.38L512.05-77.52Q512.05-64.69 515.83-59.41Q519.61-54.14 526.64-54.14Q534.55-54.14 537.80-60.64Q541.05-67.15 541.05-77.52L541.05-133.24L603.28-133.24L603.28-74.71Q603.28-33.93 582.71-15.56Q562.15 2.81 525.23 2.81M712.27 0L650.39 0L650.39-249.96L613.65-249.96L613.65-309.37L749-309.37L749-249.96L712.27-249.96L712.27 0M828.81 0L766.23 0L766.23-309.37L861.15-309.37Q884.88-309.37 897.01-298.56Q909.14-287.75 913.27-268.33Q917.40-248.91 917.40-222.71Q917.40-197.40 910.99-182.29Q904.57-167.17 886.82-161.37Q901.41-158.38 907.29-146.87Q913.18-135.35 913.18-117.07L913.18 0L852.19 0L852.19-121.11Q852.19-134.65 846.65-137.90Q841.11-141.15 828.81-141.15L828.81 0M829.16-252.07L829.16-194.77L844.10-194.77Q856.93-194.77 856.93-222.71Q856.93-240.82 854.12-246.45Q851.31-252.07 843.57-252.07L829.16-252.07M1011.62 2.81Q974.53 2.81 954.93-19.60Q935.33-42.01 935.33-84.37L935.33-231.33Q935.33-271.05 954.76-291.62Q974.18-312.19 1011.62-312.19Q1049.06-312.19 1068.49-291.62Q1087.91-271.05 1087.91-231.33L1087.91-84.37Q1087.91-42.01 1068.31-19.60Q1048.71 2.81 1011.62 2.81M1012.15-54.14Q1026.21-54.14 1026.21-81.39L1026.21-232.38Q1026.21-255.23 1012.50-255.23Q997.03-255.23 997.03-231.86L997.03-81.04Q997.03-66.62 1000.55-60.38Q1004.06-54.14 1012.15-54.14M1238.38 0L1112.87 0L1112.87-309.37L1174.75-309.37L1174.75-52.73L1238.38-52.73L1238.38 0M1351.76 0L1293.40 0L1293.40-101.78L1244-309.37L1305.35-309.37L1322.58-204.61L1339.80-309.37L1400.98-309.37L1351.76-101.78L1351.76 0M1505.04 0L1443.16 0L1443.16-249.96L1406.43-249.96L1406.43-309.37L1541.78-309.37L1541.78-249.96L1505.04-249.96L1505.04 0M1686.80 0L1559 0L1559-309.37L1682.75-309.37L1682.75-249.61L1621.93-249.61L1621.93-189.32L1680.29-189.32L1680.29-131.13L1621.93-131.13L1621.93-60.29L1686.80-60.29L1686.80 0M1780.66 2.81Q1738.30 2.81 1719.58-18.28Q1700.86-39.37 1700.86-85.43L1700.86-115.66L1762.03-115.66L1762.03-76.99Q1762.03-66.27 1765.28-60.21Q1768.54-54.14 1776.62-54.14Q1785.06-54.14 1788.31-59.06Q1791.56-63.98 1791.56-75.23Q1791.56-89.47 1788.75-99.05Q1785.94-108.63 1778.99-117.33Q1772.05-126.04 1759.75-137.64L1731.97-164Q1700.86-193.36 1700.86-231.15Q1700.86-270.70 1719.23-291.45Q1737.60-312.19 1772.40-312.19Q1814.94-312.19 1832.78-289.51Q1850.63-266.84 1850.63-220.61L1787.70-220.61L1787.70-241.87Q1787.70-248.20 1784.09-251.72Q1780.49-255.23 1774.34-255.23Q1766.95-255.23 1763.53-251.10Q1760.10-246.97 1760.10-240.47Q1760.10-233.96 1763.61-226.41Q1767.13-218.85 1777.50-209L1813.18-174.73Q1823.91-164.53 1832.87-153.19Q1841.84-141.86 1847.29-126.83Q1852.73-111.80 1852.73-90.18Q1852.73-46.58 1836.65-21.88Q1820.57 2.81 1780.66 2.81" fill="#7bb800"/>
  </g>
  <g transform="translate(795.64, 900)">
    <path d="M74.10 20.28L68.64 20.28Q59.02 20.28 50.44 17.48Q41.86 14.69 35.23 8.78Q28.60 2.86 24.83-6.37Q21.06-15.60 21.06-28.34L21.06-62.66Q21.06-75.40 24.83-84.63Q28.60-93.86 35.23-99.78Q41.86-105.69 50.44-108.48Q59.02-111.28 68.64-111.28L74.10-111.28L74.10-94.90L69.42-94.90Q60.45-94.90 53.37-91.59Q46.28-88.27 42.12-80.92Q37.96-73.58 37.96-61.62L37.96-29.38Q37.96-17.42 42.12-10.08Q46.28-2.73 53.37 0.59Q60.45 3.90 69.42 3.90L74.10 3.90L74.10 20.28M213.64 0L196.48 0L196.48-91L232.10-91Q241.46-91 247.63-87.17Q253.81-83.33 256.87-77.28Q259.92-71.24 259.92-64.61L259.92-61.49Q259.92-54.73 256.87-48.49Q253.81-42.25 247.63-38.29Q241.46-34.32 232.10-34.32L213.64-34.32L213.64 0M213.64-74.62L213.64-50.70L230.41-50.70Q236.13-50.70 239.44-53.82Q242.76-56.94 242.76-61.88L242.76-63.44Q242.76-68.38 239.44-71.50Q236.13-74.62 230.41-74.62L213.64-74.62M307.33 0L290.17 0L290.17-91L325.01-91Q334.37-91 340.74-87.62Q347.11-84.24 350.36-78.59Q353.61-72.93 353.61-65.91L353.61-62.79Q353.61-57.20 350.56-52.33Q347.50-47.45 341.39-44.85L341.39-42.51Q345.94-41.99 348.61-39Q351.27-36.01 351.27-31.46L351.27 0L334.11 0L334.11-27.30Q334.11-30.42 332.49-32.37Q330.86-34.32 327.09-34.32L307.33-34.32L307.33 0M307.33-74.62L307.33-50.70L323.71-50.70Q329.95-50.70 333.20-53.69Q336.45-56.68 336.45-61.88L336.45-63.44Q336.45-67.99 333.20-71.31Q329.95-74.62 323.71-74.62L307.33-74.62M414.02 1.82Q398.42 1.82 389.45-7.74Q380.48-17.29 380.48-35.36L380.48-55.64Q380.48-73.19 389.45-83.01Q398.42-92.82 414.02-92.82Q429.62-92.82 438.59-83.01Q447.56-73.19 447.56-55.64L447.56-35.36Q447.56-17.29 438.59-7.74Q429.62 1.82 414.02 1.82M414.02-13.78Q423.38-13.78 426.89-19.50Q430.40-25.22 430.40-34.32L430.40-56.68Q430.40-62.40 428.71-67.08Q427.02-71.76 423.44-74.49Q419.87-77.22 414.02-77.22Q408.17-77.22 404.53-74.49Q400.89-71.76 399.26-67.08Q397.64-62.40 397.64-56.68L397.64-34.32Q397.64-25.22 401.15-19.50Q404.66-13.78 414.02-13.78M513.69 0L473.78 0L473.78-16.38L482.36-16.38L482.36-74.62L473.78-74.62L473.78-91L513.69-91Q526.82-91 533.71-84.24Q540.60-77.48 540.60-67.34L540.60-65.78Q540.60-57.98 536.25-53.30Q531.89-48.62 525.26-46.80L525.26-44.46Q531.89-42.77 536.25-37.90Q540.60-33.02 540.60-25.35L540.60-23.79Q540.60-13.52 533.71-6.76Q526.82 0 513.69 0M499.52-74.62L499.52-53.82L512-53.82Q517.46-53.82 520.84-56.16Q524.22-58.50 524.22-63.83L524.22-64.61Q524.22-69.94 520.84-72.28Q517.46-74.62 512-74.62L499.52-74.62M499.52-37.44L499.52-16.38L512-16.38Q517.46-16.38 520.84-18.79Q524.22-21.19 524.22-26.52L524.22-27.30Q524.22-32.63 520.84-35.04Q517.46-37.44 512-37.44L499.52-37.44M581.25 0L563.31 0L585.02-91L617.26-91L638.97 0L621.03 0L616.61-19.50L585.67-19.50L581.25 0M599.97-82.42L589.31-35.88L612.84-35.88L602.31-82.42L599.97-82.42M700.81 0L660.90 0L660.90-16.38L669.48-16.38L669.48-74.62L660.90-74.62L660.90-91L700.81-91Q713.94-91 720.83-84.24Q727.72-77.48 727.72-67.34L727.72-65.78Q727.72-57.98 723.37-53.30Q719.01-48.62 712.38-46.80L712.38-44.46Q719.01-42.77 723.37-37.90Q727.72-33.02 727.72-25.35L727.72-23.79Q727.72-13.52 720.83-6.76Q713.94 0 700.81 0M686.64-74.62L686.64-53.82L699.12-53.82Q704.58-53.82 707.96-56.16Q711.34-58.50 711.34-63.83L711.34-64.61Q711.34-69.94 707.96-72.28Q704.58-74.62 699.12-74.62L686.64-74.62M686.64-37.44L686.64-16.38L699.12-16.38Q704.58-16.38 707.96-18.79Q711.34-21.19 711.34-26.52L711.34-27.30Q711.34-32.63 707.96-35.04Q704.58-37.44 699.12-37.44L686.64-37.44M817.64 0L759.14 0L759.14-91L776.30-91L776.30-16.38L817.64-16.38L817.64 0M890.40 0L873.24 0L873.24-31.98L869.34-31.98L843.21-91L861.93-91L880.65-47.58L882.99-47.58L901.71-91L920.43-91L894.30-31.98L890.40-31.98L890.40 0M1040.08 20.28L1034.62 20.28L1034.62 3.90L1039.30 3.90Q1048.27 3.90 1055.42 0.59Q1062.57-2.73 1066.66-10.08Q1070.76-17.42 1070.76-29.38L1070.76-61.62Q1070.76-73.58 1066.66-80.92Q1062.57-88.27 1055.42-91.59Q1048.27-94.90 1039.30-94.90L1034.62-94.90L1034.62-111.28L1040.08-111.28Q1049.70-111.28 1058.28-108.48Q1066.86-105.69 1073.49-99.78Q1080.12-93.86 1083.89-84.63Q1087.66-75.40 1087.66-62.66L1087.66-28.34Q1087.66-15.60 1083.89-6.37Q1080.12 2.86 1073.49 8.78Q1066.86 14.69 1058.28 17.48Q1049.70 20.28 1040.08 20.28" fill="#0a0a0f"/>
  </g>
</svg>
