<svg xmlns="http://www.w3.org/2000/svg" viewBox="0 0 3000 3600">
  <g transform="translate(421.18, 900)">
    <path d="M141.33 0L21.80 0L21.80-618.75L141.33-618.75L141.33 0M375.38 0L251.63 0L251.63-499.92L178.16-499.92L178.16-618.75L448.86-618.75L448.86-499.92L375.38-499.92L375.38 0M575.34-395.16L513.46-395.16L478.30-618.75L602.05-618.75L575.34-395.16M800.25 5.63Q715.52 5.63 678.08-36.56Q640.64-78.75 640.64-170.86L640.64-231.33L762.98-231.33L762.98-153.98Q762.98-132.54 769.49-120.41Q775.99-108.28 792.16-108.28Q809.04-108.28 815.54-118.12Q822.05-127.97 822.05-150.47Q822.05-178.95 816.42-198.11Q810.80-217.27 796.91-234.67Q783.02-252.07 758.41-275.27L702.87-328.01Q640.64-386.72 640.64-462.30Q640.64-541.41 677.38-582.89Q714.12-624.37 783.73-624.37Q868.80-624.37 904.49-579.02Q940.17-533.67 940.17-441.21L814.31-441.21L814.31-483.75Q814.31-496.41 807.11-503.44Q799.90-510.47 787.59-510.47Q772.83-510.47 765.97-502.21Q759.12-493.95 759.12-480.94Q759.12-467.93 766.15-452.81Q773.18-437.70 793.92-418.01L865.29-349.45Q886.73-329.06 904.66-306.39Q922.59-283.71 933.49-253.65Q944.39-223.59 944.39-180.35Q944.39-93.16 912.22-43.77Q880.05 5.63 800.25 5.63M1297.89 5.63Q1165.35 5.63 1165.35-184.22L1165.35-451.05Q1165.35-624.37 1317.23-624.37Q1379.80-624.37 1413.20-599.24Q1446.60-574.10 1459.26-525.94Q1471.91-477.77 1471.91-408.52L1350.98-408.52L1350.98-463.36Q1350.98-483.40 1345.53-496.93Q1340.08-510.47 1322.85-510.47Q1301.41-510.47 1294.55-496.05Q1287.70-481.64 1287.70-464.41L1287.70-164.53Q1287.70-139.57 1294.20-123.93Q1300.70-108.28 1319.69-108.28Q1339.38-108.28 1345.88-123.93Q1352.38-139.57 1352.38-165.23L1352.38-253.48L1319.34-253.48L1319.34-360.35L1470.51-360.35L1470.51 0L1420.94 0L1399.84-52.03Q1367.50 5.63 1297.89 5.63M1675.03 5.63Q1600.85 5.63 1561.65-39.20Q1522.45-84.02 1522.45-168.75L1522.45-462.66Q1522.45-542.11 1561.30-583.24Q1600.15-624.37 1675.03-624.37Q1749.91-624.37 1788.76-583.24Q1827.61-542.11 1827.61-462.66L1827.61-168.75Q1827.61-84.02 1788.41-39.20Q1749.21 5.63 1675.03 5.63M1676.09-108.28Q1704.21-108.28 1704.21-162.77L1704.21-464.77Q1704.21-510.47 1676.79-510.47Q1645.85-510.47 1645.85-463.71L1645.85-162.07Q1645.85-133.24 1652.88-120.76Q1659.91-108.28 1676.09-108.28M2062.37 0L1938.62 0L1938.62-499.92L1865.14-499.92L1865.14-618.75L2135.84-618.75L2135.84-499.92L2062.37-499.92" fill="#c6f135"/>
  </g>
  <g transform="translate(733.72, 1620)">
    <path d="M226.76 0L75.94 0L9.49-618.75L130.43-618.75L164.53-228.16L199.34-618.75L314.65-618.75L347.70-228.16L380.74-618.75L503.09-618.75L435.59 0L287.23 0L256.29-297.77L226.76 0M671.05 0L548 0L548-618.75L671.05-618.75L671.05-397.62L729.41-397.62L729.41-618.75L852.45-618.75L852.45 0L729.41 0L729.41-280.55L671.05-280.55L671.05 0M1018.66 0L898.42 0L958.19-618.75L1168.07-618.75L1226.78 0L1109.71 0L1100.92-99.84L1026.39-99.84L1018.66 0M1058.73-513.28L1035.18-198.63L1091.43-198.63L1064.36-513.28L1058.73-513.28M1449.59 0L1325.84 0L1325.84-499.92L1252.36-499.92L1252.36-618.75L1523.06-618.75L1523.06-499.92L1449.59-499.92" fill="#c6f135"/>
  </g>
  <g transform="translate(731.00, 2280)">
    <path d="M196.88 0L65.63 0L6.29-481.52L97.89-481.52L133.16-153.95L164.61-481.52L256.21-481.52L196.88 0M404.95 4.38Q347.25 4.38 316.76-30.49Q286.27-65.35 286.27-131.25L286.27-359.84Q286.27-421.64 316.49-453.63Q346.70-485.62 404.95-485.62Q463.19-485.62 493.40-453.63Q523.62-421.64 523.62-359.84L523.62-131.25Q523.62-65.35 493.13-30.49Q462.64 4.38 404.95 4.38M405.77-84.22Q427.64-84.22 427.64-126.60L427.64-361.48Q427.64-397.03 406.31-397.03Q382.25-397.03 382.25-360.66L382.25-126.05Q382.25-103.63 387.72-93.93Q393.19-84.22 405.77-84.22M705.98 0L609.73 0L609.73-388.83L552.59-388.83L552.59-481.25L763.13-481.25L763.13-388.83L705.98-388.83L705.98 0M994.72 0L795.93 0L795.93-481.25L988.43-481.25L988.43-388.28L893.82-388.28L893.82-294.49L984.60-294.49L984.60-203.98L893.82-203.98L893.82-93.79L994.72-93.79L994.72 0M1129.78 0L1032.44 0L1032.44-481.25L1180.09-481.25Q1217.01-481.25 1235.88-464.43Q1254.74-447.62 1261.17-417.40Q1267.59-387.19 1267.59-346.45Q1267.59-307.07 1257.61-283.55Q1247.63-260.04 1220.02-251.02Q1242.71-246.37 1251.87-228.46Q1261.03-210.55 1261.03-182.11L1261.03 0L1166.15 0L1166.15-188.40Q1166.15-209.45 1157.54-214.51Q1148.92-219.57 1129.78-219.57L1129.78 0M1130.33-392.11L1130.33-302.97L1153.57-302.97Q1173.53-302.97 1173.53-346.45Q1173.53-374.61 1169.16-383.36Q1164.78-392.11 1152.75-392.11L1130.33-392.11M1419.61 4.38Q1353.71 4.38 1324.59-28.44Q1295.47-61.25 1295.47-132.89L1295.47-179.92L1390.63-179.92L1390.63-119.77Q1390.63-103.09 1395.68-93.65Q1400.74-84.22 1413.32-84.22Q1426.45-84.22 1431.50-91.87Q1436.56-99.53 1436.56-117.03Q1436.56-139.18 1432.19-154.08Q1427.81-168.98 1417.01-182.52Q1406.21-196.05 1387.07-214.10L1343.87-255.12Q1295.47-300.78 1295.47-359.57Q1295.47-421.09 1324.04-453.36Q1352.62-485.62 1406.76-485.62Q1472.93-485.62 1500.68-450.35Q1528.44-415.08 1528.44-343.16L1430.55-343.16L1430.55-376.25Q1430.55-386.09 1424.94-391.56Q1419.34-397.03 1409.77-397.03Q1398.28-397.03 1392.95-390.61Q1387.62-384.18 1387.62-374.06Q1387.62-363.95 1393.09-352.19Q1398.55-340.43 1414.69-325.12L1470.20-271.80Q1486.88-255.94 1500.82-238.30Q1514.77-220.66 1523.24-197.29Q1531.72-173.91 1531.72-140.27Q1531.72-72.46 1506.70-34.04Q1481.68 4.38 1419.61 4.38" fill="#ffffff"/>
  </g>
  <g transform="translate(835.71, 2900)">
    <path d="M133.44 4.38Q81.21 4.38 49.36-28.16Q17.50-60.70 17.50-119.22L17.50-341.25Q17.50-411.25 45.25-448.44Q73.01-485.62 135.63-485.62Q169.80-485.62 196.46-473.05Q223.13-460.47 238.44-435.45Q253.75-410.43 253.75-372.42L253.75-289.30L158.05-289.30L158.05-360.39Q158.05-381.99 152.58-389.51Q147.11-397.03 135.63-397.03Q122.23-397.03 117.58-387.32Q112.93-377.62 112.93-361.48L112.93-120.59Q112.93-100.62 118.81-92.42Q124.69-84.22 135.63-84.22Q147.93-84.22 152.99-94.34Q158.05-104.45 158.05-120.59L158.05-207.27L254.84-207.27L254.84-116.21Q254.84-52.77 222.85-24.20Q190.86 4.38 133.44 4.38M390.18 0L292.84 0L292.84-481.25L440.49-481.25Q477.41-481.25 496.27-464.43Q515.14-447.62 521.57-417.40Q527.99-387.19 527.99-346.45Q527.99-307.07 518.01-283.55Q508.03-260.04 480.41-251.02Q503.11-246.37 512.27-228.46Q521.43-210.55 521.43-182.11L521.43 0L426.55 0L426.55-188.40Q426.55-209.45 417.93-214.51Q409.32-219.57 390.18-219.57L390.18 0M390.73-392.11L390.73-302.97L413.97-302.97Q433.93-302.97 433.93-346.45Q433.93-374.61 429.55-383.36Q425.18-392.11 413.15-392.11L390.73-392.11M646.10 0L552.59 0L599.07-481.25L762.31-481.25L807.98 0L716.92 0L710.09-77.66L652.12-77.66L646.10 0M677.27-399.22L658.95-154.49L702.70-154.49L681.65-399.22L677.27-399.22M1019.05 0L887.80 0L828.47-481.52L920.07-481.52L955.34-153.95L986.79-481.52L1078.39-481.52L1019.05 0M1311.07 0L1112.28 0L1112.28-481.25L1304.78-481.25L1304.78-388.28L1210.17-388.28L1210.17-294.49L1300.95-294.49L1300.95-203.98L1210.17-203.98L1210.17-93.79L1311.07-93.79" fill="#ffffff"/>
  </g>
  <g transform="translate(839.17, 3300)">
    <path d="M36.88 0L14.54 0L14.54-90.26L1.27-90.26L1.27-111.72L50.15-111.72L50.15-90.26L36.88-90.26L36.88 0M96.58 0L74.37 0L74.37-111.72L96.58-111.72L96.58-71.79L107.12-71.79L107.12-111.72L129.34-111.72L129.34 0L107.12 0L107.12-50.65L96.58-50.65L96.58 0M203.39 0L157.24 0L157.24-111.72L201.93-111.72L201.93-90.14L179.96-90.14L179.96-68.36L201.04-68.36L201.04-47.35L179.96-47.35L179.96-21.77L203.39-21.77L203.39 0M297.79 0L276.20 0L276.20-111.72L297.79-111.72L297.79 0M354.63 0L324.67 0L324.67-111.72L355.40-111.72Q367.46-111.72 373.55-105.02Q379.64-98.33 379.64-85.44L379.64-33.13Q379.64-17.27 374.09-8.63Q368.54 0 354.63 0M347.14-92.17L347.14-19.74L351.02-19.74Q357.17-19.74 357.17-25.71L357.17-83.34Q357.17-88.93 355.68-90.55Q354.19-92.17 349.62-92.17L347.14-92.17M427.35 0L405.77 0L405.77-111.72L427.35-111.72L427.35 0M480.90 1.02Q467.50 1.02 460.43-7.08Q453.35-15.17 453.35-30.47L453.35-83.54Q453.35-97.88 460.36-105.31Q467.38-112.73 480.90-112.73Q494.42-112.73 501.43-105.31Q508.45-97.88 508.45-83.54L508.45-30.47Q508.45-15.17 501.37-7.08Q494.29 1.02 480.90 1.02M481.09-19.55Q486.17-19.55 486.17-29.39L486.17-83.92Q486.17-92.17 481.21-92.17Q475.63-92.17 475.63-83.73L475.63-29.26Q475.63-24.06 476.90-21.80Q478.17-19.55 481.09-19.55M561.49 1.02Q549.36 1.02 541.97-6.54Q534.57-14.09 534.57-27.68L534.57-79.22Q534.57-95.47 541.01-104.10Q547.46-112.73 561.99-112.73Q569.93-112.73 576.12-109.81Q582.31-106.89 585.86-101.09Q589.42-95.28 589.42-86.46L589.42-67.16L567.20-67.16L567.20-83.66Q567.20-88.68 565.93-90.42Q564.66-92.17 561.99-92.17Q558.88-92.17 557.80-89.91Q556.72-87.66 556.72-83.92L556.72-27.99Q556.72-23.36 558.09-21.46Q559.45-19.55 561.99-19.55Q564.85-19.55 566.02-21.90Q567.20-24.25 567.20-27.99L567.20-48.12L589.67-48.12L589.67-26.98Q589.67-12.25 582.24-5.62Q574.82 1.02 561.49 1.02M637.69 0L615.10 0L615.10-111.72L649.37-111.72Q657.94-111.72 662.32-107.81Q666.70-103.91 668.19-96.90Q669.69-89.88 669.69-80.42Q669.69-71.28 667.37-65.83Q665.05-60.37 658.64-58.27Q663.91-57.19 666.04-53.03Q668.16-48.88 668.16-42.28L668.16 0L646.14 0L646.14-43.74Q646.14-48.62 644.14-49.80Q642.14-50.97 637.69-50.97L637.69 0M637.82-91.03L637.82-70.33L643.22-70.33Q647.85-70.33 647.85-80.42Q647.85-86.96 646.83-88.99Q645.82-91.03 643.03-91.03L637.82-91.03M713.71 0L692 0L702.79-111.72L740.69-111.72L751.29 0L730.15 0L728.56-18.03L715.11-18.03L713.71 0M720.95-92.68L716.69-35.86L726.85-35.86L721.96-92.68L720.95-92.68M802.17 1.02Q790.05 1.02 782.65-6.54Q775.26-14.09 775.26-27.68L775.26-79.22Q775.26-95.47 781.70-104.10Q788.14-112.73 802.68-112.73Q810.61-112.73 816.80-109.81Q822.99-106.89 826.54-101.09Q830.10-95.28 830.10-86.46L830.10-67.16L807.88-67.16L807.88-83.66Q807.88-88.68 806.61-90.42Q805.34-92.17 802.68-92.17Q799.57-92.17 798.49-89.91Q797.41-87.66 797.41-83.92L797.41-27.99Q797.41-23.36 798.77-21.46Q800.14-19.55 802.68-19.55Q805.53-19.55 806.71-21.90Q807.88-24.25 807.88-27.99L807.88-48.12L830.35-48.12L830.35-26.98Q830.35-12.25 822.93-5.62Q815.50 1.02 802.17 1.02M890.38 0L869.30 0L869.30-36.75L851.46-111.72L873.62-111.72L879.84-73.89L886.06-111.72L908.15-111.72L890.38-36.75L890.38 0M1000.83 0L979.25 0L979.25-111.72L1000.83-111.72L1000.83 0M1049.56 0L1027.72 0L1027.72-111.72L1050.70-111.72L1060.98-58.21L1060.98-111.72L1082.56-111.72L1082.56 0L1060.73 0L1049.56-55.86L1049.56 0M1140.43 0L1110.47 0L1110.47-111.72L1141.19-111.72Q1153.25-111.72 1159.34-105.02Q1165.44-98.33 1165.44-85.44L1165.44-33.13Q1165.44-17.27 1159.88-8.63Q1154.33 0 1140.43 0M1132.94-92.17L1132.94-19.74L1136.81-19.74Q1142.97-19.74 1142.97-25.71L1142.97-83.34Q1142.97-88.93 1141.47-90.55Q1139.98-92.17 1135.41-92.17L1132.94-92.17M1238.72 0L1192.58 0L1192.58-111.72L1237.26-111.72L1237.26-90.14L1215.30-90.14L1215.30-68.36L1236.38-68.36L1236.38-47.35L1215.30-47.35L1215.30-21.77L1238.72-21.77L1238.72 0M1283.51 0L1260.85 0L1272.85-59.22L1263.33-111.78L1285.16-111.78L1290.94-73.38L1296.08-111.78L1317.98-111.78L1308.46-59.22L1320.39 0L1297.79 0L1290.75-43.67" fill="#a6a6c2"/>
  </g>
</svg>
