<svg xmlns="http://www.w3.org/2000/svg" viewBox="0 0 3000 3600">
  <path d="M569.89 900L450.36 900L450.36 281.25L569.89 281.25 M803.95 900L680.20 900L680.20 400.08L606.72 400.08L606.72 281.25L877.42 281.25L877.42 400.08L803.95 400.08 M1003.90 504.84L942.02 504.84L906.87 281.25L1030.62 281.25 M1228.81 905.63Q1144.09 905.63 1106.64 863.44Q1069.20 821.25 1069.20 729.14L1069.20 668.67L1191.55 668.67L1191.55 746.02Q1191.55 767.46 1198.05 779.59Q1204.55 791.72 1220.73 791.72Q1237.60 791.72 1244.11 781.88Q1250.61 772.03 1250.61 749.53Q1250.61 721.05 1244.98 701.89Q1239.36 682.73 1225.47 665.33Q1211.59 647.93 1186.98 624.73L1131.43 571.99Q1069.20 513.28 1069.20 437.70Q1069.20 358.59 1105.94 317.11Q1142.68 275.63 1212.29 275.63Q1297.37 275.63 1333.05 320.98Q1368.73 366.33 1368.73 458.79L1242.88 458.79L1242.88 416.25Q1242.88 403.59 1235.67 396.56Q1228.46 389.53 1216.16 389.53Q1201.39 389.53 1194.54 397.79Q1187.68 406.05 1187.68 419.06Q1187.68 432.07 1194.71 447.19Q1201.74 462.30 1222.48 481.99L1293.85 550.55Q1315.30 570.94 1333.23 593.61Q1351.16 616.29 1362.05 646.35Q1372.95 676.41 1372.95 719.65Q1372.95 806.84 1340.79 856.23Q1308.62 905.63 1228.81 905.63  M1726.45 905.63Q1593.91 905.63 1593.91 715.78L1593.91 448.95Q1593.91 275.63 1745.79 275.63Q1808.37 275.63 1841.77 300.76Q1875.16 325.90 1887.82 374.06Q1900.48 422.23 1900.48 491.48L1779.54 491.48L1779.54 436.64Q1779.54 416.60 1774.09 403.07Q1768.64 389.53 1751.41 389.53Q1729.97 389.53 1723.11 403.95Q1716.26 418.36 1716.26 435.59L1716.26 735.47Q1716.26 760.43 1722.76 776.07Q1729.27 791.72 1748.25 791.72Q1767.94 791.72 1774.44 776.07Q1780.95 760.43 1780.95 734.77L1780.95 646.52L1747.90 646.52L1747.90 539.65L1899.07 539.65L1899.07 900L1849.50 900L1828.41 847.97Q1796.06 905.63 1726.45 905.63 M2103.59 905.63Q2029.41 905.63 1990.21 860.80Q1951.02 815.98 1951.02 731.25L1951.02 437.34Q1951.02 357.89 1989.86 316.76Q2028.71 275.63 2103.59 275.63Q2178.48 275.63 2217.32 316.76Q2256.17 357.89 2256.17 437.34L2256.17 731.25Q2256.17 815.98 2216.97 860.80Q2177.77 905.63 2103.59 905.63M2104.65 791.72Q2132.77 791.72 2132.77 737.23L2132.77 435.23Q2132.77 389.53 2105.35 389.53Q2074.41 389.53 2074.41 436.29L2074.41 737.93Q2074.41 766.76 2081.45 779.24Q2088.48 791.72 2104.65 791.72 M2490.93 900L2367.18 900L2367.18 400.08L2293.70 400.08L2293.70 281.25L2564.41 281.25L2564.41 400.08L2490.93 400.08" fill="#c6f135"/>
  <path d="M961.71 1620L810.89 1620L744.45 1001.25L865.38 1001.25L899.48 1391.84L934.29 1001.25L1049.60 1001.25L1082.65 1391.84L1115.70 1001.25L1238.04 1001.25L1170.54 1620L1022.18 1620L991.24 1322.23 M1406 1620L1282.95 1620L1282.95 1001.25L1406 1001.25L1406 1222.38L1464.36 1222.38L1464.36 1001.25L1587.41 1001.25L1587.41 1620L1464.36 1620L1464.36 1339.45L1406 1339.45 M1753.61 1620L1633.38 1620L1693.14 1001.25L1903.02 1001.25L1961.73 1620L1844.66 1620L1835.88 1520.16L1761.34 1520.16L1753.61 1620M1793.69 1106.72L1770.13 1421.37L1826.38 1421.37L1799.31 1106.72 M2184.54 1620L2060.79 1620L2060.79 1120.08L1987.31 1120.08L1987.31 1001.25L2258.02 1001.25L2258.02 1120.08L2184.54 1120.08" fill="#c6f135"/>
  <path d="M925.68 2280L794.43 2280L735.10 1798.48L826.70 1798.48L861.97 2126.05L893.42 1798.48L985.02 1798.48 M1133.75 2284.38Q1076.06 2284.38 1045.57 2249.51Q1015.08 2214.65 1015.08 2148.75L1015.08 1920.16Q1015.08 1858.36 1045.30 1826.37Q1075.51 1794.38 1133.75 1794.38Q1192 1794.38 1222.21 1826.37Q1252.43 1858.36 1252.43 1920.16L1252.43 2148.75Q1252.43 2214.65 1221.94 2249.51Q1191.45 2284.38 1133.75 2284.38M1134.57 2195.78Q1156.45 2195.78 1156.45 2153.40L1156.45 1918.52Q1156.45 1882.97 1135.12 1882.97Q1111.06 1882.97 1111.06 1919.34L1111.06 2153.95Q1111.06 2176.37 1116.53 2186.07Q1122 2195.78 1134.57 2195.78 M1434.79 2280L1338.54 2280L1338.54 1891.17L1281.39 1891.17L1281.39 1798.75L1491.94 1798.75L1491.94 1891.17L1434.79 1891.17 M1723.53 2280L1524.74 2280L1524.74 1798.75L1717.24 1798.75L1717.24 1891.72L1622.63 1891.72L1622.63 1985.51L1713.41 1985.51L1713.41 2076.02L1622.63 2076.02L1622.63 2186.21L1723.53 2186.21 M1858.59 2280L1761.25 2280L1761.25 1798.75L1908.90 1798.75Q1945.82 1798.75 1964.68 1815.57Q1983.55 1832.38 1989.98 1862.60Q1996.40 1892.81 1996.40 1933.55Q1996.40 1972.93 1986.42 1996.45Q1976.44 2019.96 1948.82 2028.98Q1971.52 2033.63 1980.68 2051.54Q1989.84 2069.45 1989.84 2097.89L1989.84 2280L1894.96 2280L1894.96 2091.60Q1894.96 2070.55 1886.34 2065.49Q1877.73 2060.43 1858.59 2060.43L1858.59 2280M1859.14 1887.89L1859.14 1977.03L1882.38 1977.03Q1902.34 1977.03 1902.34 1933.55Q1902.34 1905.39 1897.96 1896.64Q1893.59 1887.89 1881.56 1887.89 M2148.42 2284.38Q2082.52 2284.38 2053.40 2251.56Q2024.28 2218.75 2024.28 2147.11L2024.28 2100.08L2119.43 2100.08L2119.43 2160.23Q2119.43 2176.91 2124.49 2186.35Q2129.55 2195.78 2142.13 2195.78Q2155.25 2195.78 2160.31 2188.13Q2165.37 2180.47 2165.37 2162.97Q2165.37 2140.82 2161 2125.92Q2156.62 2111.02 2145.82 2097.48Q2135.02 2083.95 2115.88 2065.90L2072.68 2024.88Q2024.28 1979.22 2024.28 1920.43Q2024.28 1858.91 2052.85 1826.64Q2081.43 1794.38 2135.57 1794.38Q2201.74 1794.38 2229.49 1829.65Q2257.25 1864.92 2257.25 1936.84L2159.36 1936.84L2159.36 1903.75Q2159.36 1893.91 2153.75 1888.44Q2148.14 1882.97 2138.57 1882.97Q2127.09 1882.97 2121.76 1889.39Q2116.43 1895.82 2116.43 1905.94Q2116.43 1916.05 2121.89 1927.81Q2127.36 1939.57 2143.50 1954.88L2199 2008.20Q2215.68 2024.06 2229.63 2041.70Q2243.57 2059.34 2252.05 2082.71Q2260.53 2106.09 2260.53 2139.73Q2260.53 2207.54 2235.51 2245.96Q2210.49 2284.38 2148.42 2284.38" fill="#ffffff"/>
  <path d="M972.71 2904.38Q920.48 2904.38 888.63 2871.84Q856.77 2839.30 856.77 2780.78L856.77 2558.75Q856.77 2488.75 884.52 2451.56Q912.28 2414.38 974.89 2414.38Q1009.07 2414.38 1035.73 2426.95Q1062.39 2439.53 1077.71 2464.55Q1093.02 2489.57 1093.02 2527.58L1093.02 2610.70L997.32 2610.70L997.32 2539.61Q997.32 2518.01 991.85 2510.49Q986.38 2502.97 974.89 2502.97Q961.50 2502.97 956.85 2512.68Q952.20 2522.38 952.20 2538.52L952.20 2779.41Q952.20 2799.38 958.08 2807.58Q963.96 2815.78 974.89 2815.78Q987.20 2815.78 992.26 2805.66Q997.32 2795.55 997.32 2779.41L997.32 2692.73L1094.11 2692.73L1094.11 2783.79Q1094.11 2847.23 1062.12 2875.80Q1030.13 2904.38 972.71 2904.38 M1229.45 2900L1132.11 2900L1132.11 2418.75L1279.76 2418.75Q1316.68 2418.75 1335.54 2435.57Q1354.41 2452.38 1360.84 2482.60Q1367.26 2512.81 1367.26 2553.55Q1367.26 2592.93 1357.28 2616.45Q1347.30 2639.96 1319.68 2648.98Q1342.38 2653.63 1351.54 2671.54Q1360.70 2689.45 1360.70 2717.89L1360.70 2900L1265.82 2900L1265.82 2711.60Q1265.82 2690.55 1257.20 2685.49Q1248.59 2680.43 1229.45 2680.43L1229.45 2900M1230 2507.89L1230 2597.03L1253.24 2597.03Q1273.20 2597.03 1273.20 2553.55Q1273.20 2525.39 1268.82 2516.64Q1264.45 2507.89 1252.42 2507.89 M1485.37 2900L1391.86 2900L1438.34 2418.75L1601.58 2418.75L1647.25 2900L1556.19 2900L1549.36 2822.34L1491.39 2822.34L1485.37 2900M1516.54 2500.78L1498.22 2745.51L1541.97 2745.51L1520.92 2500.78 M1858.32 2900L1727.07 2900L1667.74 2418.48L1759.34 2418.48L1794.61 2746.05L1826.06 2418.48L1917.66 2418.48 M2150.34 2900L1951.55 2900L1951.55 2418.75L2144.05 2418.75L2144.05 2511.72L2049.44 2511.72L2049.44 2605.51L2140.22 2605.51L2140.22 2696.02L2049.44 2696.02L2049.44 2806.21L2150.34 2806.21" fill="#ffffff"/>
  <path d="M453 3085.32L417.12 3195L403.32 3190.68L439.32 3081  M630.96 3180L615.12 3180L615.12 3111.12L592.80 3111.12L592.80 3096L653.28 3096L653.28 3111.12L630.96 3111.12 M706.92 3180L691.08 3180L691.08 3096L706.92 3096L706.92 3130.32L734.04 3130.32L734.04 3096L749.88 3096L749.88 3180L734.04 3180L734.04 3145.44L706.92 3145.44 M845.52 3180L791.04 3180L791.04 3096L844.08 3096L844.08 3111.12L806.88 3111.12L806.88 3130.32L842.64 3130.32L842.64 3145.44L806.88 3145.44L806.88 3164.88L845.52 3164.88  M1040.88 3180L984.72 3180L984.72 3164.88L1004.88 3164.88L1004.88 3111.12L984.72 3111.12L984.72 3096L1040.88 3096L1040.88 3111.12L1020.72 3111.12L1020.72 3164.88L1040.88 3164.88 M1109.52 3180L1079.04 3180L1079.04 3164.76L1086.96 3164.76L1086.96 3111.12L1079.04 3111.12L1079.04 3096L1109.52 3096Q1125 3096 1132.62 3103.32Q1140.24 3110.64 1140.24 3125.76L1140.24 3150.24Q1140.24 3165.36 1132.62 3172.68Q1125 3180 1109.52 3180M1102.80 3111.12L1102.80 3164.88L1109.52 3164.88Q1117.80 3164.88 1121.10 3160.98Q1124.40 3157.08 1124.40 3148.80L1124.40 3125.76Q1124.40 3118.56 1121.10 3114.84Q1117.80 3111.12 1109.52 3111.12 M1235.76 3180L1179.60 3180L1179.60 3164.88L1199.76 3164.88L1199.76 3111.12L1179.60 3111.12L1179.60 3096L1235.76 3096L1235.76 3111.12L1215.60 3111.12L1215.60 3164.88L1235.76 3164.88 M1305.12 3181.68Q1290.72 3181.68 1282.44 3172.86Q1274.16 3164.04 1274.16 3147.36L1274.16 3128.64Q1274.16 3112.44 1282.44 3103.38Q1290.72 3094.32 1305.12 3094.32Q1319.52 3094.32 1327.80 3103.38Q1336.08 3112.44 1336.08 3128.64L1336.08 3147.36Q1336.08 3164.04 1327.80 3172.86Q1319.52 3181.68 1305.12 3181.68M1305.12 3167.28Q1313.76 3167.28 1317 3162Q1320.24 3156.72 1320.24 3148.32L1320.24 3127.68Q1320.24 3122.40 1318.68 3118.08Q1317.12 3113.76 1313.82 3111.24Q1310.52 3108.72 1305.12 3108.72Q1299.72 3108.72 1296.36 3111.24Q1293 3113.76 1291.50 3118.08Q1290 3122.40 1290 3127.68L1290 3148.32Q1290 3156.72 1293.24 3162Q1296.48 3167.28 1305.12 3167.28 M1402.80 3181.68Q1388.40 3181.68 1380 3172.86Q1371.60 3164.04 1371.60 3147.36L1371.60 3128.64Q1371.60 3112.44 1380 3103.38Q1388.40 3094.32 1402.80 3094.32Q1417.80 3094.32 1425.66 3102.72Q1433.52 3111.12 1433.52 3125.52L1433.52 3127.68L1417.68 3127.68L1417.68 3125.52Q1417.68 3121.56 1416.36 3117.66Q1415.04 3113.76 1411.80 3111.24Q1408.56 3108.72 1402.80 3108.72Q1397.52 3108.72 1394.10 3111.30Q1390.68 3113.88 1389.06 3118.14Q1387.44 3122.40 1387.44 3127.44L1387.44 3148.56Q1387.44 3156.72 1390.92 3162Q1394.40 3167.28 1402.80 3167.28Q1408.92 3167.28 1412.16 3164.88Q1415.40 3162.48 1416.54 3158.64Q1417.68 3154.80 1417.68 3150.48L1417.68 3148.32L1433.52 3148.32L1433.52 3150.48Q1433.52 3165.36 1425.66 3173.52Q1417.80 3181.68 1402.80 3181.68 M1487.88 3180L1472.04 3180L1472.04 3096L1504.20 3096Q1512.84 3096 1518.72 3099.12Q1524.60 3102.24 1527.60 3107.46Q1530.60 3112.68 1530.60 3119.16L1530.60 3122.04Q1530.60 3127.20 1527.78 3131.70Q1524.96 3136.20 1519.32 3138.60L1519.32 3140.76Q1523.52 3141.24 1525.98 3144Q1528.44 3146.76 1528.44 3150.96L1528.44 3180L1512.60 3180L1512.60 3154.80Q1512.60 3151.92 1511.10 3150.12Q1509.60 3148.32 1506.12 3148.32L1487.88 3148.32L1487.88 3180M1487.88 3111.12L1487.88 3133.20L1503 3133.20Q1508.76 3133.20 1511.76 3130.44Q1514.76 3127.68 1514.76 3122.88L1514.76 3121.44Q1514.76 3117.24 1511.76 3114.18Q1508.76 3111.12 1503 3111.12 M1579.08 3180L1562.52 3180L1582.56 3096L1612.32 3096L1632.36 3180L1615.80 3180L1611.72 3162L1583.16 3162L1579.08 3180M1596.36 3103.92L1586.52 3146.88L1608.24 3146.88L1598.52 3103.92 M1695.12 3181.68Q1680.72 3181.68 1672.32 3172.86Q1663.92 3164.04 1663.92 3147.36L1663.92 3128.64Q1663.92 3112.44 1672.32 3103.38Q1680.72 3094.32 1695.12 3094.32Q1710.12 3094.32 1717.98 3102.72Q1725.84 3111.12 1725.84 3125.52L1725.84 3127.68L1710 3127.68L1710 3125.52Q1710 3121.56 1708.68 3117.66Q1707.36 3113.76 1704.12 3111.24Q1700.88 3108.72 1695.12 3108.72Q1689.84 3108.72 1686.42 3111.30Q1683 3113.88 1681.38 3118.14Q1679.76 3122.40 1679.76 3127.44L1679.76 3148.56Q1679.76 3156.72 1683.24 3162Q1686.72 3167.28 1695.12 3167.28Q1701.24 3167.28 1704.48 3164.88Q1707.72 3162.48 1708.86 3158.64Q1710 3154.80 1710 3150.48L1710 3148.32L1725.84 3148.32L1725.84 3150.48Q1725.84 3165.36 1717.98 3173.52Q1710.12 3181.68 1695.12 3181.68 M1800.24 3180L1784.40 3180L1784.40 3150.48L1780.80 3150.48L1756.68 3096L1773.96 3096L1791.24 3136.08L1793.40 3136.08L1810.68 3096L1827.96 3096L1803.84 3150.48L1800.24 3150.48  M2015.28 3180L1959.12 3180L1959.12 3164.88L1979.28 3164.88L1979.28 3111.12L1959.12 3111.12L1959.12 3096L2015.28 3096L2015.28 3111.12L1995.12 3111.12L1995.12 3164.88L2015.28 3164.88 M2071.08 3180L2055.24 3180L2055.24 3096L2086.20 3096L2096.04 3172.08L2098.20 3172.08L2098.20 3096L2114.04 3096L2114.04 3180L2083.08 3180L2073.24 3103.92L2071.08 3103.92 M2181.36 3180L2150.88 3180L2150.88 3164.76L2158.80 3164.76L2158.80 3111.12L2150.88 3111.12L2150.88 3096L2181.36 3096Q2196.84 3096 2204.46 3103.32Q2212.08 3110.64 2212.08 3125.76L2212.08 3150.24Q2212.08 3165.36 2204.46 3172.68Q2196.84 3180 2181.36 3180M2174.64 3111.12L2174.64 3164.88L2181.36 3164.88Q2189.64 3164.88 2192.94 3160.98Q2196.24 3157.08 2196.24 3148.80L2196.24 3125.76Q2196.24 3118.56 2192.94 3114.84Q2189.64 3111.12 2181.36 3111.12 M2307.12 3180L2252.64 3180L2252.64 3096L2305.68 3096L2305.68 3111.12L2268.48 3111.12L2268.48 3130.32L2304.24 3130.32L2304.24 3145.44L2268.48 3145.44L2268.48 3164.88L2307.12 3164.88 M2361.36 3180L2344.20 3180L2361.48 3138.96L2361.48 3136.80L2344.20 3096L2361.36 3096L2375.52 3130.32L2378.40 3130.32L2392.56 3096L2409.72 3096L2392.44 3136.80L2392.44 3138.96L2409.72 3180L2392.56 3180L2378.40 3145.44L2375.52 3145.44  M2596.68 3085.32L2560.80 3195LNaN 3190.68LNaN 3081" fill="#a6a6c2"/>
</svg>
